%TF.GenerationSoftware,KiCad,Pcbnew,10.0.1*%
%TF.CreationDate,2026-06-03T22:04:10+01:00*%
%TF.ProjectId,emp,656d702e-6b69-4636-9164-5f7063625858,rev?*%
%TF.SameCoordinates,Original*%
%TF.FileFunction,Legend,Top*%
%TF.FilePolarity,Positive*%
%FSLAX46Y46*%
G04 Gerber Fmt 4.6, Leading zero omitted, Abs format (unit mm)*
G04 Created by KiCad (PCBNEW 10.0.1) date 2026-06-03 22:04:10*
%MOMM*%
%LPD*%
G01*
G04 APERTURE LIST*
%ADD10C,0.300000*%
%ADD11C,0.100000*%
%ADD12C,0.150000*%
%ADD13C,0.120000*%
%ADD14C,0.000000*%
G04 APERTURE END LIST*
D10*
X112483082Y-104229400D02*
X112697368Y-104300828D01*
X112697368Y-104300828D02*
X113054510Y-104300828D01*
X113054510Y-104300828D02*
X113197368Y-104229400D01*
X113197368Y-104229400D02*
X113268796Y-104157971D01*
X113268796Y-104157971D02*
X113340225Y-104015114D01*
X113340225Y-104015114D02*
X113340225Y-103872257D01*
X113340225Y-103872257D02*
X113268796Y-103729400D01*
X113268796Y-103729400D02*
X113197368Y-103657971D01*
X113197368Y-103657971D02*
X113054510Y-103586542D01*
X113054510Y-103586542D02*
X112768796Y-103515114D01*
X112768796Y-103515114D02*
X112625939Y-103443685D01*
X112625939Y-103443685D02*
X112554510Y-103372257D01*
X112554510Y-103372257D02*
X112483082Y-103229400D01*
X112483082Y-103229400D02*
X112483082Y-103086542D01*
X112483082Y-103086542D02*
X112554510Y-102943685D01*
X112554510Y-102943685D02*
X112625939Y-102872257D01*
X112625939Y-102872257D02*
X112768796Y-102800828D01*
X112768796Y-102800828D02*
X113125939Y-102800828D01*
X113125939Y-102800828D02*
X113340225Y-102872257D01*
X113983081Y-104300828D02*
X113983081Y-102800828D01*
X114625939Y-104300828D02*
X114625939Y-103515114D01*
X114625939Y-103515114D02*
X114554510Y-103372257D01*
X114554510Y-103372257D02*
X114411653Y-103300828D01*
X114411653Y-103300828D02*
X114197367Y-103300828D01*
X114197367Y-103300828D02*
X114054510Y-103372257D01*
X114054510Y-103372257D02*
X113983081Y-103443685D01*
X115340224Y-104300828D02*
X115340224Y-103300828D01*
X115340224Y-102800828D02*
X115268796Y-102872257D01*
X115268796Y-102872257D02*
X115340224Y-102943685D01*
X115340224Y-102943685D02*
X115411653Y-102872257D01*
X115411653Y-102872257D02*
X115340224Y-102800828D01*
X115340224Y-102800828D02*
X115340224Y-102943685D01*
X116625939Y-104229400D02*
X116483082Y-104300828D01*
X116483082Y-104300828D02*
X116197368Y-104300828D01*
X116197368Y-104300828D02*
X116054510Y-104229400D01*
X116054510Y-104229400D02*
X115983082Y-104086542D01*
X115983082Y-104086542D02*
X115983082Y-103515114D01*
X115983082Y-103515114D02*
X116054510Y-103372257D01*
X116054510Y-103372257D02*
X116197368Y-103300828D01*
X116197368Y-103300828D02*
X116483082Y-103300828D01*
X116483082Y-103300828D02*
X116625939Y-103372257D01*
X116625939Y-103372257D02*
X116697368Y-103515114D01*
X116697368Y-103515114D02*
X116697368Y-103657971D01*
X116697368Y-103657971D02*
X115983082Y-103800828D01*
X117554510Y-104300828D02*
X117411653Y-104229400D01*
X117411653Y-104229400D02*
X117340224Y-104086542D01*
X117340224Y-104086542D02*
X117340224Y-102800828D01*
X118768796Y-104300828D02*
X118768796Y-102800828D01*
X118768796Y-104229400D02*
X118625938Y-104300828D01*
X118625938Y-104300828D02*
X118340224Y-104300828D01*
X118340224Y-104300828D02*
X118197367Y-104229400D01*
X118197367Y-104229400D02*
X118125938Y-104157971D01*
X118125938Y-104157971D02*
X118054510Y-104015114D01*
X118054510Y-104015114D02*
X118054510Y-103586542D01*
X118054510Y-103586542D02*
X118125938Y-103443685D01*
X118125938Y-103443685D02*
X118197367Y-103372257D01*
X118197367Y-103372257D02*
X118340224Y-103300828D01*
X118340224Y-103300828D02*
X118625938Y-103300828D01*
X118625938Y-103300828D02*
X118768796Y-103372257D01*
X96054510Y-77515114D02*
X95554510Y-77515114D01*
X95554510Y-78300828D02*
X95554510Y-76800828D01*
X95554510Y-76800828D02*
X96268796Y-76800828D01*
X96840224Y-78300828D02*
X96840224Y-76800828D01*
X98411653Y-78300828D02*
X97911653Y-77586542D01*
X97554510Y-78300828D02*
X97554510Y-76800828D01*
X97554510Y-76800828D02*
X98125939Y-76800828D01*
X98125939Y-76800828D02*
X98268796Y-76872257D01*
X98268796Y-76872257D02*
X98340225Y-76943685D01*
X98340225Y-76943685D02*
X98411653Y-77086542D01*
X98411653Y-77086542D02*
X98411653Y-77300828D01*
X98411653Y-77300828D02*
X98340225Y-77443685D01*
X98340225Y-77443685D02*
X98268796Y-77515114D01*
X98268796Y-77515114D02*
X98125939Y-77586542D01*
X98125939Y-77586542D02*
X97554510Y-77586542D01*
X99054510Y-77515114D02*
X99554510Y-77515114D01*
X99768796Y-78300828D02*
X99054510Y-78300828D01*
X99054510Y-78300828D02*
X99054510Y-76800828D01*
X99054510Y-76800828D02*
X99768796Y-76800828D01*
X101554510Y-78300828D02*
X101554510Y-76800828D01*
X101554510Y-77372257D02*
X101697368Y-77300828D01*
X101697368Y-77300828D02*
X101983082Y-77300828D01*
X101983082Y-77300828D02*
X102125939Y-77372257D01*
X102125939Y-77372257D02*
X102197368Y-77443685D01*
X102197368Y-77443685D02*
X102268796Y-77586542D01*
X102268796Y-77586542D02*
X102268796Y-78015114D01*
X102268796Y-78015114D02*
X102197368Y-78157971D01*
X102197368Y-78157971D02*
X102125939Y-78229400D01*
X102125939Y-78229400D02*
X101983082Y-78300828D01*
X101983082Y-78300828D02*
X101697368Y-78300828D01*
X101697368Y-78300828D02*
X101554510Y-78229400D01*
X103554511Y-77300828D02*
X103554511Y-78300828D01*
X102911653Y-77300828D02*
X102911653Y-78086542D01*
X102911653Y-78086542D02*
X102983082Y-78229400D01*
X102983082Y-78229400D02*
X103125939Y-78300828D01*
X103125939Y-78300828D02*
X103340225Y-78300828D01*
X103340225Y-78300828D02*
X103483082Y-78229400D01*
X103483082Y-78229400D02*
X103554511Y-78157971D01*
X104054511Y-77300828D02*
X104625939Y-77300828D01*
X104268796Y-76800828D02*
X104268796Y-78086542D01*
X104268796Y-78086542D02*
X104340225Y-78229400D01*
X104340225Y-78229400D02*
X104483082Y-78300828D01*
X104483082Y-78300828D02*
X104625939Y-78300828D01*
X104911654Y-77300828D02*
X105483082Y-77300828D01*
X105125939Y-76800828D02*
X105125939Y-78086542D01*
X105125939Y-78086542D02*
X105197368Y-78229400D01*
X105197368Y-78229400D02*
X105340225Y-78300828D01*
X105340225Y-78300828D02*
X105483082Y-78300828D01*
X106197368Y-78300828D02*
X106054511Y-78229400D01*
X106054511Y-78229400D02*
X105983082Y-78157971D01*
X105983082Y-78157971D02*
X105911654Y-78015114D01*
X105911654Y-78015114D02*
X105911654Y-77586542D01*
X105911654Y-77586542D02*
X105983082Y-77443685D01*
X105983082Y-77443685D02*
X106054511Y-77372257D01*
X106054511Y-77372257D02*
X106197368Y-77300828D01*
X106197368Y-77300828D02*
X106411654Y-77300828D01*
X106411654Y-77300828D02*
X106554511Y-77372257D01*
X106554511Y-77372257D02*
X106625940Y-77443685D01*
X106625940Y-77443685D02*
X106697368Y-77586542D01*
X106697368Y-77586542D02*
X106697368Y-78015114D01*
X106697368Y-78015114D02*
X106625940Y-78157971D01*
X106625940Y-78157971D02*
X106554511Y-78229400D01*
X106554511Y-78229400D02*
X106411654Y-78300828D01*
X106411654Y-78300828D02*
X106197368Y-78300828D01*
X107340225Y-77300828D02*
X107340225Y-78300828D01*
X107340225Y-77443685D02*
X107411654Y-77372257D01*
X107411654Y-77372257D02*
X107554511Y-77300828D01*
X107554511Y-77300828D02*
X107768797Y-77300828D01*
X107768797Y-77300828D02*
X107911654Y-77372257D01*
X107911654Y-77372257D02*
X107983083Y-77515114D01*
X107983083Y-77515114D02*
X107983083Y-78300828D01*
X141554510Y-105015114D02*
X141768796Y-105086542D01*
X141768796Y-105086542D02*
X141840225Y-105157971D01*
X141840225Y-105157971D02*
X141911653Y-105300828D01*
X141911653Y-105300828D02*
X141911653Y-105515114D01*
X141911653Y-105515114D02*
X141840225Y-105657971D01*
X141840225Y-105657971D02*
X141768796Y-105729400D01*
X141768796Y-105729400D02*
X141625939Y-105800828D01*
X141625939Y-105800828D02*
X141054510Y-105800828D01*
X141054510Y-105800828D02*
X141054510Y-104300828D01*
X141054510Y-104300828D02*
X141554510Y-104300828D01*
X141554510Y-104300828D02*
X141697368Y-104372257D01*
X141697368Y-104372257D02*
X141768796Y-104443685D01*
X141768796Y-104443685D02*
X141840225Y-104586542D01*
X141840225Y-104586542D02*
X141840225Y-104729400D01*
X141840225Y-104729400D02*
X141768796Y-104872257D01*
X141768796Y-104872257D02*
X141697368Y-104943685D01*
X141697368Y-104943685D02*
X141554510Y-105015114D01*
X141554510Y-105015114D02*
X141054510Y-105015114D01*
X142483082Y-105372257D02*
X143197368Y-105372257D01*
X142340225Y-105800828D02*
X142840225Y-104300828D01*
X142840225Y-104300828D02*
X143340225Y-105800828D01*
X143625939Y-104300828D02*
X144483082Y-104300828D01*
X144054510Y-105800828D02*
X144054510Y-104300828D01*
X200657971Y-99863346D02*
X200729400Y-99934774D01*
X200729400Y-99934774D02*
X200800828Y-100149060D01*
X200800828Y-100149060D02*
X200800828Y-100291917D01*
X200800828Y-100291917D02*
X200729400Y-100506203D01*
X200729400Y-100506203D02*
X200586542Y-100649060D01*
X200586542Y-100649060D02*
X200443685Y-100720489D01*
X200443685Y-100720489D02*
X200157971Y-100791917D01*
X200157971Y-100791917D02*
X199943685Y-100791917D01*
X199943685Y-100791917D02*
X199657971Y-100720489D01*
X199657971Y-100720489D02*
X199515114Y-100649060D01*
X199515114Y-100649060D02*
X199372257Y-100506203D01*
X199372257Y-100506203D02*
X199300828Y-100291917D01*
X199300828Y-100291917D02*
X199300828Y-100149060D01*
X199300828Y-100149060D02*
X199372257Y-99934774D01*
X199372257Y-99934774D02*
X199443685Y-99863346D01*
X199300828Y-98934774D02*
X199300828Y-98649060D01*
X199300828Y-98649060D02*
X199372257Y-98506203D01*
X199372257Y-98506203D02*
X199515114Y-98363346D01*
X199515114Y-98363346D02*
X199800828Y-98291917D01*
X199800828Y-98291917D02*
X200300828Y-98291917D01*
X200300828Y-98291917D02*
X200586542Y-98363346D01*
X200586542Y-98363346D02*
X200729400Y-98506203D01*
X200729400Y-98506203D02*
X200800828Y-98649060D01*
X200800828Y-98649060D02*
X200800828Y-98934774D01*
X200800828Y-98934774D02*
X200729400Y-99077632D01*
X200729400Y-99077632D02*
X200586542Y-99220489D01*
X200586542Y-99220489D02*
X200300828Y-99291917D01*
X200300828Y-99291917D02*
X199800828Y-99291917D01*
X199800828Y-99291917D02*
X199515114Y-99220489D01*
X199515114Y-99220489D02*
X199372257Y-99077632D01*
X199372257Y-99077632D02*
X199300828Y-98934774D01*
X200800828Y-97649060D02*
X199300828Y-97649060D01*
X200800828Y-96220488D02*
X200800828Y-96934774D01*
X200800828Y-96934774D02*
X199300828Y-96934774D01*
D11*
G36*
X108858862Y-111294839D02*
G01*
X109114679Y-111309500D01*
X109327663Y-111334645D01*
X109504579Y-111369089D01*
X109701895Y-111433006D01*
X109847740Y-111513681D01*
X109937960Y-111607563D01*
X109968946Y-111714692D01*
X109936597Y-111830491D01*
X109844154Y-111927798D01*
X109692341Y-112010715D01*
X109586244Y-112049758D01*
X109466721Y-112081545D01*
X109101273Y-112144193D01*
X109409928Y-112168626D01*
X109610214Y-112191821D01*
X109783263Y-112222931D01*
X109938110Y-112263995D01*
X110131953Y-112343167D01*
X110278218Y-112440338D01*
X110368719Y-112549368D01*
X110399424Y-112668461D01*
X110367591Y-112788152D01*
X110274555Y-112895118D01*
X110124570Y-112988411D01*
X109928035Y-113060593D01*
X109711661Y-113107205D01*
X109448098Y-113138262D01*
X109141337Y-113153740D01*
X108664384Y-113160000D01*
X106167306Y-113160000D01*
X106167306Y-113128736D01*
X106355159Y-113120364D01*
X106486653Y-113106144D01*
X106600278Y-113082815D01*
X106700061Y-113049357D01*
X106790467Y-113000434D01*
X106846912Y-112938471D01*
X106873516Y-112862181D01*
X106882579Y-112756022D01*
X107632763Y-112756022D01*
X107642805Y-112853902D01*
X107668483Y-112921985D01*
X107717205Y-112981423D01*
X107786331Y-113028963D01*
X107919890Y-113077525D01*
X108112068Y-113109058D01*
X108384115Y-113120921D01*
X108657557Y-113112564D01*
X108888980Y-113088970D01*
X109085690Y-113051489D01*
X109253314Y-113000265D01*
X109390310Y-112936007D01*
X109489229Y-112861221D01*
X109550920Y-112773841D01*
X109572662Y-112671025D01*
X109547329Y-112554756D01*
X109473438Y-112449497D01*
X109353417Y-112356752D01*
X109207213Y-112292327D01*
X109049505Y-112251446D01*
X108844301Y-112219698D01*
X108580298Y-112198617D01*
X108243981Y-112190844D01*
X107632763Y-112190844D01*
X107632763Y-112756022D01*
X106882579Y-112756022D01*
X106884769Y-112730376D01*
X106884769Y-112151765D01*
X107632763Y-112151765D01*
X107909368Y-112151765D01*
X108312369Y-112140652D01*
X108604239Y-112114518D01*
X108807571Y-112072997D01*
X108961185Y-112013349D01*
X109075628Y-111938297D01*
X109145593Y-111852849D01*
X109169661Y-111756580D01*
X109145167Y-111653944D01*
X109072269Y-111557034D01*
X108955705Y-111470967D01*
X108814593Y-111409877D01*
X108665007Y-111371638D01*
X108494940Y-111347718D01*
X108292469Y-111336014D01*
X107950279Y-111331109D01*
X107632763Y-111331109D01*
X107632763Y-112151765D01*
X106884769Y-112151765D01*
X106884769Y-111721653D01*
X106873516Y-111589849D01*
X106846912Y-111513558D01*
X106790467Y-111451596D01*
X106700061Y-111402672D01*
X106599685Y-111368354D01*
X106484822Y-111345275D01*
X106352474Y-111331459D01*
X106167306Y-111323293D01*
X106167306Y-111292030D01*
X108411592Y-111292030D01*
X108858862Y-111294839D01*
G37*
G36*
X111989750Y-113160000D02*
G01*
X111989750Y-113128736D01*
X112174934Y-113120603D01*
X112307266Y-113106877D01*
X112422802Y-113083768D01*
X112526168Y-113049357D01*
X112613940Y-113000539D01*
X112669661Y-112938471D01*
X112696051Y-112862180D01*
X112707213Y-112730376D01*
X112710572Y-112463541D01*
X112696980Y-112404966D01*
X112652564Y-112336168D01*
X112562725Y-112252312D01*
X112386034Y-112133569D01*
X111501570Y-111601120D01*
X111344338Y-111505376D01*
X111160776Y-111413239D01*
X111002704Y-111362983D01*
X110831734Y-111334284D01*
X110592986Y-111323293D01*
X110592986Y-111292030D01*
X112819870Y-111292030D01*
X112819870Y-111323293D01*
X112562051Y-111333395D01*
X112457780Y-111343810D01*
X112351020Y-111371872D01*
X112288765Y-111410407D01*
X112266660Y-111462878D01*
X112276485Y-111494970D01*
X112309403Y-111534075D01*
X112447705Y-111633970D01*
X113373080Y-112214413D01*
X114165648Y-111718845D01*
X114254492Y-111662791D01*
X114350907Y-111582060D01*
X114380887Y-111506720D01*
X114364134Y-111450913D01*
X114317159Y-111406673D01*
X114240753Y-111371287D01*
X114080495Y-111336300D01*
X113847827Y-111323293D01*
X113847827Y-111292030D01*
X115419225Y-111292030D01*
X115419225Y-111323293D01*
X115252374Y-111334237D01*
X115145978Y-111347229D01*
X115052691Y-111367094D01*
X114951195Y-111398520D01*
X114722567Y-111499522D01*
X114435537Y-111659982D01*
X113656707Y-112136378D01*
X113534644Y-112216806D01*
X113485737Y-112260942D01*
X113464516Y-112307460D01*
X113455207Y-112395031D01*
X113455207Y-112730376D01*
X113466027Y-112866567D01*
X113490928Y-112940547D01*
X113545603Y-112999811D01*
X113636252Y-113049357D01*
X113773477Y-113092170D01*
X113948426Y-113119035D01*
X114172365Y-113128736D01*
X114172365Y-113160000D01*
X111989750Y-113160000D01*
G37*
G36*
X120287126Y-111985143D02*
G01*
X120514436Y-112001678D01*
X120731896Y-112027704D01*
X120896981Y-112057732D01*
X121030866Y-112096503D01*
X121120696Y-112139980D01*
X121173586Y-112189012D01*
X121192693Y-112237034D01*
X121201064Y-112327131D01*
X121201064Y-112833203D01*
X121209700Y-112951496D01*
X121228541Y-113008203D01*
X121288608Y-113063928D01*
X121379274Y-113094603D01*
X121508504Y-113105289D01*
X121606874Y-113100939D01*
X121673979Y-113089535D01*
X121732899Y-113068738D01*
X121815640Y-113026643D01*
X121873953Y-113040321D01*
X121793241Y-113102592D01*
X121677754Y-113146059D01*
X121521364Y-113173416D01*
X121310362Y-113183447D01*
X121083496Y-113170919D01*
X120907362Y-113135697D01*
X120807467Y-113096541D01*
X120688764Y-113026643D01*
X120470411Y-113099926D01*
X120343771Y-113134354D01*
X120108330Y-113170724D01*
X119827808Y-113183447D01*
X119583270Y-113174567D01*
X119387946Y-113149966D01*
X119231550Y-113111273D01*
X119109814Y-113057808D01*
X119036895Y-112993904D01*
X119015512Y-112928702D01*
X119602494Y-112928702D01*
X119634901Y-113012600D01*
X119727058Y-113077812D01*
X119818505Y-113110668D01*
X119922367Y-113129952D01*
X120043047Y-113136552D01*
X120204302Y-113126344D01*
X120359036Y-113094909D01*
X120488718Y-113046454D01*
X120582824Y-112983412D01*
X120658325Y-112880667D01*
X120688764Y-112718042D01*
X120688764Y-112489675D01*
X120496011Y-112547193D01*
X120282405Y-112597752D01*
X119937107Y-112678353D01*
X119763084Y-112744054D01*
X119673954Y-112799725D01*
X119620686Y-112860718D01*
X119602494Y-112928702D01*
X119015512Y-112928702D01*
X119011427Y-112916245D01*
X119032260Y-112843753D01*
X119092452Y-112781392D01*
X119192472Y-112726835D01*
X119302689Y-112688854D01*
X119428166Y-112659424D01*
X119814070Y-112608255D01*
X120253096Y-112557819D01*
X120386801Y-112534545D01*
X120490317Y-112508726D01*
X120584140Y-112473823D01*
X120640526Y-112435087D01*
X120670017Y-112388527D01*
X120681742Y-112317850D01*
X120661686Y-112213226D01*
X120609059Y-112138287D01*
X120531533Y-112085697D01*
X120454257Y-112055463D01*
X120355373Y-112031475D01*
X120245429Y-112016149D01*
X120131891Y-112011081D01*
X119998507Y-112018552D01*
X119882458Y-112040512D01*
X119787746Y-112075216D01*
X119718815Y-112121845D01*
X119633330Y-112203178D01*
X119574583Y-112240167D01*
X119494822Y-112261492D01*
X119387255Y-112269002D01*
X119280041Y-112261042D01*
X119192472Y-112237494D01*
X119133976Y-112202189D01*
X119114009Y-112158115D01*
X119137730Y-112115831D01*
X119213441Y-112076165D01*
X119360083Y-112037337D01*
X119502316Y-112015194D01*
X119689506Y-111995938D01*
X119885468Y-111983783D01*
X120073883Y-111979818D01*
X120287126Y-111985143D01*
G37*
G36*
X122761165Y-111995450D02*
G01*
X123632196Y-111995450D01*
X123632196Y-112042344D01*
X122761165Y-112042344D01*
X122761165Y-112841995D01*
X122778063Y-112937590D01*
X122821615Y-113003741D01*
X122884202Y-113048136D01*
X122958391Y-113078433D01*
X123054867Y-113101748D01*
X123164293Y-113116061D01*
X123283845Y-113120921D01*
X123428595Y-113114230D01*
X123539689Y-113095764D01*
X123639276Y-113063370D01*
X123765308Y-113003684D01*
X123816599Y-113019316D01*
X123680426Y-113092309D01*
X123500610Y-113143147D01*
X123281898Y-113172593D01*
X122993501Y-113183447D01*
X122728436Y-113175019D01*
X122538918Y-113152891D01*
X122406097Y-113120188D01*
X122323326Y-113083555D01*
X122276038Y-113041175D01*
X122254988Y-112985975D01*
X122245507Y-112875457D01*
X122245507Y-112042344D01*
X121880059Y-112042344D01*
X121880059Y-112022561D01*
X122088735Y-111983923D01*
X122289776Y-111914849D01*
X122470821Y-111814466D01*
X122600575Y-111685261D01*
X122634769Y-111640198D01*
X122761165Y-111640198D01*
X122761165Y-111995450D01*
G37*
G36*
X125084055Y-111985143D02*
G01*
X125311366Y-112001678D01*
X125528825Y-112027704D01*
X125693911Y-112057732D01*
X125827795Y-112096503D01*
X125917625Y-112139980D01*
X125970516Y-112189012D01*
X125989622Y-112237034D01*
X125997993Y-112327131D01*
X125997993Y-112833203D01*
X126006629Y-112951496D01*
X126025471Y-113008203D01*
X126085537Y-113063928D01*
X126176204Y-113094603D01*
X126305434Y-113105289D01*
X126403804Y-113100939D01*
X126470908Y-113089535D01*
X126529829Y-113068738D01*
X126612569Y-113026643D01*
X126670882Y-113040321D01*
X126590171Y-113102592D01*
X126474683Y-113146059D01*
X126318294Y-113173416D01*
X126107292Y-113183447D01*
X125880425Y-113170919D01*
X125704291Y-113135697D01*
X125604396Y-113096541D01*
X125485694Y-113026643D01*
X125267340Y-113099926D01*
X125140701Y-113134354D01*
X124905260Y-113170724D01*
X124624738Y-113183447D01*
X124380199Y-113174567D01*
X124184876Y-113149966D01*
X124028480Y-113111273D01*
X123906743Y-113057808D01*
X123833824Y-112993904D01*
X123812441Y-112928702D01*
X124399424Y-112928702D01*
X124431830Y-113012600D01*
X124523988Y-113077812D01*
X124615435Y-113110668D01*
X124719296Y-113129952D01*
X124839977Y-113136552D01*
X125001231Y-113126344D01*
X125155966Y-113094909D01*
X125285647Y-113046454D01*
X125379754Y-112983412D01*
X125455255Y-112880667D01*
X125485694Y-112718042D01*
X125485694Y-112489675D01*
X125292940Y-112547193D01*
X125079335Y-112597752D01*
X124734036Y-112678353D01*
X124560013Y-112744054D01*
X124470883Y-112799725D01*
X124417616Y-112860718D01*
X124399424Y-112928702D01*
X123812441Y-112928702D01*
X123808356Y-112916245D01*
X123829190Y-112843753D01*
X123889382Y-112781392D01*
X123989401Y-112726835D01*
X124099618Y-112688854D01*
X124225095Y-112659424D01*
X124610999Y-112608255D01*
X125050026Y-112557819D01*
X125183731Y-112534545D01*
X125287247Y-112508726D01*
X125381070Y-112473823D01*
X125437456Y-112435087D01*
X125466946Y-112388527D01*
X125478672Y-112317850D01*
X125458616Y-112213226D01*
X125405989Y-112138287D01*
X125328463Y-112085697D01*
X125251186Y-112055463D01*
X125152302Y-112031475D01*
X125042358Y-112016149D01*
X124928820Y-112011081D01*
X124795437Y-112018552D01*
X124679387Y-112040512D01*
X124584676Y-112075216D01*
X124515744Y-112121845D01*
X124430259Y-112203178D01*
X124371512Y-112240167D01*
X124291752Y-112261492D01*
X124184185Y-112269002D01*
X124076971Y-112261042D01*
X123989401Y-112237494D01*
X123930906Y-112202189D01*
X123910938Y-112158115D01*
X123934660Y-112115831D01*
X124010370Y-112076165D01*
X124157013Y-112037337D01*
X124299246Y-112015194D01*
X124486435Y-111995938D01*
X124682398Y-111983783D01*
X124870812Y-111979818D01*
X125084055Y-111985143D01*
G37*
G36*
X129136209Y-113183447D02*
G01*
X129103073Y-113099896D01*
X129091939Y-113013820D01*
X128864989Y-113089006D01*
X128623627Y-113141368D01*
X128364024Y-113172764D01*
X128080774Y-113183447D01*
X127803213Y-113173301D01*
X127578006Y-113144996D01*
X127394452Y-113100160D01*
X127256009Y-113039179D01*
X127171620Y-112963339D01*
X127141660Y-112868007D01*
X127141660Y-112392711D01*
X127138302Y-112288907D01*
X127130064Y-112202391D01*
X127110825Y-112153719D01*
X127071485Y-112114296D01*
X127008548Y-112081301D01*
X126885299Y-112051632D01*
X126653175Y-112026713D01*
X126653175Y-111995450D01*
X127653960Y-111995450D01*
X127653960Y-112688733D01*
X127679605Y-112905621D01*
X127717763Y-112971889D01*
X127773639Y-113021147D01*
X127863392Y-113062115D01*
X127988572Y-113094298D01*
X128134954Y-113114075D01*
X128302730Y-113120921D01*
X128489062Y-113113332D01*
X128661461Y-113090879D01*
X128812967Y-113054735D01*
X128924328Y-113009057D01*
X129006096Y-112952229D01*
X129055608Y-112886325D01*
X129078393Y-112805434D01*
X129088276Y-112656981D01*
X129088276Y-112389658D01*
X129084918Y-112288663D01*
X129059272Y-112153597D01*
X129020417Y-112114392D01*
X128955163Y-112081301D01*
X128834556Y-112051757D01*
X128600095Y-112026713D01*
X128600095Y-111995450D01*
X129600881Y-111995450D01*
X129600881Y-112738558D01*
X129619504Y-112936273D01*
X129648895Y-112989642D01*
X129693082Y-113028597D01*
X129761463Y-113062362D01*
X129836270Y-113084040D01*
X129928376Y-113097168D01*
X130071964Y-113105289D01*
X130071964Y-113136552D01*
X129136209Y-113183447D01*
G37*
G36*
X130295141Y-111284214D02*
G01*
X131275471Y-111237320D01*
X131275471Y-112761395D01*
X131278829Y-112865198D01*
X131286946Y-112951806D01*
X131306001Y-113001120D01*
X131346567Y-113040714D01*
X131412247Y-113072805D01*
X131532371Y-113102601D01*
X131763956Y-113128736D01*
X131763956Y-113160000D01*
X130257588Y-113160000D01*
X130257588Y-113128736D01*
X130446838Y-113114196D01*
X130551290Y-113098084D01*
X130629234Y-113072314D01*
X130694783Y-113030429D01*
X130724618Y-112994753D01*
X130747601Y-112935540D01*
X130763171Y-112751870D01*
X130763171Y-111680010D01*
X130746074Y-111483517D01*
X130717231Y-111429735D01*
X130670969Y-111390582D01*
X130605177Y-111357144D01*
X130530835Y-111335994D01*
X130439093Y-111323409D01*
X130295141Y-111315478D01*
X130295141Y-111284214D01*
G37*
G36*
X131990186Y-111284214D02*
G01*
X132970516Y-111237320D01*
X132970516Y-112761395D01*
X132973874Y-112865198D01*
X132981991Y-112951806D01*
X133001046Y-113001120D01*
X133041613Y-113040714D01*
X133107292Y-113072805D01*
X133227416Y-113102601D01*
X133459002Y-113128736D01*
X133459002Y-113160000D01*
X131952634Y-113160000D01*
X131952634Y-113128736D01*
X132141884Y-113114196D01*
X132246336Y-113098084D01*
X132324279Y-113072314D01*
X132389829Y-113030429D01*
X132419664Y-112994753D01*
X132442646Y-112935540D01*
X132458217Y-112751870D01*
X132458217Y-111680010D01*
X132441120Y-111483517D01*
X132412277Y-111429735D01*
X132366015Y-111390582D01*
X132300223Y-111357144D01*
X132225881Y-111335994D01*
X132134138Y-111323409D01*
X131990186Y-111315478D01*
X131990186Y-111284214D01*
G37*
G36*
X135039394Y-111985143D02*
G01*
X135266704Y-112001678D01*
X135484164Y-112027704D01*
X135649249Y-112057732D01*
X135783134Y-112096503D01*
X135872964Y-112139980D01*
X135925854Y-112189012D01*
X135944961Y-112237034D01*
X135953332Y-112327131D01*
X135953332Y-112833203D01*
X135961968Y-112951496D01*
X135980809Y-113008203D01*
X136040876Y-113063928D01*
X136131542Y-113094603D01*
X136260772Y-113105289D01*
X136359142Y-113100939D01*
X136426247Y-113089535D01*
X136485167Y-113068738D01*
X136567908Y-113026643D01*
X136626221Y-113040321D01*
X136545509Y-113102592D01*
X136430021Y-113146059D01*
X136273632Y-113173416D01*
X136062630Y-113183447D01*
X135835764Y-113170919D01*
X135659630Y-113135697D01*
X135559735Y-113096541D01*
X135441032Y-113026643D01*
X135222679Y-113099926D01*
X135096039Y-113134354D01*
X134860598Y-113170724D01*
X134580076Y-113183447D01*
X134335538Y-113174567D01*
X134140214Y-113149966D01*
X133983818Y-113111273D01*
X133862082Y-113057808D01*
X133789163Y-112993904D01*
X133767780Y-112928702D01*
X134354762Y-112928702D01*
X134387169Y-113012600D01*
X134479326Y-113077812D01*
X134570773Y-113110668D01*
X134674635Y-113129952D01*
X134795315Y-113136552D01*
X134956570Y-113126344D01*
X135111304Y-113094909D01*
X135240986Y-113046454D01*
X135335092Y-112983412D01*
X135410593Y-112880667D01*
X135441032Y-112718042D01*
X135441032Y-112489675D01*
X135248279Y-112547193D01*
X135034673Y-112597752D01*
X134689375Y-112678353D01*
X134515352Y-112744054D01*
X134426222Y-112799725D01*
X134372954Y-112860718D01*
X134354762Y-112928702D01*
X133767780Y-112928702D01*
X133763695Y-112916245D01*
X133784528Y-112843753D01*
X133844720Y-112781392D01*
X133944740Y-112726835D01*
X134054957Y-112688854D01*
X134180434Y-112659424D01*
X134566338Y-112608255D01*
X135005364Y-112557819D01*
X135139069Y-112534545D01*
X135242585Y-112508726D01*
X135336408Y-112473823D01*
X135392794Y-112435087D01*
X135422285Y-112388527D01*
X135434010Y-112317850D01*
X135413954Y-112213226D01*
X135361327Y-112138287D01*
X135283801Y-112085697D01*
X135206525Y-112055463D01*
X135107641Y-112031475D01*
X134997697Y-112016149D01*
X134884159Y-112011081D01*
X134750775Y-112018552D01*
X134634726Y-112040512D01*
X134540014Y-112075216D01*
X134471083Y-112121845D01*
X134385598Y-112203178D01*
X134326850Y-112240167D01*
X134247090Y-112261492D01*
X134139523Y-112269002D01*
X134032309Y-112261042D01*
X133944740Y-112237494D01*
X133886244Y-112202189D01*
X133866277Y-112158115D01*
X133889998Y-112115831D01*
X133965709Y-112076165D01*
X134112351Y-112037337D01*
X134254584Y-112015194D01*
X134441774Y-111995938D01*
X134637736Y-111983783D01*
X134826151Y-111979818D01*
X135039394Y-111985143D01*
G37*
G36*
X137650209Y-111245136D02*
G01*
X137650209Y-112175212D01*
X137862090Y-112084965D01*
X138084045Y-112028300D01*
X138345521Y-111992355D01*
X138650994Y-111979818D01*
X138915697Y-111987628D01*
X139134946Y-112009446D01*
X139316861Y-112043688D01*
X139478125Y-112097914D01*
X139574537Y-112159947D01*
X139624221Y-112237479D01*
X139644757Y-112365966D01*
X139644757Y-112762983D01*
X139648115Y-112866297D01*
X139656235Y-112952554D01*
X139675287Y-113001608D01*
X139715849Y-113041076D01*
X139781533Y-113073049D01*
X139901627Y-113102729D01*
X140133243Y-113128736D01*
X140133243Y-113160000D01*
X138627180Y-113160000D01*
X138627180Y-113128736D01*
X138884856Y-113105655D01*
X138956202Y-113087781D01*
X139023159Y-113059249D01*
X139073204Y-113021139D01*
X139108339Y-112966681D01*
X139132458Y-112793635D01*
X139132458Y-112361814D01*
X139121783Y-112268877D01*
X139094905Y-112206598D01*
X139043988Y-112152652D01*
X138968510Y-112107069D01*
X138840110Y-112063301D01*
X138679441Y-112036339D01*
X138476666Y-112026713D01*
X138235837Y-112039738D01*
X138043859Y-112076670D01*
X137888581Y-112138236D01*
X137766267Y-112230149D01*
X137682313Y-112362167D01*
X137650209Y-112547072D01*
X137650209Y-112765059D01*
X137653567Y-112865809D01*
X137661692Y-112952279D01*
X137680739Y-113001364D01*
X137721288Y-113040854D01*
X137786985Y-113072927D01*
X137907113Y-113102698D01*
X138138695Y-113128736D01*
X138138695Y-113160000D01*
X136632327Y-113160000D01*
X136632327Y-113128736D01*
X136821596Y-113114230D01*
X136926029Y-113098206D01*
X137003978Y-113072552D01*
X137069521Y-113030795D01*
X137099365Y-112995269D01*
X137122339Y-112936395D01*
X137137909Y-112753457D01*
X137137909Y-111686238D01*
X137120812Y-111490600D01*
X137091979Y-111437050D01*
X137045708Y-111398032D01*
X136979959Y-111364797D01*
X136905573Y-111343688D01*
X136813829Y-111331129D01*
X136669879Y-111323293D01*
X136669879Y-111292030D01*
X137650209Y-111245136D01*
G37*
D12*
X98166666Y-121304819D02*
X97833333Y-120828628D01*
X97595238Y-121304819D02*
X97595238Y-120304819D01*
X97595238Y-120304819D02*
X97976190Y-120304819D01*
X97976190Y-120304819D02*
X98071428Y-120352438D01*
X98071428Y-120352438D02*
X98119047Y-120400057D01*
X98119047Y-120400057D02*
X98166666Y-120495295D01*
X98166666Y-120495295D02*
X98166666Y-120638152D01*
X98166666Y-120638152D02*
X98119047Y-120733390D01*
X98119047Y-120733390D02*
X98071428Y-120781009D01*
X98071428Y-120781009D02*
X97976190Y-120828628D01*
X97976190Y-120828628D02*
X97595238Y-120828628D01*
X98595238Y-120781009D02*
X98928571Y-120781009D01*
X99071428Y-121304819D02*
X98595238Y-121304819D01*
X98595238Y-121304819D02*
X98595238Y-120304819D01*
X98595238Y-120304819D02*
X99071428Y-120304819D01*
X99833333Y-120781009D02*
X99500000Y-120781009D01*
X99500000Y-121304819D02*
X99500000Y-120304819D01*
X99500000Y-120304819D02*
X99976190Y-120304819D01*
X100500000Y-120304819D02*
X100500000Y-120542914D01*
X100261905Y-120447676D02*
X100500000Y-120542914D01*
X100500000Y-120542914D02*
X100738095Y-120447676D01*
X100357143Y-120733390D02*
X100500000Y-120542914D01*
X100500000Y-120542914D02*
X100642857Y-120733390D01*
X101261905Y-120304819D02*
X101261905Y-120542914D01*
X101023810Y-120447676D02*
X101261905Y-120542914D01*
X101261905Y-120542914D02*
X101500000Y-120447676D01*
X101119048Y-120733390D02*
X101261905Y-120542914D01*
X101261905Y-120542914D02*
X101404762Y-120733390D01*
X211166666Y-121804819D02*
X210833333Y-121328628D01*
X210595238Y-121804819D02*
X210595238Y-120804819D01*
X210595238Y-120804819D02*
X210976190Y-120804819D01*
X210976190Y-120804819D02*
X211071428Y-120852438D01*
X211071428Y-120852438D02*
X211119047Y-120900057D01*
X211119047Y-120900057D02*
X211166666Y-120995295D01*
X211166666Y-120995295D02*
X211166666Y-121138152D01*
X211166666Y-121138152D02*
X211119047Y-121233390D01*
X211119047Y-121233390D02*
X211071428Y-121281009D01*
X211071428Y-121281009D02*
X210976190Y-121328628D01*
X210976190Y-121328628D02*
X210595238Y-121328628D01*
X211595238Y-121281009D02*
X211928571Y-121281009D01*
X212071428Y-121804819D02*
X211595238Y-121804819D01*
X211595238Y-121804819D02*
X211595238Y-120804819D01*
X211595238Y-120804819D02*
X212071428Y-120804819D01*
X212833333Y-121281009D02*
X212500000Y-121281009D01*
X212500000Y-121804819D02*
X212500000Y-120804819D01*
X212500000Y-120804819D02*
X212976190Y-120804819D01*
X213500000Y-120804819D02*
X213500000Y-121042914D01*
X213261905Y-120947676D02*
X213500000Y-121042914D01*
X213500000Y-121042914D02*
X213738095Y-120947676D01*
X213357143Y-121233390D02*
X213500000Y-121042914D01*
X213500000Y-121042914D02*
X213642857Y-121233390D01*
X214261905Y-120804819D02*
X214261905Y-121042914D01*
X214023810Y-120947676D02*
X214261905Y-121042914D01*
X214261905Y-121042914D02*
X214500000Y-120947676D01*
X214119048Y-121233390D02*
X214261905Y-121042914D01*
X214261905Y-121042914D02*
X214404762Y-121233390D01*
X211666666Y-54804819D02*
X211333333Y-54328628D01*
X211095238Y-54804819D02*
X211095238Y-53804819D01*
X211095238Y-53804819D02*
X211476190Y-53804819D01*
X211476190Y-53804819D02*
X211571428Y-53852438D01*
X211571428Y-53852438D02*
X211619047Y-53900057D01*
X211619047Y-53900057D02*
X211666666Y-53995295D01*
X211666666Y-53995295D02*
X211666666Y-54138152D01*
X211666666Y-54138152D02*
X211619047Y-54233390D01*
X211619047Y-54233390D02*
X211571428Y-54281009D01*
X211571428Y-54281009D02*
X211476190Y-54328628D01*
X211476190Y-54328628D02*
X211095238Y-54328628D01*
X212095238Y-54281009D02*
X212428571Y-54281009D01*
X212571428Y-54804819D02*
X212095238Y-54804819D01*
X212095238Y-54804819D02*
X212095238Y-53804819D01*
X212095238Y-53804819D02*
X212571428Y-53804819D01*
X213333333Y-54281009D02*
X213000000Y-54281009D01*
X213000000Y-54804819D02*
X213000000Y-53804819D01*
X213000000Y-53804819D02*
X213476190Y-53804819D01*
X214000000Y-53804819D02*
X214000000Y-54042914D01*
X213761905Y-53947676D02*
X214000000Y-54042914D01*
X214000000Y-54042914D02*
X214238095Y-53947676D01*
X213857143Y-54233390D02*
X214000000Y-54042914D01*
X214000000Y-54042914D02*
X214142857Y-54233390D01*
X214761905Y-53804819D02*
X214761905Y-54042914D01*
X214523810Y-53947676D02*
X214761905Y-54042914D01*
X214761905Y-54042914D02*
X215000000Y-53947676D01*
X214619048Y-54233390D02*
X214761905Y-54042914D01*
X214761905Y-54042914D02*
X214904762Y-54233390D01*
X96666666Y-56304819D02*
X96333333Y-55828628D01*
X96095238Y-56304819D02*
X96095238Y-55304819D01*
X96095238Y-55304819D02*
X96476190Y-55304819D01*
X96476190Y-55304819D02*
X96571428Y-55352438D01*
X96571428Y-55352438D02*
X96619047Y-55400057D01*
X96619047Y-55400057D02*
X96666666Y-55495295D01*
X96666666Y-55495295D02*
X96666666Y-55638152D01*
X96666666Y-55638152D02*
X96619047Y-55733390D01*
X96619047Y-55733390D02*
X96571428Y-55781009D01*
X96571428Y-55781009D02*
X96476190Y-55828628D01*
X96476190Y-55828628D02*
X96095238Y-55828628D01*
X97095238Y-55781009D02*
X97428571Y-55781009D01*
X97571428Y-56304819D02*
X97095238Y-56304819D01*
X97095238Y-56304819D02*
X97095238Y-55304819D01*
X97095238Y-55304819D02*
X97571428Y-55304819D01*
X98333333Y-55781009D02*
X98000000Y-55781009D01*
X98000000Y-56304819D02*
X98000000Y-55304819D01*
X98000000Y-55304819D02*
X98476190Y-55304819D01*
X99000000Y-55304819D02*
X99000000Y-55542914D01*
X98761905Y-55447676D02*
X99000000Y-55542914D01*
X99000000Y-55542914D02*
X99238095Y-55447676D01*
X98857143Y-55733390D02*
X99000000Y-55542914D01*
X99000000Y-55542914D02*
X99142857Y-55733390D01*
X99761905Y-55304819D02*
X99761905Y-55542914D01*
X99523810Y-55447676D02*
X99761905Y-55542914D01*
X99761905Y-55542914D02*
X100000000Y-55447676D01*
X99619048Y-55733390D02*
X99761905Y-55542914D01*
X99761905Y-55542914D02*
X99904762Y-55733390D01*
X113074819Y-108333333D02*
X113789104Y-108333333D01*
X113789104Y-108333333D02*
X113931961Y-108380952D01*
X113931961Y-108380952D02*
X114027200Y-108476190D01*
X114027200Y-108476190D02*
X114074819Y-108619047D01*
X114074819Y-108619047D02*
X114074819Y-108714285D01*
X113408152Y-107428571D02*
X114074819Y-107428571D01*
X113027200Y-107666666D02*
X113741485Y-107904761D01*
X113741485Y-107904761D02*
X113741485Y-107285714D01*
X130359580Y-100281368D02*
X130407200Y-100328987D01*
X130407200Y-100328987D02*
X130454819Y-100471844D01*
X130454819Y-100471844D02*
X130454819Y-100567082D01*
X130454819Y-100567082D02*
X130407200Y-100709939D01*
X130407200Y-100709939D02*
X130311961Y-100805177D01*
X130311961Y-100805177D02*
X130216723Y-100852796D01*
X130216723Y-100852796D02*
X130026247Y-100900415D01*
X130026247Y-100900415D02*
X129883390Y-100900415D01*
X129883390Y-100900415D02*
X129692914Y-100852796D01*
X129692914Y-100852796D02*
X129597676Y-100805177D01*
X129597676Y-100805177D02*
X129502438Y-100709939D01*
X129502438Y-100709939D02*
X129454819Y-100567082D01*
X129454819Y-100567082D02*
X129454819Y-100471844D01*
X129454819Y-100471844D02*
X129502438Y-100328987D01*
X129502438Y-100328987D02*
X129550057Y-100281368D01*
X129550057Y-99900415D02*
X129502438Y-99852796D01*
X129502438Y-99852796D02*
X129454819Y-99757558D01*
X129454819Y-99757558D02*
X129454819Y-99519463D01*
X129454819Y-99519463D02*
X129502438Y-99424225D01*
X129502438Y-99424225D02*
X129550057Y-99376606D01*
X129550057Y-99376606D02*
X129645295Y-99328987D01*
X129645295Y-99328987D02*
X129740533Y-99328987D01*
X129740533Y-99328987D02*
X129883390Y-99376606D01*
X129883390Y-99376606D02*
X130454819Y-99948034D01*
X130454819Y-99948034D02*
X130454819Y-99328987D01*
X146224819Y-94211666D02*
X146224819Y-94687856D01*
X146224819Y-94687856D02*
X145224819Y-94687856D01*
X146224819Y-93354523D02*
X146224819Y-93925951D01*
X146224819Y-93640237D02*
X145224819Y-93640237D01*
X145224819Y-93640237D02*
X145367676Y-93735475D01*
X145367676Y-93735475D02*
X145462914Y-93830713D01*
X145462914Y-93830713D02*
X145510533Y-93925951D01*
X185300057Y-101865238D02*
X185252438Y-101960476D01*
X185252438Y-101960476D02*
X185157200Y-102055714D01*
X185157200Y-102055714D02*
X185014342Y-102198571D01*
X185014342Y-102198571D02*
X184966723Y-102293809D01*
X184966723Y-102293809D02*
X184966723Y-102389047D01*
X185204819Y-102341428D02*
X185157200Y-102436666D01*
X185157200Y-102436666D02*
X185061961Y-102531904D01*
X185061961Y-102531904D02*
X184871485Y-102579523D01*
X184871485Y-102579523D02*
X184538152Y-102579523D01*
X184538152Y-102579523D02*
X184347676Y-102531904D01*
X184347676Y-102531904D02*
X184252438Y-102436666D01*
X184252438Y-102436666D02*
X184204819Y-102341428D01*
X184204819Y-102341428D02*
X184204819Y-102150952D01*
X184204819Y-102150952D02*
X184252438Y-102055714D01*
X184252438Y-102055714D02*
X184347676Y-101960476D01*
X184347676Y-101960476D02*
X184538152Y-101912857D01*
X184538152Y-101912857D02*
X184871485Y-101912857D01*
X184871485Y-101912857D02*
X185061961Y-101960476D01*
X185061961Y-101960476D02*
X185157200Y-102055714D01*
X185157200Y-102055714D02*
X185204819Y-102150952D01*
X185204819Y-102150952D02*
X185204819Y-102341428D01*
X185204819Y-100960476D02*
X185204819Y-101531904D01*
X185204819Y-101246190D02*
X184204819Y-101246190D01*
X184204819Y-101246190D02*
X184347676Y-101341428D01*
X184347676Y-101341428D02*
X184442914Y-101436666D01*
X184442914Y-101436666D02*
X184490533Y-101531904D01*
X149434819Y-83716666D02*
X148958628Y-84049999D01*
X149434819Y-84288094D02*
X148434819Y-84288094D01*
X148434819Y-84288094D02*
X148434819Y-83907142D01*
X148434819Y-83907142D02*
X148482438Y-83811904D01*
X148482438Y-83811904D02*
X148530057Y-83764285D01*
X148530057Y-83764285D02*
X148625295Y-83716666D01*
X148625295Y-83716666D02*
X148768152Y-83716666D01*
X148768152Y-83716666D02*
X148863390Y-83764285D01*
X148863390Y-83764285D02*
X148911009Y-83811904D01*
X148911009Y-83811904D02*
X148958628Y-83907142D01*
X148958628Y-83907142D02*
X148958628Y-84288094D01*
X149434819Y-82764285D02*
X149434819Y-83335713D01*
X149434819Y-83049999D02*
X148434819Y-83049999D01*
X148434819Y-83049999D02*
X148577676Y-83145237D01*
X148577676Y-83145237D02*
X148672914Y-83240475D01*
X148672914Y-83240475D02*
X148720533Y-83335713D01*
X113583333Y-67424819D02*
X113250000Y-66948628D01*
X113011905Y-67424819D02*
X113011905Y-66424819D01*
X113011905Y-66424819D02*
X113392857Y-66424819D01*
X113392857Y-66424819D02*
X113488095Y-66472438D01*
X113488095Y-66472438D02*
X113535714Y-66520057D01*
X113535714Y-66520057D02*
X113583333Y-66615295D01*
X113583333Y-66615295D02*
X113583333Y-66758152D01*
X113583333Y-66758152D02*
X113535714Y-66853390D01*
X113535714Y-66853390D02*
X113488095Y-66901009D01*
X113488095Y-66901009D02*
X113392857Y-66948628D01*
X113392857Y-66948628D02*
X113011905Y-66948628D01*
X114488095Y-66424819D02*
X114011905Y-66424819D01*
X114011905Y-66424819D02*
X113964286Y-66901009D01*
X113964286Y-66901009D02*
X114011905Y-66853390D01*
X114011905Y-66853390D02*
X114107143Y-66805771D01*
X114107143Y-66805771D02*
X114345238Y-66805771D01*
X114345238Y-66805771D02*
X114440476Y-66853390D01*
X114440476Y-66853390D02*
X114488095Y-66901009D01*
X114488095Y-66901009D02*
X114535714Y-66996247D01*
X114535714Y-66996247D02*
X114535714Y-67234342D01*
X114535714Y-67234342D02*
X114488095Y-67329580D01*
X114488095Y-67329580D02*
X114440476Y-67377200D01*
X114440476Y-67377200D02*
X114345238Y-67424819D01*
X114345238Y-67424819D02*
X114107143Y-67424819D01*
X114107143Y-67424819D02*
X114011905Y-67377200D01*
X114011905Y-67377200D02*
X113964286Y-67329580D01*
X192588095Y-73816819D02*
X193159523Y-73816819D01*
X192873809Y-74816819D02*
X192873809Y-73816819D01*
X193492857Y-74816819D02*
X193492857Y-73816819D01*
X193492857Y-73816819D02*
X193873809Y-73816819D01*
X193873809Y-73816819D02*
X193969047Y-73864438D01*
X193969047Y-73864438D02*
X194016666Y-73912057D01*
X194016666Y-73912057D02*
X194064285Y-74007295D01*
X194064285Y-74007295D02*
X194064285Y-74150152D01*
X194064285Y-74150152D02*
X194016666Y-74245390D01*
X194016666Y-74245390D02*
X193969047Y-74293009D01*
X193969047Y-74293009D02*
X193873809Y-74340628D01*
X193873809Y-74340628D02*
X193492857Y-74340628D01*
X194397619Y-73816819D02*
X195016666Y-73816819D01*
X195016666Y-73816819D02*
X194683333Y-74197771D01*
X194683333Y-74197771D02*
X194826190Y-74197771D01*
X194826190Y-74197771D02*
X194921428Y-74245390D01*
X194921428Y-74245390D02*
X194969047Y-74293009D01*
X194969047Y-74293009D02*
X195016666Y-74388247D01*
X195016666Y-74388247D02*
X195016666Y-74626342D01*
X195016666Y-74626342D02*
X194969047Y-74721580D01*
X194969047Y-74721580D02*
X194921428Y-74769200D01*
X194921428Y-74769200D02*
X194826190Y-74816819D01*
X194826190Y-74816819D02*
X194540476Y-74816819D01*
X194540476Y-74816819D02*
X194445238Y-74769200D01*
X194445238Y-74769200D02*
X194397619Y-74721580D01*
X100434819Y-80383333D02*
X101149104Y-80383333D01*
X101149104Y-80383333D02*
X101291961Y-80430952D01*
X101291961Y-80430952D02*
X101387200Y-80526190D01*
X101387200Y-80526190D02*
X101434819Y-80669047D01*
X101434819Y-80669047D02*
X101434819Y-80764285D01*
X100434819Y-80002380D02*
X100434819Y-79383333D01*
X100434819Y-79383333D02*
X100815771Y-79716666D01*
X100815771Y-79716666D02*
X100815771Y-79573809D01*
X100815771Y-79573809D02*
X100863390Y-79478571D01*
X100863390Y-79478571D02*
X100911009Y-79430952D01*
X100911009Y-79430952D02*
X101006247Y-79383333D01*
X101006247Y-79383333D02*
X101244342Y-79383333D01*
X101244342Y-79383333D02*
X101339580Y-79430952D01*
X101339580Y-79430952D02*
X101387200Y-79478571D01*
X101387200Y-79478571D02*
X101434819Y-79573809D01*
X101434819Y-79573809D02*
X101434819Y-79859523D01*
X101434819Y-79859523D02*
X101387200Y-79954761D01*
X101387200Y-79954761D02*
X101339580Y-80002380D01*
X196534819Y-112666666D02*
X196058628Y-112999999D01*
X196534819Y-113238094D02*
X195534819Y-113238094D01*
X195534819Y-113238094D02*
X195534819Y-112857142D01*
X195534819Y-112857142D02*
X195582438Y-112761904D01*
X195582438Y-112761904D02*
X195630057Y-112714285D01*
X195630057Y-112714285D02*
X195725295Y-112666666D01*
X195725295Y-112666666D02*
X195868152Y-112666666D01*
X195868152Y-112666666D02*
X195963390Y-112714285D01*
X195963390Y-112714285D02*
X196011009Y-112761904D01*
X196011009Y-112761904D02*
X196058628Y-112857142D01*
X196058628Y-112857142D02*
X196058628Y-113238094D01*
X195534819Y-112333332D02*
X195534819Y-111666666D01*
X195534819Y-111666666D02*
X196534819Y-112095237D01*
X181183333Y-110169580D02*
X181135714Y-110217200D01*
X181135714Y-110217200D02*
X180992857Y-110264819D01*
X180992857Y-110264819D02*
X180897619Y-110264819D01*
X180897619Y-110264819D02*
X180754762Y-110217200D01*
X180754762Y-110217200D02*
X180659524Y-110121961D01*
X180659524Y-110121961D02*
X180611905Y-110026723D01*
X180611905Y-110026723D02*
X180564286Y-109836247D01*
X180564286Y-109836247D02*
X180564286Y-109693390D01*
X180564286Y-109693390D02*
X180611905Y-109502914D01*
X180611905Y-109502914D02*
X180659524Y-109407676D01*
X180659524Y-109407676D02*
X180754762Y-109312438D01*
X180754762Y-109312438D02*
X180897619Y-109264819D01*
X180897619Y-109264819D02*
X180992857Y-109264819D01*
X180992857Y-109264819D02*
X181135714Y-109312438D01*
X181135714Y-109312438D02*
X181183333Y-109360057D01*
X181516667Y-109264819D02*
X182183333Y-109264819D01*
X182183333Y-109264819D02*
X181754762Y-110264819D01*
X189088095Y-106314819D02*
X189088095Y-107124342D01*
X189088095Y-107124342D02*
X189135714Y-107219580D01*
X189135714Y-107219580D02*
X189183333Y-107267200D01*
X189183333Y-107267200D02*
X189278571Y-107314819D01*
X189278571Y-107314819D02*
X189469047Y-107314819D01*
X189469047Y-107314819D02*
X189564285Y-107267200D01*
X189564285Y-107267200D02*
X189611904Y-107219580D01*
X189611904Y-107219580D02*
X189659523Y-107124342D01*
X189659523Y-107124342D02*
X189659523Y-106314819D01*
X190040476Y-106314819D02*
X190659523Y-106314819D01*
X190659523Y-106314819D02*
X190326190Y-106695771D01*
X190326190Y-106695771D02*
X190469047Y-106695771D01*
X190469047Y-106695771D02*
X190564285Y-106743390D01*
X190564285Y-106743390D02*
X190611904Y-106791009D01*
X190611904Y-106791009D02*
X190659523Y-106886247D01*
X190659523Y-106886247D02*
X190659523Y-107124342D01*
X190659523Y-107124342D02*
X190611904Y-107219580D01*
X190611904Y-107219580D02*
X190564285Y-107267200D01*
X190564285Y-107267200D02*
X190469047Y-107314819D01*
X190469047Y-107314819D02*
X190183333Y-107314819D01*
X190183333Y-107314819D02*
X190088095Y-107267200D01*
X190088095Y-107267200D02*
X190040476Y-107219580D01*
X189683333Y-86844819D02*
X189350000Y-86368628D01*
X189111905Y-86844819D02*
X189111905Y-85844819D01*
X189111905Y-85844819D02*
X189492857Y-85844819D01*
X189492857Y-85844819D02*
X189588095Y-85892438D01*
X189588095Y-85892438D02*
X189635714Y-85940057D01*
X189635714Y-85940057D02*
X189683333Y-86035295D01*
X189683333Y-86035295D02*
X189683333Y-86178152D01*
X189683333Y-86178152D02*
X189635714Y-86273390D01*
X189635714Y-86273390D02*
X189588095Y-86321009D01*
X189588095Y-86321009D02*
X189492857Y-86368628D01*
X189492857Y-86368628D02*
X189111905Y-86368628D01*
X190540476Y-85844819D02*
X190350000Y-85844819D01*
X190350000Y-85844819D02*
X190254762Y-85892438D01*
X190254762Y-85892438D02*
X190207143Y-85940057D01*
X190207143Y-85940057D02*
X190111905Y-86082914D01*
X190111905Y-86082914D02*
X190064286Y-86273390D01*
X190064286Y-86273390D02*
X190064286Y-86654342D01*
X190064286Y-86654342D02*
X190111905Y-86749580D01*
X190111905Y-86749580D02*
X190159524Y-86797200D01*
X190159524Y-86797200D02*
X190254762Y-86844819D01*
X190254762Y-86844819D02*
X190445238Y-86844819D01*
X190445238Y-86844819D02*
X190540476Y-86797200D01*
X190540476Y-86797200D02*
X190588095Y-86749580D01*
X190588095Y-86749580D02*
X190635714Y-86654342D01*
X190635714Y-86654342D02*
X190635714Y-86416247D01*
X190635714Y-86416247D02*
X190588095Y-86321009D01*
X190588095Y-86321009D02*
X190540476Y-86273390D01*
X190540476Y-86273390D02*
X190445238Y-86225771D01*
X190445238Y-86225771D02*
X190254762Y-86225771D01*
X190254762Y-86225771D02*
X190159524Y-86273390D01*
X190159524Y-86273390D02*
X190111905Y-86321009D01*
X190111905Y-86321009D02*
X190064286Y-86416247D01*
X202666666Y-97074819D02*
X202666666Y-97789104D01*
X202666666Y-97789104D02*
X202619047Y-97931961D01*
X202619047Y-97931961D02*
X202523809Y-98027200D01*
X202523809Y-98027200D02*
X202380952Y-98074819D01*
X202380952Y-98074819D02*
X202285714Y-98074819D01*
X203666666Y-98074819D02*
X203095238Y-98074819D01*
X203380952Y-98074819D02*
X203380952Y-97074819D01*
X203380952Y-97074819D02*
X203285714Y-97217676D01*
X203285714Y-97217676D02*
X203190476Y-97312914D01*
X203190476Y-97312914D02*
X203095238Y-97360533D01*
X192588095Y-65716819D02*
X193159523Y-65716819D01*
X192873809Y-66716819D02*
X192873809Y-65716819D01*
X193492857Y-66716819D02*
X193492857Y-65716819D01*
X193492857Y-65716819D02*
X193873809Y-65716819D01*
X193873809Y-65716819D02*
X193969047Y-65764438D01*
X193969047Y-65764438D02*
X194016666Y-65812057D01*
X194016666Y-65812057D02*
X194064285Y-65907295D01*
X194064285Y-65907295D02*
X194064285Y-66050152D01*
X194064285Y-66050152D02*
X194016666Y-66145390D01*
X194016666Y-66145390D02*
X193969047Y-66193009D01*
X193969047Y-66193009D02*
X193873809Y-66240628D01*
X193873809Y-66240628D02*
X193492857Y-66240628D01*
X195016666Y-66716819D02*
X194445238Y-66716819D01*
X194730952Y-66716819D02*
X194730952Y-65716819D01*
X194730952Y-65716819D02*
X194635714Y-65859676D01*
X194635714Y-65859676D02*
X194540476Y-65954914D01*
X194540476Y-65954914D02*
X194445238Y-66002533D01*
X128009580Y-91216666D02*
X128057200Y-91264285D01*
X128057200Y-91264285D02*
X128104819Y-91407142D01*
X128104819Y-91407142D02*
X128104819Y-91502380D01*
X128104819Y-91502380D02*
X128057200Y-91645237D01*
X128057200Y-91645237D02*
X127961961Y-91740475D01*
X127961961Y-91740475D02*
X127866723Y-91788094D01*
X127866723Y-91788094D02*
X127676247Y-91835713D01*
X127676247Y-91835713D02*
X127533390Y-91835713D01*
X127533390Y-91835713D02*
X127342914Y-91788094D01*
X127342914Y-91788094D02*
X127247676Y-91740475D01*
X127247676Y-91740475D02*
X127152438Y-91645237D01*
X127152438Y-91645237D02*
X127104819Y-91502380D01*
X127104819Y-91502380D02*
X127104819Y-91407142D01*
X127104819Y-91407142D02*
X127152438Y-91264285D01*
X127152438Y-91264285D02*
X127200057Y-91216666D01*
X127104819Y-90883332D02*
X127104819Y-90264285D01*
X127104819Y-90264285D02*
X127485771Y-90597618D01*
X127485771Y-90597618D02*
X127485771Y-90454761D01*
X127485771Y-90454761D02*
X127533390Y-90359523D01*
X127533390Y-90359523D02*
X127581009Y-90311904D01*
X127581009Y-90311904D02*
X127676247Y-90264285D01*
X127676247Y-90264285D02*
X127914342Y-90264285D01*
X127914342Y-90264285D02*
X128009580Y-90311904D01*
X128009580Y-90311904D02*
X128057200Y-90359523D01*
X128057200Y-90359523D02*
X128104819Y-90454761D01*
X128104819Y-90454761D02*
X128104819Y-90740475D01*
X128104819Y-90740475D02*
X128057200Y-90835713D01*
X128057200Y-90835713D02*
X128009580Y-90883332D01*
X138474819Y-107883333D02*
X139189104Y-107883333D01*
X139189104Y-107883333D02*
X139331961Y-107930952D01*
X139331961Y-107930952D02*
X139427200Y-108026190D01*
X139427200Y-108026190D02*
X139474819Y-108169047D01*
X139474819Y-108169047D02*
X139474819Y-108264285D01*
X138570057Y-107454761D02*
X138522438Y-107407142D01*
X138522438Y-107407142D02*
X138474819Y-107311904D01*
X138474819Y-107311904D02*
X138474819Y-107073809D01*
X138474819Y-107073809D02*
X138522438Y-106978571D01*
X138522438Y-106978571D02*
X138570057Y-106930952D01*
X138570057Y-106930952D02*
X138665295Y-106883333D01*
X138665295Y-106883333D02*
X138760533Y-106883333D01*
X138760533Y-106883333D02*
X138903390Y-106930952D01*
X138903390Y-106930952D02*
X139474819Y-107502380D01*
X139474819Y-107502380D02*
X139474819Y-106883333D01*
X106714819Y-72811904D02*
X107524342Y-72811904D01*
X107524342Y-72811904D02*
X107619580Y-72764285D01*
X107619580Y-72764285D02*
X107667200Y-72716666D01*
X107667200Y-72716666D02*
X107714819Y-72621428D01*
X107714819Y-72621428D02*
X107714819Y-72430952D01*
X107714819Y-72430952D02*
X107667200Y-72335714D01*
X107667200Y-72335714D02*
X107619580Y-72288095D01*
X107619580Y-72288095D02*
X107524342Y-72240476D01*
X107524342Y-72240476D02*
X106714819Y-72240476D01*
X106810057Y-71811904D02*
X106762438Y-71764285D01*
X106762438Y-71764285D02*
X106714819Y-71669047D01*
X106714819Y-71669047D02*
X106714819Y-71430952D01*
X106714819Y-71430952D02*
X106762438Y-71335714D01*
X106762438Y-71335714D02*
X106810057Y-71288095D01*
X106810057Y-71288095D02*
X106905295Y-71240476D01*
X106905295Y-71240476D02*
X107000533Y-71240476D01*
X107000533Y-71240476D02*
X107143390Y-71288095D01*
X107143390Y-71288095D02*
X107714819Y-71859523D01*
X107714819Y-71859523D02*
X107714819Y-71240476D01*
X109509580Y-84716666D02*
X109557200Y-84764285D01*
X109557200Y-84764285D02*
X109604819Y-84907142D01*
X109604819Y-84907142D02*
X109604819Y-85002380D01*
X109604819Y-85002380D02*
X109557200Y-85145237D01*
X109557200Y-85145237D02*
X109461961Y-85240475D01*
X109461961Y-85240475D02*
X109366723Y-85288094D01*
X109366723Y-85288094D02*
X109176247Y-85335713D01*
X109176247Y-85335713D02*
X109033390Y-85335713D01*
X109033390Y-85335713D02*
X108842914Y-85288094D01*
X108842914Y-85288094D02*
X108747676Y-85240475D01*
X108747676Y-85240475D02*
X108652438Y-85145237D01*
X108652438Y-85145237D02*
X108604819Y-85002380D01*
X108604819Y-85002380D02*
X108604819Y-84907142D01*
X108604819Y-84907142D02*
X108652438Y-84764285D01*
X108652438Y-84764285D02*
X108700057Y-84716666D01*
X108938152Y-83859523D02*
X109604819Y-83859523D01*
X108557200Y-84097618D02*
X109271485Y-84335713D01*
X109271485Y-84335713D02*
X109271485Y-83716666D01*
X145384819Y-84788094D02*
X144384819Y-84788094D01*
X144384819Y-84788094D02*
X144384819Y-84549999D01*
X144384819Y-84549999D02*
X144432438Y-84407142D01*
X144432438Y-84407142D02*
X144527676Y-84311904D01*
X144527676Y-84311904D02*
X144622914Y-84264285D01*
X144622914Y-84264285D02*
X144813390Y-84216666D01*
X144813390Y-84216666D02*
X144956247Y-84216666D01*
X144956247Y-84216666D02*
X145146723Y-84264285D01*
X145146723Y-84264285D02*
X145241961Y-84311904D01*
X145241961Y-84311904D02*
X145337200Y-84407142D01*
X145337200Y-84407142D02*
X145384819Y-84549999D01*
X145384819Y-84549999D02*
X145384819Y-84788094D01*
X145384819Y-83264285D02*
X145384819Y-83835713D01*
X145384819Y-83549999D02*
X144384819Y-83549999D01*
X144384819Y-83549999D02*
X144527676Y-83645237D01*
X144527676Y-83645237D02*
X144622914Y-83740475D01*
X144622914Y-83740475D02*
X144670533Y-83835713D01*
X145754819Y-89391904D02*
X144754819Y-89391904D01*
X145754819Y-88820476D02*
X145183390Y-89249047D01*
X144754819Y-88820476D02*
X145326247Y-89391904D01*
X139434819Y-73716666D02*
X138958628Y-74049999D01*
X139434819Y-74288094D02*
X138434819Y-74288094D01*
X138434819Y-74288094D02*
X138434819Y-73907142D01*
X138434819Y-73907142D02*
X138482438Y-73811904D01*
X138482438Y-73811904D02*
X138530057Y-73764285D01*
X138530057Y-73764285D02*
X138625295Y-73716666D01*
X138625295Y-73716666D02*
X138768152Y-73716666D01*
X138768152Y-73716666D02*
X138863390Y-73764285D01*
X138863390Y-73764285D02*
X138911009Y-73811904D01*
X138911009Y-73811904D02*
X138958628Y-73907142D01*
X138958628Y-73907142D02*
X138958628Y-74288094D01*
X138434819Y-73383332D02*
X138434819Y-72764285D01*
X138434819Y-72764285D02*
X138815771Y-73097618D01*
X138815771Y-73097618D02*
X138815771Y-72954761D01*
X138815771Y-72954761D02*
X138863390Y-72859523D01*
X138863390Y-72859523D02*
X138911009Y-72811904D01*
X138911009Y-72811904D02*
X139006247Y-72764285D01*
X139006247Y-72764285D02*
X139244342Y-72764285D01*
X139244342Y-72764285D02*
X139339580Y-72811904D01*
X139339580Y-72811904D02*
X139387200Y-72859523D01*
X139387200Y-72859523D02*
X139434819Y-72954761D01*
X139434819Y-72954761D02*
X139434819Y-73240475D01*
X139434819Y-73240475D02*
X139387200Y-73335713D01*
X139387200Y-73335713D02*
X139339580Y-73383332D01*
D10*
X174678572Y-87749757D02*
X174535715Y-87678328D01*
X174535715Y-87678328D02*
X174321429Y-87678328D01*
X174321429Y-87678328D02*
X174107143Y-87749757D01*
X174107143Y-87749757D02*
X173964286Y-87892614D01*
X173964286Y-87892614D02*
X173892857Y-88035471D01*
X173892857Y-88035471D02*
X173821429Y-88321185D01*
X173821429Y-88321185D02*
X173821429Y-88535471D01*
X173821429Y-88535471D02*
X173892857Y-88821185D01*
X173892857Y-88821185D02*
X173964286Y-88964042D01*
X173964286Y-88964042D02*
X174107143Y-89106900D01*
X174107143Y-89106900D02*
X174321429Y-89178328D01*
X174321429Y-89178328D02*
X174464286Y-89178328D01*
X174464286Y-89178328D02*
X174678572Y-89106900D01*
X174678572Y-89106900D02*
X174750000Y-89035471D01*
X174750000Y-89035471D02*
X174750000Y-88535471D01*
X174750000Y-88535471D02*
X174464286Y-88535471D01*
X175607143Y-87678328D02*
X175607143Y-88035471D01*
X175250000Y-87892614D02*
X175607143Y-88035471D01*
X175607143Y-88035471D02*
X175964286Y-87892614D01*
X175392857Y-88321185D02*
X175607143Y-88035471D01*
X175607143Y-88035471D02*
X175821429Y-88321185D01*
X176750000Y-87678328D02*
X176750000Y-88035471D01*
X176392857Y-87892614D02*
X176750000Y-88035471D01*
X176750000Y-88035471D02*
X177107143Y-87892614D01*
X176535714Y-88321185D02*
X176750000Y-88035471D01*
X176750000Y-88035471D02*
X176964286Y-88321185D01*
X177892857Y-87678328D02*
X177892857Y-88035471D01*
X177535714Y-87892614D02*
X177892857Y-88035471D01*
X177892857Y-88035471D02*
X178250000Y-87892614D01*
X177678571Y-88321185D02*
X177892857Y-88035471D01*
X177892857Y-88035471D02*
X178107143Y-88321185D01*
X109178572Y-96749757D02*
X109035715Y-96678328D01*
X109035715Y-96678328D02*
X108821429Y-96678328D01*
X108821429Y-96678328D02*
X108607143Y-96749757D01*
X108607143Y-96749757D02*
X108464286Y-96892614D01*
X108464286Y-96892614D02*
X108392857Y-97035471D01*
X108392857Y-97035471D02*
X108321429Y-97321185D01*
X108321429Y-97321185D02*
X108321429Y-97535471D01*
X108321429Y-97535471D02*
X108392857Y-97821185D01*
X108392857Y-97821185D02*
X108464286Y-97964042D01*
X108464286Y-97964042D02*
X108607143Y-98106900D01*
X108607143Y-98106900D02*
X108821429Y-98178328D01*
X108821429Y-98178328D02*
X108964286Y-98178328D01*
X108964286Y-98178328D02*
X109178572Y-98106900D01*
X109178572Y-98106900D02*
X109250000Y-98035471D01*
X109250000Y-98035471D02*
X109250000Y-97535471D01*
X109250000Y-97535471D02*
X108964286Y-97535471D01*
X110107143Y-96678328D02*
X110107143Y-97035471D01*
X109750000Y-96892614D02*
X110107143Y-97035471D01*
X110107143Y-97035471D02*
X110464286Y-96892614D01*
X109892857Y-97321185D02*
X110107143Y-97035471D01*
X110107143Y-97035471D02*
X110321429Y-97321185D01*
X111250000Y-96678328D02*
X111250000Y-97035471D01*
X110892857Y-96892614D02*
X111250000Y-97035471D01*
X111250000Y-97035471D02*
X111607143Y-96892614D01*
X111035714Y-97321185D02*
X111250000Y-97035471D01*
X111250000Y-97035471D02*
X111464286Y-97321185D01*
X112392857Y-96678328D02*
X112392857Y-97035471D01*
X112035714Y-96892614D02*
X112392857Y-97035471D01*
X112392857Y-97035471D02*
X112750000Y-96892614D01*
X112178571Y-97321185D02*
X112392857Y-97035471D01*
X112392857Y-97035471D02*
X112607143Y-97321185D01*
D12*
X120759580Y-96716666D02*
X120807200Y-96764285D01*
X120807200Y-96764285D02*
X120854819Y-96907142D01*
X120854819Y-96907142D02*
X120854819Y-97002380D01*
X120854819Y-97002380D02*
X120807200Y-97145237D01*
X120807200Y-97145237D02*
X120711961Y-97240475D01*
X120711961Y-97240475D02*
X120616723Y-97288094D01*
X120616723Y-97288094D02*
X120426247Y-97335713D01*
X120426247Y-97335713D02*
X120283390Y-97335713D01*
X120283390Y-97335713D02*
X120092914Y-97288094D01*
X120092914Y-97288094D02*
X119997676Y-97240475D01*
X119997676Y-97240475D02*
X119902438Y-97145237D01*
X119902438Y-97145237D02*
X119854819Y-97002380D01*
X119854819Y-97002380D02*
X119854819Y-96907142D01*
X119854819Y-96907142D02*
X119902438Y-96764285D01*
X119902438Y-96764285D02*
X119950057Y-96716666D01*
X120854819Y-95764285D02*
X120854819Y-96335713D01*
X120854819Y-96049999D02*
X119854819Y-96049999D01*
X119854819Y-96049999D02*
X119997676Y-96145237D01*
X119997676Y-96145237D02*
X120092914Y-96240475D01*
X120092914Y-96240475D02*
X120140533Y-96335713D01*
X149638095Y-103144819D02*
X149638095Y-103954342D01*
X149638095Y-103954342D02*
X149685714Y-104049580D01*
X149685714Y-104049580D02*
X149733333Y-104097200D01*
X149733333Y-104097200D02*
X149828571Y-104144819D01*
X149828571Y-104144819D02*
X150019047Y-104144819D01*
X150019047Y-104144819D02*
X150114285Y-104097200D01*
X150114285Y-104097200D02*
X150161904Y-104049580D01*
X150161904Y-104049580D02*
X150209523Y-103954342D01*
X150209523Y-103954342D02*
X150209523Y-103144819D01*
X151209523Y-104144819D02*
X150638095Y-104144819D01*
X150923809Y-104144819D02*
X150923809Y-103144819D01*
X150923809Y-103144819D02*
X150828571Y-103287676D01*
X150828571Y-103287676D02*
X150733333Y-103382914D01*
X150733333Y-103382914D02*
X150638095Y-103430533D01*
D10*
X152678572Y-110249757D02*
X152535715Y-110178328D01*
X152535715Y-110178328D02*
X152321429Y-110178328D01*
X152321429Y-110178328D02*
X152107143Y-110249757D01*
X152107143Y-110249757D02*
X151964286Y-110392614D01*
X151964286Y-110392614D02*
X151892857Y-110535471D01*
X151892857Y-110535471D02*
X151821429Y-110821185D01*
X151821429Y-110821185D02*
X151821429Y-111035471D01*
X151821429Y-111035471D02*
X151892857Y-111321185D01*
X151892857Y-111321185D02*
X151964286Y-111464042D01*
X151964286Y-111464042D02*
X152107143Y-111606900D01*
X152107143Y-111606900D02*
X152321429Y-111678328D01*
X152321429Y-111678328D02*
X152464286Y-111678328D01*
X152464286Y-111678328D02*
X152678572Y-111606900D01*
X152678572Y-111606900D02*
X152750000Y-111535471D01*
X152750000Y-111535471D02*
X152750000Y-111035471D01*
X152750000Y-111035471D02*
X152464286Y-111035471D01*
X153607143Y-110178328D02*
X153607143Y-110535471D01*
X153250000Y-110392614D02*
X153607143Y-110535471D01*
X153607143Y-110535471D02*
X153964286Y-110392614D01*
X153392857Y-110821185D02*
X153607143Y-110535471D01*
X153607143Y-110535471D02*
X153821429Y-110821185D01*
X154750000Y-110178328D02*
X154750000Y-110535471D01*
X154392857Y-110392614D02*
X154750000Y-110535471D01*
X154750000Y-110535471D02*
X155107143Y-110392614D01*
X154535714Y-110821185D02*
X154750000Y-110535471D01*
X154750000Y-110535471D02*
X154964286Y-110821185D01*
X155892857Y-110178328D02*
X155892857Y-110535471D01*
X155535714Y-110392614D02*
X155892857Y-110535471D01*
X155892857Y-110535471D02*
X156250000Y-110392614D01*
X155678571Y-110821185D02*
X155892857Y-110535471D01*
X155892857Y-110535471D02*
X156107143Y-110821185D01*
D12*
X121759580Y-70716666D02*
X121807200Y-70764285D01*
X121807200Y-70764285D02*
X121854819Y-70907142D01*
X121854819Y-70907142D02*
X121854819Y-71002380D01*
X121854819Y-71002380D02*
X121807200Y-71145237D01*
X121807200Y-71145237D02*
X121711961Y-71240475D01*
X121711961Y-71240475D02*
X121616723Y-71288094D01*
X121616723Y-71288094D02*
X121426247Y-71335713D01*
X121426247Y-71335713D02*
X121283390Y-71335713D01*
X121283390Y-71335713D02*
X121092914Y-71288094D01*
X121092914Y-71288094D02*
X120997676Y-71240475D01*
X120997676Y-71240475D02*
X120902438Y-71145237D01*
X120902438Y-71145237D02*
X120854819Y-71002380D01*
X120854819Y-71002380D02*
X120854819Y-70907142D01*
X120854819Y-70907142D02*
X120902438Y-70764285D01*
X120902438Y-70764285D02*
X120950057Y-70716666D01*
X120854819Y-69811904D02*
X120854819Y-70288094D01*
X120854819Y-70288094D02*
X121331009Y-70335713D01*
X121331009Y-70335713D02*
X121283390Y-70288094D01*
X121283390Y-70288094D02*
X121235771Y-70192856D01*
X121235771Y-70192856D02*
X121235771Y-69954761D01*
X121235771Y-69954761D02*
X121283390Y-69859523D01*
X121283390Y-69859523D02*
X121331009Y-69811904D01*
X121331009Y-69811904D02*
X121426247Y-69764285D01*
X121426247Y-69764285D02*
X121664342Y-69764285D01*
X121664342Y-69764285D02*
X121759580Y-69811904D01*
X121759580Y-69811904D02*
X121807200Y-69859523D01*
X121807200Y-69859523D02*
X121854819Y-69954761D01*
X121854819Y-69954761D02*
X121854819Y-70192856D01*
X121854819Y-70192856D02*
X121807200Y-70288094D01*
X121807200Y-70288094D02*
X121759580Y-70335713D01*
X127383333Y-80924819D02*
X127050000Y-80448628D01*
X126811905Y-80924819D02*
X126811905Y-79924819D01*
X126811905Y-79924819D02*
X127192857Y-79924819D01*
X127192857Y-79924819D02*
X127288095Y-79972438D01*
X127288095Y-79972438D02*
X127335714Y-80020057D01*
X127335714Y-80020057D02*
X127383333Y-80115295D01*
X127383333Y-80115295D02*
X127383333Y-80258152D01*
X127383333Y-80258152D02*
X127335714Y-80353390D01*
X127335714Y-80353390D02*
X127288095Y-80401009D01*
X127288095Y-80401009D02*
X127192857Y-80448628D01*
X127192857Y-80448628D02*
X126811905Y-80448628D01*
X128240476Y-80258152D02*
X128240476Y-80924819D01*
X128002381Y-79877200D02*
X127764286Y-80591485D01*
X127764286Y-80591485D02*
X128383333Y-80591485D01*
X192588095Y-69766819D02*
X193159523Y-69766819D01*
X192873809Y-70766819D02*
X192873809Y-69766819D01*
X193492857Y-70766819D02*
X193492857Y-69766819D01*
X193492857Y-69766819D02*
X193873809Y-69766819D01*
X193873809Y-69766819D02*
X193969047Y-69814438D01*
X193969047Y-69814438D02*
X194016666Y-69862057D01*
X194016666Y-69862057D02*
X194064285Y-69957295D01*
X194064285Y-69957295D02*
X194064285Y-70100152D01*
X194064285Y-70100152D02*
X194016666Y-70195390D01*
X194016666Y-70195390D02*
X193969047Y-70243009D01*
X193969047Y-70243009D02*
X193873809Y-70290628D01*
X193873809Y-70290628D02*
X193492857Y-70290628D01*
X194445238Y-69862057D02*
X194492857Y-69814438D01*
X194492857Y-69814438D02*
X194588095Y-69766819D01*
X194588095Y-69766819D02*
X194826190Y-69766819D01*
X194826190Y-69766819D02*
X194921428Y-69814438D01*
X194921428Y-69814438D02*
X194969047Y-69862057D01*
X194969047Y-69862057D02*
X195016666Y-69957295D01*
X195016666Y-69957295D02*
X195016666Y-70052533D01*
X195016666Y-70052533D02*
X194969047Y-70195390D01*
X194969047Y-70195390D02*
X194397619Y-70766819D01*
X194397619Y-70766819D02*
X195016666Y-70766819D01*
X146934819Y-64716666D02*
X146458628Y-65049999D01*
X146934819Y-65288094D02*
X145934819Y-65288094D01*
X145934819Y-65288094D02*
X145934819Y-64907142D01*
X145934819Y-64907142D02*
X145982438Y-64811904D01*
X145982438Y-64811904D02*
X146030057Y-64764285D01*
X146030057Y-64764285D02*
X146125295Y-64716666D01*
X146125295Y-64716666D02*
X146268152Y-64716666D01*
X146268152Y-64716666D02*
X146363390Y-64764285D01*
X146363390Y-64764285D02*
X146411009Y-64811904D01*
X146411009Y-64811904D02*
X146458628Y-64907142D01*
X146458628Y-64907142D02*
X146458628Y-65288094D01*
X146030057Y-64335713D02*
X145982438Y-64288094D01*
X145982438Y-64288094D02*
X145934819Y-64192856D01*
X145934819Y-64192856D02*
X145934819Y-63954761D01*
X145934819Y-63954761D02*
X145982438Y-63859523D01*
X145982438Y-63859523D02*
X146030057Y-63811904D01*
X146030057Y-63811904D02*
X146125295Y-63764285D01*
X146125295Y-63764285D02*
X146220533Y-63764285D01*
X146220533Y-63764285D02*
X146363390Y-63811904D01*
X146363390Y-63811904D02*
X146934819Y-64383332D01*
X146934819Y-64383332D02*
X146934819Y-63764285D01*
X181683333Y-103919580D02*
X181635714Y-103967200D01*
X181635714Y-103967200D02*
X181492857Y-104014819D01*
X181492857Y-104014819D02*
X181397619Y-104014819D01*
X181397619Y-104014819D02*
X181254762Y-103967200D01*
X181254762Y-103967200D02*
X181159524Y-103871961D01*
X181159524Y-103871961D02*
X181111905Y-103776723D01*
X181111905Y-103776723D02*
X181064286Y-103586247D01*
X181064286Y-103586247D02*
X181064286Y-103443390D01*
X181064286Y-103443390D02*
X181111905Y-103252914D01*
X181111905Y-103252914D02*
X181159524Y-103157676D01*
X181159524Y-103157676D02*
X181254762Y-103062438D01*
X181254762Y-103062438D02*
X181397619Y-103014819D01*
X181397619Y-103014819D02*
X181492857Y-103014819D01*
X181492857Y-103014819D02*
X181635714Y-103062438D01*
X181635714Y-103062438D02*
X181683333Y-103110057D01*
X182540476Y-103014819D02*
X182350000Y-103014819D01*
X182350000Y-103014819D02*
X182254762Y-103062438D01*
X182254762Y-103062438D02*
X182207143Y-103110057D01*
X182207143Y-103110057D02*
X182111905Y-103252914D01*
X182111905Y-103252914D02*
X182064286Y-103443390D01*
X182064286Y-103443390D02*
X182064286Y-103824342D01*
X182064286Y-103824342D02*
X182111905Y-103919580D01*
X182111905Y-103919580D02*
X182159524Y-103967200D01*
X182159524Y-103967200D02*
X182254762Y-104014819D01*
X182254762Y-104014819D02*
X182445238Y-104014819D01*
X182445238Y-104014819D02*
X182540476Y-103967200D01*
X182540476Y-103967200D02*
X182588095Y-103919580D01*
X182588095Y-103919580D02*
X182635714Y-103824342D01*
X182635714Y-103824342D02*
X182635714Y-103586247D01*
X182635714Y-103586247D02*
X182588095Y-103491009D01*
X182588095Y-103491009D02*
X182540476Y-103443390D01*
X182540476Y-103443390D02*
X182445238Y-103395771D01*
X182445238Y-103395771D02*
X182254762Y-103395771D01*
X182254762Y-103395771D02*
X182159524Y-103443390D01*
X182159524Y-103443390D02*
X182111905Y-103491009D01*
X182111905Y-103491009D02*
X182064286Y-103586247D01*
%TO.C,J4*%
D13*
X114620000Y-109380000D02*
X114620000Y-108000000D01*
X116000000Y-109380000D02*
X114620000Y-109380000D01*
X117270000Y-106620000D02*
X117380000Y-106620000D01*
X117270000Y-109380000D02*
X117270000Y-106620000D01*
X117270000Y-109380000D02*
X117380000Y-109380000D01*
X117380000Y-109380000D02*
X117380000Y-106620000D01*
%TO.C,C2*%
X131170000Y-100074702D02*
X137630000Y-100074702D01*
X131170000Y-100114702D02*
X137630000Y-100114702D01*
X131171000Y-100034702D02*
X137629000Y-100034702D01*
X131172000Y-99994702D02*
X137628000Y-99994702D01*
X131174000Y-99954702D02*
X137626000Y-99954702D01*
X131176000Y-99914702D02*
X137624000Y-99914702D01*
X131179000Y-99874702D02*
X133360000Y-99874702D01*
X131182000Y-99834702D02*
X133360000Y-99834702D01*
X131186000Y-99794702D02*
X133360000Y-99794702D01*
X131190000Y-99754702D02*
X133360000Y-99754702D01*
X131195000Y-99714702D02*
X133360000Y-99714702D01*
X131200000Y-99674702D02*
X133360000Y-99674702D01*
X131205000Y-99634702D02*
X133360000Y-99634702D01*
X131212000Y-99594702D02*
X133360000Y-99594702D01*
X131218000Y-99554702D02*
X133360000Y-99554702D01*
X131226000Y-99514702D02*
X133360000Y-99514702D01*
X131233000Y-99474702D02*
X133360000Y-99474702D01*
X131241000Y-99434702D02*
X133360000Y-99434702D01*
X131250000Y-99394702D02*
X133360000Y-99394702D01*
X131260000Y-99354702D02*
X133360000Y-99354702D01*
X131269000Y-99314702D02*
X133360000Y-99314702D01*
X131280000Y-99274702D02*
X133360000Y-99274702D01*
X131291000Y-99234702D02*
X133360000Y-99234702D01*
X131302000Y-99194702D02*
X133360000Y-99194702D01*
X131314000Y-99154702D02*
X133360000Y-99154702D01*
X131327000Y-99114702D02*
X133360000Y-99114702D01*
X131340000Y-99074702D02*
X133360000Y-99074702D01*
X131353000Y-99034702D02*
X133360000Y-99034702D01*
X131368000Y-98994702D02*
X133360000Y-98994702D01*
X131383000Y-98954702D02*
X133360000Y-98954702D01*
X131398000Y-98914702D02*
X133360000Y-98914702D01*
X131414000Y-98874702D02*
X133360000Y-98874702D01*
X131431000Y-98834702D02*
X133360000Y-98834702D01*
X131448000Y-98794702D02*
X133360000Y-98794702D01*
X131466000Y-98754702D02*
X133360000Y-98754702D01*
X131485000Y-98714702D02*
X133360000Y-98714702D01*
X131504000Y-98674702D02*
X133360000Y-98674702D01*
X131524000Y-98634702D02*
X133360000Y-98634702D01*
X131545000Y-98594702D02*
X133360000Y-98594702D01*
X131566000Y-98554702D02*
X133360000Y-98554702D01*
X131588000Y-98514702D02*
X133360000Y-98514702D01*
X131611000Y-98474702D02*
X133360000Y-98474702D01*
X131635000Y-98434702D02*
X133360000Y-98434702D01*
X131659000Y-98394702D02*
X133360000Y-98394702D01*
X131684000Y-98354702D02*
X133360000Y-98354702D01*
X131710000Y-98314702D02*
X133360000Y-98314702D01*
X131737000Y-98274702D02*
X133360000Y-98274702D01*
X131764000Y-98234702D02*
X133360000Y-98234702D01*
X131793000Y-98194702D02*
X133360000Y-98194702D01*
X131823000Y-98154702D02*
X133360000Y-98154702D01*
X131853000Y-98114702D02*
X133360000Y-98114702D01*
X131884000Y-98074702D02*
X133360000Y-98074702D01*
X131917000Y-98034702D02*
X133360000Y-98034702D01*
X131950000Y-97994702D02*
X133360000Y-97994702D01*
X131985000Y-97954702D02*
X133360000Y-97954702D01*
X132021000Y-97914702D02*
X133360000Y-97914702D01*
X132058000Y-97874702D02*
X133360000Y-97874702D01*
X132096000Y-97834702D02*
X133360000Y-97834702D01*
X132136000Y-97794702D02*
X136664000Y-97794702D01*
X132177000Y-97754702D02*
X136623000Y-97754702D01*
X132219000Y-97714702D02*
X136581000Y-97714702D01*
X132246000Y-103299943D02*
X132876000Y-103299943D01*
X132263000Y-97674702D02*
X136537000Y-97674702D01*
X132309000Y-97634702D02*
X136491000Y-97634702D01*
X132356000Y-97594702D02*
X136444000Y-97594702D01*
X132405000Y-97554702D02*
X136395000Y-97554702D01*
X132457000Y-97514702D02*
X136343000Y-97514702D01*
X132510000Y-97474702D02*
X136290000Y-97474702D01*
X132561000Y-103614943D02*
X132561000Y-102984943D01*
X132566000Y-97434702D02*
X136234000Y-97434702D01*
X132625000Y-97394702D02*
X136175000Y-97394702D01*
X132686000Y-97354702D02*
X136114000Y-97354702D01*
X132751000Y-97314702D02*
X136049000Y-97314702D01*
X132819000Y-97274702D02*
X135981000Y-97274702D01*
X132891000Y-97234702D02*
X135909000Y-97234702D01*
X132968000Y-97194702D02*
X135832000Y-97194702D01*
X133050000Y-97154702D02*
X135750000Y-97154702D01*
X133139000Y-97114702D02*
X135661000Y-97114702D01*
X133235000Y-97074702D02*
X135565000Y-97074702D01*
X133342000Y-97034702D02*
X135458000Y-97034702D01*
X133461000Y-96994702D02*
X135339000Y-96994702D01*
X133599000Y-96954702D02*
X135201000Y-96954702D01*
X133767000Y-96914702D02*
X135033000Y-96914702D01*
X133998000Y-96874702D02*
X134802000Y-96874702D01*
X135440000Y-97834702D02*
X136704000Y-97834702D01*
X135440000Y-97874702D02*
X136742000Y-97874702D01*
X135440000Y-97914702D02*
X136779000Y-97914702D01*
X135440000Y-97954702D02*
X136815000Y-97954702D01*
X135440000Y-97994702D02*
X136850000Y-97994702D01*
X135440000Y-98034702D02*
X136883000Y-98034702D01*
X135440000Y-98074702D02*
X136916000Y-98074702D01*
X135440000Y-98114702D02*
X136947000Y-98114702D01*
X135440000Y-98154702D02*
X136977000Y-98154702D01*
X135440000Y-98194702D02*
X137007000Y-98194702D01*
X135440000Y-98234702D02*
X137036000Y-98234702D01*
X135440000Y-98274702D02*
X137063000Y-98274702D01*
X135440000Y-98314702D02*
X137090000Y-98314702D01*
X135440000Y-98354702D02*
X137116000Y-98354702D01*
X135440000Y-98394702D02*
X137141000Y-98394702D01*
X135440000Y-98434702D02*
X137165000Y-98434702D01*
X135440000Y-98474702D02*
X137189000Y-98474702D01*
X135440000Y-98514702D02*
X137212000Y-98514702D01*
X135440000Y-98554702D02*
X137234000Y-98554702D01*
X135440000Y-98594702D02*
X137255000Y-98594702D01*
X135440000Y-98634702D02*
X137276000Y-98634702D01*
X135440000Y-98674702D02*
X137296000Y-98674702D01*
X135440000Y-98714702D02*
X137315000Y-98714702D01*
X135440000Y-98754702D02*
X137334000Y-98754702D01*
X135440000Y-98794702D02*
X137352000Y-98794702D01*
X135440000Y-98834702D02*
X137369000Y-98834702D01*
X135440000Y-98874702D02*
X137386000Y-98874702D01*
X135440000Y-98914702D02*
X137402000Y-98914702D01*
X135440000Y-98954702D02*
X137417000Y-98954702D01*
X135440000Y-98994702D02*
X137432000Y-98994702D01*
X135440000Y-99034702D02*
X137447000Y-99034702D01*
X135440000Y-99074702D02*
X137460000Y-99074702D01*
X135440000Y-99114702D02*
X137473000Y-99114702D01*
X135440000Y-99154702D02*
X137486000Y-99154702D01*
X135440000Y-99194702D02*
X137498000Y-99194702D01*
X135440000Y-99234702D02*
X137509000Y-99234702D01*
X135440000Y-99274702D02*
X137520000Y-99274702D01*
X135440000Y-99314702D02*
X137531000Y-99314702D01*
X135440000Y-99354702D02*
X137540000Y-99354702D01*
X135440000Y-99394702D02*
X137550000Y-99394702D01*
X135440000Y-99434702D02*
X137559000Y-99434702D01*
X135440000Y-99474702D02*
X137567000Y-99474702D01*
X135440000Y-99514702D02*
X137574000Y-99514702D01*
X135440000Y-99554702D02*
X137582000Y-99554702D01*
X135440000Y-99594702D02*
X137588000Y-99594702D01*
X135440000Y-99634702D02*
X137595000Y-99634702D01*
X135440000Y-99674702D02*
X137600000Y-99674702D01*
X135440000Y-99714702D02*
X137605000Y-99714702D01*
X135440000Y-99754702D02*
X137610000Y-99754702D01*
X135440000Y-99794702D02*
X137614000Y-99794702D01*
X135440000Y-99834702D02*
X137618000Y-99834702D01*
X135440000Y-99874702D02*
X137621000Y-99874702D01*
X137670000Y-100114702D02*
G75*
G02*
X131130000Y-100114702I-3270000J0D01*
G01*
X131130000Y-100114702D02*
G75*
G02*
X137670000Y-100114702I3270000J0D01*
G01*
%TO.C,L1*%
X142400000Y-87665000D02*
X142400000Y-88425000D01*
X142400000Y-100425000D02*
X142400000Y-99665000D01*
X140030000Y-88425000D02*
X144770000Y-88425000D01*
X144770000Y-99665000D01*
X140030000Y-99665000D01*
X140030000Y-88425000D01*
%TO.C,Q1*%
X185590000Y-96660000D02*
X190210000Y-96660000D01*
X185590000Y-99920000D02*
X186970000Y-99920000D01*
X185590000Y-103620000D02*
X186970000Y-103620000D01*
X185590000Y-106880000D02*
X185590000Y-96660000D01*
X186970000Y-106880000D02*
X186970000Y-96660000D01*
X190210000Y-96660000D02*
X190210000Y-106880000D01*
X190210000Y-106880000D02*
X185590000Y-106880000D01*
%TO.C,R1*%
X149980000Y-78480000D02*
X150460000Y-78480000D01*
X149980000Y-88620000D02*
X149980000Y-78480000D01*
X150460000Y-88620000D02*
X149980000Y-88620000D01*
X153340000Y-88620000D02*
X153820000Y-88620000D01*
X153820000Y-78480000D02*
X153340000Y-78480000D01*
X153820000Y-88620000D02*
X153820000Y-78480000D01*
%TO.C,R5*%
X108680000Y-62130000D02*
X108680000Y-62610000D01*
X108680000Y-65970000D02*
X108680000Y-65490000D01*
X118820000Y-62130000D02*
X108680000Y-62130000D01*
X118820000Y-62610000D02*
X118820000Y-62130000D01*
X118820000Y-65490000D02*
X118820000Y-65970000D01*
X118820000Y-65970000D02*
X108680000Y-65970000D01*
%TO.C,TP3*%
X195050000Y-76360000D02*
G75*
G02*
X192650000Y-76360000I-1200000J0D01*
G01*
X192650000Y-76360000D02*
G75*
G02*
X195050000Y-76360000I1200000J0D01*
G01*
%TO.C,J3*%
X101980000Y-81430000D02*
X101980000Y-80050000D01*
X103360000Y-81430000D02*
X101980000Y-81430000D01*
X104630000Y-78670000D02*
X107280000Y-78670000D01*
X104630000Y-81430000D02*
X104630000Y-78670000D01*
X104630000Y-81430000D02*
X107280000Y-81430000D01*
X107280000Y-81430000D02*
X107280000Y-78670000D01*
%TO.C,R7*%
X197080000Y-107430000D02*
X197560000Y-107430000D01*
X197080000Y-117570000D02*
X197080000Y-107430000D01*
X197560000Y-117570000D02*
X197080000Y-117570000D01*
X200440000Y-117570000D02*
X200920000Y-117570000D01*
X200920000Y-107430000D02*
X200440000Y-107430000D01*
X200920000Y-117570000D02*
X200920000Y-107430000D01*
%TO.C,C7*%
X178730000Y-110940000D02*
X183970000Y-110940000D01*
X178730000Y-111277000D02*
X178730000Y-110940000D01*
X178730000Y-113680000D02*
X178730000Y-113343000D01*
X183970000Y-110940000D02*
X183970000Y-111277000D01*
X183970000Y-113343000D02*
X183970000Y-113680000D01*
X183970000Y-113680000D02*
X178730000Y-113680000D01*
%TO.C,U3*%
X187200000Y-107860000D02*
X187200000Y-118140000D01*
X187200000Y-118140000D02*
X192500000Y-118140000D01*
X188850000Y-107860000D02*
X187200000Y-107860000D01*
X192500000Y-107860000D02*
X190850000Y-107860000D01*
X192500000Y-118140000D02*
X192500000Y-107860000D01*
X190850000Y-107860000D02*
G75*
G02*
X188850000Y-107860000I-1000000J0D01*
G01*
%TO.C,R6*%
X184780000Y-87390000D02*
X194920000Y-87390000D01*
X184780000Y-87870000D02*
X184780000Y-87390000D01*
X184780000Y-90750000D02*
X184780000Y-91230000D01*
X184780000Y-91230000D02*
X194920000Y-91230000D01*
X194920000Y-87390000D02*
X194920000Y-87870000D01*
X194920000Y-91230000D02*
X194920000Y-90750000D01*
%TO.C,J1*%
X201620000Y-98620000D02*
X203000000Y-98620000D01*
X201620000Y-100000000D02*
X201620000Y-98620000D01*
X201620000Y-101270000D02*
X201620000Y-103920000D01*
X201620000Y-101270000D02*
X204380000Y-101270000D01*
X201620000Y-103920000D02*
X204380000Y-103920000D01*
X204380000Y-101270000D02*
X204380000Y-103920000D01*
%TO.C,TP1*%
X195050000Y-68260000D02*
G75*
G02*
X192650000Y-68260000I-1200000J0D01*
G01*
X192650000Y-68260000D02*
G75*
G02*
X195050000Y-68260000I1200000J0D01*
G01*
%TO.C,C3*%
X128820000Y-91010000D02*
X138980000Y-91010000D01*
X128820000Y-91050000D02*
X138980000Y-91050000D01*
X128821000Y-90930000D02*
X138979000Y-90930000D01*
X128821000Y-90970000D02*
X138979000Y-90970000D01*
X128823000Y-90890000D02*
X138977000Y-90890000D01*
X128824000Y-90850000D02*
X138976000Y-90850000D01*
X128826000Y-90810000D02*
X138974000Y-90810000D01*
X128828000Y-90770000D02*
X138972000Y-90770000D01*
X128830000Y-90730000D02*
X138970000Y-90730000D01*
X128833000Y-90690000D02*
X138967000Y-90690000D01*
X128836000Y-90650000D02*
X138964000Y-90650000D01*
X128839000Y-90610000D02*
X138961000Y-90610000D01*
X128843000Y-90570000D02*
X138957000Y-90570000D01*
X128846000Y-90530000D02*
X138954000Y-90530000D01*
X128851000Y-90490000D02*
X138949000Y-90490000D01*
X128855000Y-90450000D02*
X138945000Y-90450000D01*
X128860000Y-90410000D02*
X138940000Y-90410000D01*
X128865000Y-90370000D02*
X138935000Y-90370000D01*
X128871000Y-90330000D02*
X138929000Y-90330000D01*
X128877000Y-90290000D02*
X138923000Y-90290000D01*
X128883000Y-90250000D02*
X138917000Y-90250000D01*
X128889000Y-90210000D02*
X138911000Y-90210000D01*
X128896000Y-90170000D02*
X138904000Y-90170000D01*
X128903000Y-90130000D02*
X138897000Y-90130000D01*
X128911000Y-90090000D02*
X138889000Y-90090000D01*
X128919000Y-90050000D02*
X138881000Y-90050000D01*
X128927000Y-90010000D02*
X138873000Y-90010000D01*
X128935000Y-89970000D02*
X138865000Y-89970000D01*
X128944000Y-89930000D02*
X138856000Y-89930000D01*
X128953000Y-89890000D02*
X138847000Y-89890000D01*
X128963000Y-89850000D02*
X138837000Y-89850000D01*
X128972000Y-89810000D02*
X138828000Y-89810000D01*
X128983000Y-89770000D02*
X132660000Y-89770000D01*
X128993000Y-89730000D02*
X132660000Y-89730000D01*
X129004000Y-89690000D02*
X132660000Y-89690000D01*
X129015000Y-89650000D02*
X132660000Y-89650000D01*
X129027000Y-89610000D02*
X132660000Y-89610000D01*
X129039000Y-89570000D02*
X132660000Y-89570000D01*
X129051000Y-89530000D02*
X132660000Y-89530000D01*
X129063000Y-89490000D02*
X132660000Y-89490000D01*
X129076000Y-89450000D02*
X132660000Y-89450000D01*
X129090000Y-89410000D02*
X132660000Y-89410000D01*
X129103000Y-89370000D02*
X132660000Y-89370000D01*
X129118000Y-89330000D02*
X132660000Y-89330000D01*
X129132000Y-89290000D02*
X132660000Y-89290000D01*
X129147000Y-89250000D02*
X132660000Y-89250000D01*
X129162000Y-89210000D02*
X132660000Y-89210000D01*
X129178000Y-89170000D02*
X132660000Y-89170000D01*
X129194000Y-89130000D02*
X132660000Y-89130000D01*
X129210000Y-89090000D02*
X132660000Y-89090000D01*
X129227000Y-89050000D02*
X132660000Y-89050000D01*
X129244000Y-89010000D02*
X132660000Y-89010000D01*
X129262000Y-88970000D02*
X132660000Y-88970000D01*
X129280000Y-88930000D02*
X132660000Y-88930000D01*
X129298000Y-88890000D02*
X132660000Y-88890000D01*
X129317000Y-88850000D02*
X132660000Y-88850000D01*
X129336000Y-88810000D02*
X132660000Y-88810000D01*
X129356000Y-88770000D02*
X132660000Y-88770000D01*
X129376000Y-88730000D02*
X132660000Y-88730000D01*
X129396000Y-88690000D02*
X132660000Y-88690000D01*
X129417000Y-88650000D02*
X132660000Y-88650000D01*
X129439000Y-88610000D02*
X132660000Y-88610000D01*
X129461000Y-88570000D02*
X132660000Y-88570000D01*
X129483000Y-88530000D02*
X132660000Y-88530000D01*
X129506000Y-88490000D02*
X132660000Y-88490000D01*
X129529000Y-88450000D02*
X132660000Y-88450000D01*
X129553000Y-88410000D02*
X132660000Y-88410000D01*
X129577000Y-88370000D02*
X132660000Y-88370000D01*
X129602000Y-88330000D02*
X132660000Y-88330000D01*
X129628000Y-88290000D02*
X132660000Y-88290000D01*
X129653000Y-88250000D02*
X132660000Y-88250000D01*
X129680000Y-88210000D02*
X132660000Y-88210000D01*
X129707000Y-88170000D02*
X132660000Y-88170000D01*
X129734000Y-88130000D02*
X132660000Y-88130000D01*
X129762000Y-88090000D02*
X132660000Y-88090000D01*
X129791000Y-88050000D02*
X132660000Y-88050000D01*
X129820000Y-88010000D02*
X132660000Y-88010000D01*
X129850000Y-87970000D02*
X132660000Y-87970000D01*
X129880000Y-87930000D02*
X132660000Y-87930000D01*
X129912000Y-87890000D02*
X132660000Y-87890000D01*
X129943000Y-87850000D02*
X132660000Y-87850000D01*
X129976000Y-87810000D02*
X132660000Y-87810000D01*
X130009000Y-87770000D02*
X132660000Y-87770000D01*
X130042000Y-87730000D02*
X132660000Y-87730000D01*
X130077000Y-87690000D02*
X132660000Y-87690000D01*
X130112000Y-87650000D02*
X132660000Y-87650000D01*
X130148000Y-87610000D02*
X132660000Y-87610000D01*
X130184000Y-87570000D02*
X132660000Y-87570000D01*
X130222000Y-87530000D02*
X132660000Y-87530000D01*
X130260000Y-87490000D02*
X132660000Y-87490000D01*
X130299000Y-87450000D02*
X132660000Y-87450000D01*
X130339000Y-87410000D02*
X132660000Y-87410000D01*
X130380000Y-87370000D02*
X132660000Y-87370000D01*
X130422000Y-87330000D02*
X132660000Y-87330000D01*
X130465000Y-87290000D02*
X137335000Y-87290000D01*
X130509000Y-87250000D02*
X137291000Y-87250000D01*
X130525000Y-96029646D02*
X131525000Y-96029646D01*
X130553000Y-87210000D02*
X137247000Y-87210000D01*
X130599000Y-87170000D02*
X137201000Y-87170000D01*
X130646000Y-87130000D02*
X137154000Y-87130000D01*
X130695000Y-87090000D02*
X137105000Y-87090000D01*
X130744000Y-87050000D02*
X137056000Y-87050000D01*
X130795000Y-87010000D02*
X137005000Y-87010000D01*
X130847000Y-86970000D02*
X136953000Y-86970000D01*
X130900000Y-86930000D02*
X136900000Y-86930000D01*
X130955000Y-86890000D02*
X136845000Y-86890000D01*
X131012000Y-86850000D02*
X136788000Y-86850000D01*
X131025000Y-96529646D02*
X131025000Y-95529646D01*
X131070000Y-86810000D02*
X136730000Y-86810000D01*
X131130000Y-86770000D02*
X136670000Y-86770000D01*
X131192000Y-86730000D02*
X136608000Y-86730000D01*
X131256000Y-86690000D02*
X136544000Y-86690000D01*
X131322000Y-86650000D02*
X136478000Y-86650000D01*
X131390000Y-86610000D02*
X136410000Y-86610000D01*
X131461000Y-86570000D02*
X136339000Y-86570000D01*
X131535000Y-86530000D02*
X136265000Y-86530000D01*
X131612000Y-86490000D02*
X136188000Y-86490000D01*
X131692000Y-86450000D02*
X136108000Y-86450000D01*
X131776000Y-86410000D02*
X136024000Y-86410000D01*
X131863000Y-86370000D02*
X135937000Y-86370000D01*
X131956000Y-86330000D02*
X135844000Y-86330000D01*
X132054000Y-86290000D02*
X135746000Y-86290000D01*
X132158000Y-86250000D02*
X135642000Y-86250000D01*
X132270000Y-86210000D02*
X135530000Y-86210000D01*
X132391000Y-86170000D02*
X135409000Y-86170000D01*
X132523000Y-86130000D02*
X135277000Y-86130000D01*
X132670000Y-86090000D02*
X135130000Y-86090000D01*
X132838000Y-86050000D02*
X134962000Y-86050000D01*
X133038000Y-86010000D02*
X134762000Y-86010000D01*
X133301000Y-85970000D02*
X134499000Y-85970000D01*
X135140000Y-87330000D02*
X137378000Y-87330000D01*
X135140000Y-87370000D02*
X137420000Y-87370000D01*
X135140000Y-87410000D02*
X137461000Y-87410000D01*
X135140000Y-87450000D02*
X137501000Y-87450000D01*
X135140000Y-87490000D02*
X137540000Y-87490000D01*
X135140000Y-87530000D02*
X137578000Y-87530000D01*
X135140000Y-87570000D02*
X137616000Y-87570000D01*
X135140000Y-87610000D02*
X137652000Y-87610000D01*
X135140000Y-87650000D02*
X137688000Y-87650000D01*
X135140000Y-87690000D02*
X137723000Y-87690000D01*
X135140000Y-87730000D02*
X137758000Y-87730000D01*
X135140000Y-87770000D02*
X137791000Y-87770000D01*
X135140000Y-87810000D02*
X137824000Y-87810000D01*
X135140000Y-87850000D02*
X137857000Y-87850000D01*
X135140000Y-87890000D02*
X137888000Y-87890000D01*
X135140000Y-87930000D02*
X137920000Y-87930000D01*
X135140000Y-87970000D02*
X137950000Y-87970000D01*
X135140000Y-88010000D02*
X137980000Y-88010000D01*
X135140000Y-88050000D02*
X138009000Y-88050000D01*
X135140000Y-88090000D02*
X138038000Y-88090000D01*
X135140000Y-88130000D02*
X138066000Y-88130000D01*
X135140000Y-88170000D02*
X138093000Y-88170000D01*
X135140000Y-88210000D02*
X138120000Y-88210000D01*
X135140000Y-88250000D02*
X138147000Y-88250000D01*
X135140000Y-88290000D02*
X138172000Y-88290000D01*
X135140000Y-88330000D02*
X138198000Y-88330000D01*
X135140000Y-88370000D02*
X138223000Y-88370000D01*
X135140000Y-88410000D02*
X138247000Y-88410000D01*
X135140000Y-88450000D02*
X138271000Y-88450000D01*
X135140000Y-88490000D02*
X138294000Y-88490000D01*
X135140000Y-88530000D02*
X138317000Y-88530000D01*
X135140000Y-88570000D02*
X138339000Y-88570000D01*
X135140000Y-88610000D02*
X138361000Y-88610000D01*
X135140000Y-88650000D02*
X138383000Y-88650000D01*
X135140000Y-88690000D02*
X138404000Y-88690000D01*
X135140000Y-88730000D02*
X138424000Y-88730000D01*
X135140000Y-88770000D02*
X138444000Y-88770000D01*
X135140000Y-88810000D02*
X138464000Y-88810000D01*
X135140000Y-88850000D02*
X138483000Y-88850000D01*
X135140000Y-88890000D02*
X138502000Y-88890000D01*
X135140000Y-88930000D02*
X138520000Y-88930000D01*
X135140000Y-88970000D02*
X138538000Y-88970000D01*
X135140000Y-89010000D02*
X138556000Y-89010000D01*
X135140000Y-89050000D02*
X138573000Y-89050000D01*
X135140000Y-89090000D02*
X138590000Y-89090000D01*
X135140000Y-89130000D02*
X138606000Y-89130000D01*
X135140000Y-89170000D02*
X138622000Y-89170000D01*
X135140000Y-89210000D02*
X138638000Y-89210000D01*
X135140000Y-89250000D02*
X138653000Y-89250000D01*
X135140000Y-89290000D02*
X138668000Y-89290000D01*
X135140000Y-89330000D02*
X138682000Y-89330000D01*
X135140000Y-89370000D02*
X138697000Y-89370000D01*
X135140000Y-89410000D02*
X138710000Y-89410000D01*
X135140000Y-89450000D02*
X138724000Y-89450000D01*
X135140000Y-89490000D02*
X138737000Y-89490000D01*
X135140000Y-89530000D02*
X138749000Y-89530000D01*
X135140000Y-89570000D02*
X138761000Y-89570000D01*
X135140000Y-89610000D02*
X138773000Y-89610000D01*
X135140000Y-89650000D02*
X138785000Y-89650000D01*
X135140000Y-89690000D02*
X138796000Y-89690000D01*
X135140000Y-89730000D02*
X138807000Y-89730000D01*
X135140000Y-89770000D02*
X138817000Y-89770000D01*
X139020000Y-91050000D02*
G75*
G02*
X128780000Y-91050000I-5120000J0D01*
G01*
X128780000Y-91050000D02*
G75*
G02*
X139020000Y-91050000I5120000J0D01*
G01*
%TO.C,J2*%
X140020000Y-108930000D02*
X140020000Y-107550000D01*
X141400000Y-108930000D02*
X140020000Y-108930000D01*
X142670000Y-106170000D02*
X145320000Y-106170000D01*
X142670000Y-108930000D02*
X142670000Y-106170000D01*
X142670000Y-108930000D02*
X145320000Y-108930000D01*
X145320000Y-108930000D02*
X145320000Y-106170000D01*
%TO.C,U2*%
X108260000Y-69400000D02*
X108260000Y-71050000D01*
X108260000Y-73050000D02*
X108260000Y-74700000D01*
X108260000Y-74700000D02*
X118540000Y-74700000D01*
X118540000Y-69400000D02*
X108260000Y-69400000D01*
X118540000Y-74700000D02*
X118540000Y-69400000D01*
X108260000Y-71050000D02*
G75*
G02*
X108260000Y-73050000I0J-1000000D01*
G01*
%TO.C,C4*%
X110320000Y-84510000D02*
X111860000Y-84510000D01*
X110320000Y-84550000D02*
X111860000Y-84550000D01*
X110321000Y-84470000D02*
X111860000Y-84470000D01*
X110323000Y-84430000D02*
X111860000Y-84430000D01*
X110325000Y-84390000D02*
X111860000Y-84390000D01*
X110328000Y-84350000D02*
X111860000Y-84350000D01*
X110331000Y-84310000D02*
X111860000Y-84310000D01*
X110335000Y-84270000D02*
X111860000Y-84270000D01*
X110340000Y-84230000D02*
X111860000Y-84230000D01*
X110345000Y-84190000D02*
X111860000Y-84190000D01*
X110351000Y-84150000D02*
X111860000Y-84150000D01*
X110357000Y-84110000D02*
X111860000Y-84110000D01*
X110364000Y-84070000D02*
X111860000Y-84070000D01*
X110372000Y-84030000D02*
X111860000Y-84030000D01*
X110381000Y-83990000D02*
X111860000Y-83990000D01*
X110390000Y-83950000D02*
X111860000Y-83950000D01*
X110399000Y-83910000D02*
X111860000Y-83910000D01*
X110410000Y-83870000D02*
X111860000Y-83870000D01*
X110421000Y-83830000D02*
X111860000Y-83830000D01*
X110433000Y-83790000D02*
X111860000Y-83790000D01*
X110445000Y-83750000D02*
X111860000Y-83750000D01*
X110458000Y-83710000D02*
X111860000Y-83710000D01*
X110472000Y-83670000D02*
X111860000Y-83670000D01*
X110487000Y-83630000D02*
X111860000Y-83630000D01*
X110502000Y-83590000D02*
X111860000Y-83590000D01*
X110518000Y-83550000D02*
X111860000Y-83550000D01*
X110535000Y-83510000D02*
X111860000Y-83510000D01*
X110553000Y-83470000D02*
X111860000Y-83470000D01*
X110571000Y-83430000D02*
X111860000Y-83430000D01*
X110591000Y-83390000D02*
X111860000Y-83390000D01*
X110611000Y-83350000D02*
X111860000Y-83350000D01*
X110632000Y-83310000D02*
X111860000Y-83310000D01*
X110654000Y-83270000D02*
X111860000Y-83270000D01*
X110677000Y-83230000D02*
X111860000Y-83230000D01*
X110701000Y-83190000D02*
X111860000Y-83190000D01*
X110725000Y-83150000D02*
X111860000Y-83150000D01*
X110751000Y-83110000D02*
X111860000Y-83110000D01*
X110778000Y-83070000D02*
X111860000Y-83070000D01*
X110806000Y-83030000D02*
X111860000Y-83030000D01*
X110835000Y-82990000D02*
X111860000Y-82990000D01*
X110865000Y-82950000D02*
X111860000Y-82950000D01*
X110897000Y-82910000D02*
X111860000Y-82910000D01*
X110930000Y-82870000D02*
X111860000Y-82870000D01*
X110964000Y-82830000D02*
X111860000Y-82830000D01*
X110999000Y-82790000D02*
X111860000Y-82790000D01*
X111036000Y-82750000D02*
X111860000Y-82750000D01*
X111075000Y-82710000D02*
X111860000Y-82710000D01*
X111115000Y-82670000D02*
X111860000Y-82670000D01*
X111157000Y-82630000D02*
X111860000Y-82630000D01*
X111175000Y-87104775D02*
X111675000Y-87104775D01*
X111201000Y-82590000D02*
X111860000Y-82590000D01*
X111248000Y-82550000D02*
X111860000Y-82550000D01*
X111296000Y-82510000D02*
X114504000Y-82510000D01*
X111347000Y-82470000D02*
X114453000Y-82470000D01*
X111401000Y-82430000D02*
X114399000Y-82430000D01*
X111425000Y-87354775D02*
X111425000Y-86854775D01*
X111457000Y-82390000D02*
X114343000Y-82390000D01*
X111517000Y-82350000D02*
X114283000Y-82350000D01*
X111581000Y-82310000D02*
X114219000Y-82310000D01*
X111649000Y-82270000D02*
X114151000Y-82270000D01*
X111723000Y-82230000D02*
X114077000Y-82230000D01*
X111802000Y-82190000D02*
X113998000Y-82190000D01*
X111889000Y-82150000D02*
X113911000Y-82150000D01*
X111986000Y-82110000D02*
X113814000Y-82110000D01*
X112095000Y-82070000D02*
X113705000Y-82070000D01*
X112223000Y-82030000D02*
X113577000Y-82030000D01*
X112383000Y-81990000D02*
X113417000Y-81990000D01*
X112617000Y-81950000D02*
X113183000Y-81950000D01*
X113940000Y-82550000D02*
X114552000Y-82550000D01*
X113940000Y-82590000D02*
X114599000Y-82590000D01*
X113940000Y-82630000D02*
X114643000Y-82630000D01*
X113940000Y-82670000D02*
X114685000Y-82670000D01*
X113940000Y-82710000D02*
X114725000Y-82710000D01*
X113940000Y-82750000D02*
X114764000Y-82750000D01*
X113940000Y-82790000D02*
X114801000Y-82790000D01*
X113940000Y-82830000D02*
X114836000Y-82830000D01*
X113940000Y-82870000D02*
X114870000Y-82870000D01*
X113940000Y-82910000D02*
X114903000Y-82910000D01*
X113940000Y-82950000D02*
X114935000Y-82950000D01*
X113940000Y-82990000D02*
X114965000Y-82990000D01*
X113940000Y-83030000D02*
X114994000Y-83030000D01*
X113940000Y-83070000D02*
X115022000Y-83070000D01*
X113940000Y-83110000D02*
X115049000Y-83110000D01*
X113940000Y-83150000D02*
X115075000Y-83150000D01*
X113940000Y-83190000D02*
X115099000Y-83190000D01*
X113940000Y-83230000D02*
X115123000Y-83230000D01*
X113940000Y-83270000D02*
X115146000Y-83270000D01*
X113940000Y-83310000D02*
X115168000Y-83310000D01*
X113940000Y-83350000D02*
X115189000Y-83350000D01*
X113940000Y-83390000D02*
X115209000Y-83390000D01*
X113940000Y-83430000D02*
X115229000Y-83430000D01*
X113940000Y-83470000D02*
X115247000Y-83470000D01*
X113940000Y-83510000D02*
X115265000Y-83510000D01*
X113940000Y-83550000D02*
X115282000Y-83550000D01*
X113940000Y-83590000D02*
X115298000Y-83590000D01*
X113940000Y-83630000D02*
X115313000Y-83630000D01*
X113940000Y-83670000D02*
X115328000Y-83670000D01*
X113940000Y-83710000D02*
X115342000Y-83710000D01*
X113940000Y-83750000D02*
X115355000Y-83750000D01*
X113940000Y-83790000D02*
X115367000Y-83790000D01*
X113940000Y-83830000D02*
X115379000Y-83830000D01*
X113940000Y-83870000D02*
X115390000Y-83870000D01*
X113940000Y-83910000D02*
X115401000Y-83910000D01*
X113940000Y-83950000D02*
X115410000Y-83950000D01*
X113940000Y-83990000D02*
X115419000Y-83990000D01*
X113940000Y-84030000D02*
X115428000Y-84030000D01*
X113940000Y-84070000D02*
X115436000Y-84070000D01*
X113940000Y-84110000D02*
X115443000Y-84110000D01*
X113940000Y-84150000D02*
X115449000Y-84150000D01*
X113940000Y-84190000D02*
X115455000Y-84190000D01*
X113940000Y-84230000D02*
X115460000Y-84230000D01*
X113940000Y-84270000D02*
X115465000Y-84270000D01*
X113940000Y-84310000D02*
X115469000Y-84310000D01*
X113940000Y-84350000D02*
X115472000Y-84350000D01*
X113940000Y-84390000D02*
X115475000Y-84390000D01*
X113940000Y-84430000D02*
X115477000Y-84430000D01*
X113940000Y-84470000D02*
X115479000Y-84470000D01*
X113940000Y-84510000D02*
X115480000Y-84510000D01*
X113940000Y-84550000D02*
X115480000Y-84550000D01*
X115520000Y-84550000D02*
G75*
G02*
X110280000Y-84550000I-2620000J0D01*
G01*
X110280000Y-84550000D02*
G75*
G02*
X115520000Y-84550000I2620000J0D01*
G01*
%TO.C,D1*%
X145930000Y-85750000D02*
X148870000Y-85750000D01*
X145930000Y-85870000D02*
X148870000Y-85870000D01*
X145930000Y-85990000D02*
X148870000Y-85990000D01*
X147400000Y-80310000D02*
X147400000Y-81330000D01*
X147400000Y-87790000D02*
X147400000Y-86770000D01*
X145930000Y-81330000D02*
X148870000Y-81330000D01*
X148870000Y-86770000D01*
X145930000Y-86770000D01*
X145930000Y-81330000D01*
%TO.C,R3*%
X139980000Y-68480000D02*
X140460000Y-68480000D01*
X139980000Y-78620000D02*
X139980000Y-68480000D01*
X140460000Y-78620000D02*
X139980000Y-78620000D01*
X143340000Y-78620000D02*
X143820000Y-78620000D01*
X143820000Y-68480000D02*
X143340000Y-68480000D01*
X143820000Y-78620000D02*
X143820000Y-68480000D01*
D14*
%TO.C,G\u002A\u002A\u002A*%
G36*
X169686890Y-80949495D02*
G01*
X169869710Y-81121191D01*
X169983411Y-81369161D01*
X170021047Y-81682520D01*
X169989200Y-82033932D01*
X169894446Y-82396065D01*
X169743365Y-82741584D01*
X169542536Y-83043157D01*
X169363675Y-83223682D01*
X169039066Y-83429250D01*
X168713189Y-83513368D01*
X168390906Y-83474898D01*
X168349461Y-83460810D01*
X168172346Y-83334455D01*
X168038100Y-83117664D01*
X167959020Y-82840384D01*
X167947398Y-82532561D01*
X167951529Y-82491469D01*
X168042125Y-82067156D01*
X168216529Y-81697960D01*
X168491960Y-81350076D01*
X168576640Y-81264407D01*
X168877324Y-81024024D01*
X169170471Y-80890539D01*
X169444265Y-80865259D01*
X169686890Y-80949495D01*
G37*
G36*
X174644550Y-81515523D02*
G01*
X174912105Y-81572559D01*
X175260928Y-81715624D01*
X175509236Y-81905453D01*
X175652511Y-82129731D01*
X175686238Y-82376147D01*
X175605901Y-82632384D01*
X175406985Y-82886131D01*
X175397232Y-82895367D01*
X175107811Y-83100495D01*
X174736520Y-83265926D01*
X174314554Y-83386503D01*
X173873109Y-83457069D01*
X173443382Y-83472467D01*
X173056568Y-83427540D01*
X172768293Y-83329950D01*
X172522864Y-83159294D01*
X172374229Y-82933809D01*
X172310646Y-82632796D01*
X172306337Y-82515514D01*
X172315974Y-82321121D01*
X172364909Y-82189636D01*
X172479651Y-82063498D01*
X172538450Y-82011527D01*
X172862569Y-81799658D01*
X173269072Y-81637866D01*
X173724126Y-81532409D01*
X174193897Y-81489542D01*
X174644550Y-81515523D01*
G37*
G36*
X179414968Y-80903664D02*
G01*
X179563246Y-80950482D01*
X179699749Y-81052505D01*
X179727874Y-81078728D01*
X179998140Y-81416263D01*
X180167016Y-81808839D01*
X180222982Y-82214500D01*
X180191742Y-82569530D01*
X180106318Y-82905837D01*
X179979159Y-83180212D01*
X179921738Y-83260148D01*
X179699695Y-83446834D01*
X179426835Y-83559449D01*
X179145420Y-83584982D01*
X178980928Y-83549829D01*
X178775152Y-83415425D01*
X178559207Y-83161390D01*
X178495307Y-83066014D01*
X178411513Y-82913208D01*
X178358371Y-82747979D01*
X178326634Y-82531082D01*
X178309643Y-82278071D01*
X178300775Y-81992916D01*
X178311297Y-81790676D01*
X178346464Y-81630868D01*
X178411532Y-81473009D01*
X178415142Y-81465520D01*
X178578416Y-81182460D01*
X178753879Y-81004785D01*
X178966393Y-80914322D01*
X179199213Y-80892420D01*
X179414968Y-80903664D01*
G37*
G36*
X174578708Y-89548351D02*
G01*
X174601763Y-89555440D01*
X174816382Y-89658454D01*
X174941840Y-89814117D01*
X175001307Y-90006372D01*
X175042518Y-90207823D01*
X175505733Y-90207823D01*
X175779452Y-90216334D01*
X175973258Y-90247782D01*
X176130646Y-90311044D01*
X176195222Y-90348533D01*
X176405183Y-90535359D01*
X176556201Y-90778737D01*
X176620446Y-91032399D01*
X176621026Y-91056515D01*
X176568326Y-91293402D01*
X176420473Y-91567780D01*
X176192845Y-91860476D01*
X175900814Y-92152316D01*
X175559756Y-92424128D01*
X175480575Y-92478728D01*
X175264970Y-92605955D01*
X175069383Y-92691254D01*
X174914045Y-92730458D01*
X174819184Y-92719401D01*
X174805030Y-92653915D01*
X174825116Y-92613739D01*
X174921531Y-92521066D01*
X175082783Y-92417909D01*
X175151682Y-92382854D01*
X175329585Y-92273307D01*
X175543331Y-92103681D01*
X175769399Y-91897585D01*
X175984270Y-91678626D01*
X176164425Y-91470414D01*
X176286343Y-91296557D01*
X176325023Y-91205072D01*
X176325205Y-90926286D01*
X176211179Y-90695793D01*
X176064176Y-90564914D01*
X175810120Y-90456518D01*
X175536458Y-90441256D01*
X175275570Y-90510662D01*
X175059833Y-90656272D01*
X174924084Y-90862975D01*
X174841651Y-91001445D01*
X174747478Y-91047399D01*
X174671613Y-90995145D01*
X174663464Y-90911328D01*
X174673279Y-90742832D01*
X174696408Y-90545388D01*
X174720644Y-90312996D01*
X174726747Y-90111462D01*
X174716434Y-90001948D01*
X174626617Y-89856587D01*
X174465998Y-89789623D01*
X174258319Y-89798905D01*
X174027324Y-89882279D01*
X173796755Y-90037594D01*
X173738696Y-90090571D01*
X173539072Y-90358518D01*
X173397930Y-90699352D01*
X173332238Y-91068901D01*
X173329584Y-91155602D01*
X173316809Y-91335853D01*
X173276315Y-91404725D01*
X173251955Y-91403526D01*
X173194049Y-91325194D01*
X173160435Y-91159430D01*
X173150853Y-90940561D01*
X173165043Y-90702907D01*
X173202744Y-90480795D01*
X173260214Y-90315223D01*
X173461015Y-90017392D01*
X173718092Y-89777729D01*
X174006617Y-89610294D01*
X174301765Y-89529148D01*
X174578708Y-89548351D01*
G37*
G36*
X181402933Y-94060209D02*
G01*
X181869272Y-94068483D01*
X182316176Y-94090071D01*
X182724253Y-94122902D01*
X183074111Y-94164902D01*
X183346356Y-94213998D01*
X183521598Y-94268118D01*
X183560318Y-94290809D01*
X183613917Y-94372658D01*
X183565063Y-94429946D01*
X183435244Y-94446261D01*
X183367582Y-94438024D01*
X183245433Y-94423671D01*
X183022399Y-94404726D01*
X182721643Y-94382870D01*
X182366325Y-94359785D01*
X181979608Y-94337150D01*
X181971196Y-94336685D01*
X181467685Y-94312169D01*
X181068524Y-94303254D01*
X180754416Y-94313770D01*
X180506066Y-94347550D01*
X180304176Y-94408427D01*
X180129451Y-94500233D01*
X179962592Y-94626800D01*
X179811476Y-94765596D01*
X179561787Y-95033600D01*
X179271901Y-95389271D01*
X178957613Y-95809406D01*
X178634717Y-96270802D01*
X178319005Y-96750257D01*
X178026272Y-97224568D01*
X177772312Y-97670532D01*
X177588761Y-98031011D01*
X177423304Y-98388869D01*
X177305697Y-98670356D01*
X177227849Y-98909996D01*
X177181666Y-99142311D01*
X177159057Y-99401825D01*
X177151927Y-99723060D01*
X177151612Y-99895843D01*
X177165291Y-100397185D01*
X177209575Y-100810195D01*
X177290997Y-101168394D01*
X177416089Y-101505301D01*
X177499600Y-101681295D01*
X177617194Y-101914180D01*
X177462860Y-101914180D01*
X177321676Y-101873781D01*
X177250007Y-101804837D01*
X177098475Y-101468420D01*
X176991586Y-101097385D01*
X176922966Y-100662609D01*
X176886604Y-100144041D01*
X176875857Y-99700116D01*
X176888450Y-99336004D01*
X176932119Y-99016694D01*
X177014601Y-98707172D01*
X177143632Y-98372426D01*
X177326947Y-97977444D01*
X177396540Y-97836224D01*
X177571817Y-97497874D01*
X177770502Y-97137590D01*
X177979117Y-96777573D01*
X178184189Y-96440024D01*
X178372242Y-96147146D01*
X178529801Y-95921141D01*
X178639906Y-95787651D01*
X178720108Y-95690472D01*
X178840212Y-95526064D01*
X178961866Y-95348381D01*
X179217962Y-95004198D01*
X179508280Y-94682082D01*
X179804065Y-94410870D01*
X180076565Y-94219397D01*
X180101130Y-94205904D01*
X180211780Y-94150889D01*
X180319930Y-94111573D01*
X180448494Y-94085394D01*
X180620385Y-94069786D01*
X180858516Y-94062184D01*
X181185803Y-94060025D01*
X181402933Y-94060209D01*
G37*
G36*
X167219936Y-93251201D02*
G01*
X167533250Y-93357633D01*
X167882489Y-93543557D01*
X167891458Y-93548937D01*
X168106365Y-93677037D01*
X168276664Y-93776528D01*
X168377700Y-93833105D01*
X168394534Y-93840831D01*
X168477563Y-93868534D01*
X168646294Y-93943672D01*
X168877340Y-94054287D01*
X169147319Y-94188424D01*
X169432845Y-94334124D01*
X169710535Y-94479431D01*
X169957003Y-94612388D01*
X170148866Y-94721038D01*
X170262738Y-94793423D01*
X170272351Y-94801003D01*
X170507728Y-95053553D01*
X170715932Y-95395464D01*
X170899469Y-95833702D01*
X171060846Y-96375233D01*
X171202569Y-97027022D01*
X171312122Y-97691197D01*
X171357229Y-98021275D01*
X171380964Y-98276806D01*
X171383612Y-98505543D01*
X171365459Y-98755243D01*
X171326791Y-99073659D01*
X171320679Y-99119559D01*
X171244945Y-99627039D01*
X171163992Y-100039807D01*
X171070468Y-100387341D01*
X170957021Y-100699115D01*
X170886999Y-100858435D01*
X170759922Y-101110273D01*
X170630498Y-101301672D01*
X170465320Y-101473051D01*
X170230984Y-101664827D01*
X170202359Y-101686760D01*
X170001277Y-101824698D01*
X169832395Y-101893528D01*
X169642156Y-101913990D01*
X169615111Y-101914180D01*
X169325800Y-101914180D01*
X169573291Y-101782596D01*
X169940686Y-101564094D01*
X170235698Y-101329189D01*
X170470068Y-101058815D01*
X170655533Y-100733907D01*
X170803833Y-100335397D01*
X170926708Y-99844221D01*
X170998107Y-99468515D01*
X171064946Y-98976253D01*
X171088562Y-98493374D01*
X171067091Y-97993469D01*
X170998669Y-97450133D01*
X170881431Y-96836956D01*
X170781796Y-96403433D01*
X170632540Y-95885305D01*
X170459278Y-95476822D01*
X170255459Y-95164656D01*
X170089712Y-94995123D01*
X169935679Y-94871717D01*
X169815804Y-94790827D01*
X169771001Y-94772371D01*
X169694473Y-94745080D01*
X169529402Y-94670356D01*
X169296993Y-94558925D01*
X169018449Y-94421512D01*
X168714977Y-94268842D01*
X168407780Y-94111641D01*
X168118064Y-93960633D01*
X167867033Y-93826545D01*
X167675893Y-93720100D01*
X167596509Y-93672530D01*
X167281807Y-93528603D01*
X166928886Y-93478273D01*
X166520165Y-93520550D01*
X166223498Y-93595060D01*
X165996721Y-93667414D01*
X165819759Y-93733297D01*
X165723694Y-93780865D01*
X165715980Y-93788475D01*
X165633155Y-93834450D01*
X165578608Y-93841064D01*
X165471322Y-93867778D01*
X165294149Y-93937327D01*
X165100977Y-94027139D01*
X164847052Y-94133731D01*
X164611956Y-94197141D01*
X164420211Y-94214609D01*
X164296340Y-94183377D01*
X164262591Y-94121476D01*
X164316124Y-94043362D01*
X164433373Y-93993149D01*
X164528500Y-93969035D01*
X164648662Y-93929423D01*
X164815597Y-93866021D01*
X165051039Y-93770539D01*
X165376726Y-93634687D01*
X165411491Y-93620077D01*
X165555362Y-93566171D01*
X165778367Y-93489967D01*
X166040691Y-93404921D01*
X166141575Y-93373340D01*
X166559496Y-93262607D01*
X166907151Y-93220710D01*
X167219936Y-93251201D01*
G37*
G36*
X173970894Y-72496687D02*
G01*
X174393597Y-72506294D01*
X174792981Y-72520502D01*
X175144492Y-72538908D01*
X175423576Y-72561110D01*
X175596332Y-72584756D01*
X175836911Y-72635693D01*
X176153838Y-72706514D01*
X176519665Y-72790694D01*
X176906943Y-72881709D01*
X177288223Y-72973035D01*
X177636056Y-73058146D01*
X177922993Y-73130520D01*
X178121586Y-73183630D01*
X178148000Y-73191281D01*
X178377681Y-73246746D01*
X178598307Y-73280290D01*
X178680127Y-73284840D01*
X178899279Y-73261435D01*
X179182715Y-73199644D01*
X179481482Y-73112109D01*
X179746623Y-73011471D01*
X179757212Y-73006732D01*
X180096547Y-72872899D01*
X180509694Y-72739649D01*
X180947122Y-72622185D01*
X181181942Y-72569438D01*
X181454332Y-72528744D01*
X181779667Y-72504321D01*
X182134286Y-72495157D01*
X182494524Y-72500240D01*
X182836719Y-72518559D01*
X183137207Y-72549101D01*
X183372326Y-72590855D01*
X183518412Y-72642810D01*
X183549717Y-72670675D01*
X183634276Y-72719124D01*
X183688872Y-72725965D01*
X183849725Y-72762154D01*
X184072907Y-72858053D01*
X184324531Y-72994826D01*
X184570709Y-73153638D01*
X184777555Y-73315652D01*
X184818581Y-73353895D01*
X185092231Y-73639423D01*
X185290545Y-73901189D01*
X185424988Y-74168871D01*
X185507026Y-74472147D01*
X185548125Y-74840696D01*
X185559671Y-75272127D01*
X185551586Y-75714589D01*
X185524738Y-76068647D01*
X185480444Y-76317761D01*
X185474994Y-76336632D01*
X185357283Y-76665084D01*
X185198472Y-77027827D01*
X185019641Y-77381889D01*
X184841867Y-77684300D01*
X184748137Y-77818337D01*
X184622360Y-77984606D01*
X184526013Y-78116286D01*
X184490969Y-78167624D01*
X184484793Y-78247575D01*
X184511429Y-78418869D01*
X184572251Y-78687234D01*
X184668628Y-79058399D01*
X184801934Y-79538093D01*
X184905545Y-79898777D01*
X185074850Y-80484086D01*
X185212364Y-80965590D01*
X185321384Y-81358626D01*
X185405211Y-81678534D01*
X185467141Y-81940654D01*
X185510473Y-82160325D01*
X185538505Y-82352887D01*
X185554536Y-82533679D01*
X185561864Y-82718040D01*
X185563787Y-82921309D01*
X185563814Y-82960214D01*
X185548843Y-83434215D01*
X185497944Y-83867929D01*
X185407064Y-84318087D01*
X185279146Y-84850635D01*
X185164197Y-85284713D01*
X185053424Y-85644138D01*
X184938040Y-85952725D01*
X184809254Y-86234291D01*
X184658276Y-86512652D01*
X184501631Y-86771395D01*
X184366584Y-87000305D01*
X184262337Y-87202565D01*
X184204393Y-87346899D01*
X184197554Y-87384835D01*
X184217937Y-87537930D01*
X184273009Y-87777897D01*
X184353662Y-88075385D01*
X184450782Y-88401039D01*
X184555261Y-88725507D01*
X184657987Y-89019436D01*
X184749848Y-89253474D01*
X184821734Y-89398266D01*
X184823197Y-89400488D01*
X184866836Y-89495655D01*
X184925002Y-89656786D01*
X184942532Y-89711002D01*
X185005014Y-89880862D01*
X185104511Y-90120113D01*
X185223262Y-90386670D01*
X185270175Y-90487285D01*
X185417421Y-90801583D01*
X185578698Y-91150323D01*
X185722851Y-91466066D01*
X185743632Y-91512099D01*
X185861233Y-91756875D01*
X186019955Y-92065078D01*
X186202090Y-92404496D01*
X186389928Y-92742918D01*
X186565762Y-93048131D01*
X186711884Y-93287926D01*
X186760830Y-93362401D01*
X186842967Y-93464955D01*
X186980205Y-93619691D01*
X187117819Y-93766773D01*
X187312242Y-94000243D01*
X187430728Y-94231604D01*
X187480814Y-94400459D01*
X187548487Y-94755941D01*
X187607397Y-95210167D01*
X187656480Y-95737916D01*
X187694673Y-96313967D01*
X187720911Y-96913098D01*
X187734130Y-97510087D01*
X187733268Y-98079713D01*
X187717259Y-98596754D01*
X187685039Y-99035988D01*
X187678770Y-99093361D01*
X187611114Y-99470666D01*
X187501879Y-99840689D01*
X187364363Y-100167526D01*
X187211862Y-100415277D01*
X187171965Y-100461706D01*
X187047584Y-100594104D01*
X187215889Y-101114411D01*
X187297423Y-101355340D01*
X187370643Y-101551985D01*
X187423726Y-101673312D01*
X187436595Y-101693716D01*
X187488940Y-101812397D01*
X187432072Y-101895097D01*
X187338840Y-101914180D01*
X187259264Y-101900757D01*
X187195395Y-101844856D01*
X187132059Y-101723028D01*
X187054081Y-101511828D01*
X187027356Y-101432884D01*
X186928252Y-101144316D01*
X186854672Y-100957052D01*
X186795295Y-100853781D01*
X186738803Y-100817194D01*
X186673877Y-100829979D01*
X186642983Y-100845054D01*
X186536325Y-100889929D01*
X186342762Y-100961317D01*
X186093687Y-101047895D01*
X185917654Y-101106701D01*
X185499666Y-101224083D01*
X185126283Y-101277524D01*
X184747011Y-101269743D01*
X184311357Y-101203459D01*
X184270883Y-101195371D01*
X184114082Y-101181567D01*
X184013195Y-101236248D01*
X183961593Y-101300999D01*
X183715212Y-101614581D01*
X183492718Y-101818925D01*
X183299123Y-101909702D01*
X183251667Y-101914180D01*
X183065465Y-101914180D01*
X183440525Y-101513240D01*
X183612935Y-101315692D01*
X183748715Y-101135231D01*
X183826221Y-101001611D01*
X183835817Y-100969842D01*
X183854159Y-100892738D01*
X183897365Y-100852107D01*
X183988418Y-100847288D01*
X184150301Y-100877625D01*
X184405998Y-100942458D01*
X184443710Y-100952428D01*
X184813017Y-101019663D01*
X185181194Y-101017096D01*
X185586650Y-100942321D01*
X185857280Y-100863880D01*
X186335490Y-100683547D01*
X186705500Y-100475774D01*
X186982718Y-100225324D01*
X187182547Y-99916960D01*
X187320394Y-99535446D01*
X187357140Y-99380439D01*
X187379494Y-99205837D01*
X187397320Y-98928354D01*
X187410578Y-98569236D01*
X187419229Y-98149727D01*
X187423232Y-97691071D01*
X187422546Y-97214511D01*
X187417132Y-96741294D01*
X187406949Y-96292662D01*
X187391958Y-95889860D01*
X187372117Y-95554132D01*
X187364548Y-95462224D01*
X187313047Y-94996954D01*
X187247438Y-94631484D01*
X187159582Y-94341554D01*
X187041342Y-94102902D01*
X186884578Y-93891267D01*
X186810255Y-93809779D01*
X186651654Y-93632140D01*
X186495276Y-93430151D01*
X186334061Y-93191367D01*
X186160954Y-92903339D01*
X185968895Y-92553623D01*
X185750829Y-92129770D01*
X185499697Y-91619334D01*
X185208442Y-91009868D01*
X185137641Y-90859902D01*
X184904505Y-90345390D01*
X184679589Y-89812189D01*
X184474339Y-89289820D01*
X184300199Y-88807807D01*
X184168617Y-88395671D01*
X184134507Y-88272523D01*
X184066899Y-88029330D01*
X184002900Y-87823650D01*
X183954320Y-87692915D01*
X183946905Y-87677981D01*
X183897705Y-87541322D01*
X183902388Y-87384647D01*
X183967124Y-87187560D01*
X184098087Y-86929663D01*
X184251706Y-86670695D01*
X184567955Y-86072763D01*
X184840322Y-85388539D01*
X185058953Y-84651186D01*
X185213994Y-83893865D01*
X185295023Y-83159544D01*
X185306338Y-82909533D01*
X185304436Y-82698912D01*
X185285060Y-82493920D01*
X185243953Y-82260795D01*
X185176861Y-81965775D01*
X185110999Y-81699755D01*
X185006640Y-81295221D01*
X184886532Y-80845844D01*
X184765902Y-80407797D01*
X184664900Y-80054034D01*
X184561077Y-79694087D01*
X184453814Y-79312971D01*
X184356834Y-78959915D01*
X184292918Y-78719369D01*
X184148330Y-78160989D01*
X184279934Y-77974137D01*
X184399356Y-77813940D01*
X184509184Y-77680693D01*
X184514185Y-77675183D01*
X184624411Y-77520294D01*
X184759032Y-77280781D01*
X184902880Y-76989759D01*
X185040792Y-76680342D01*
X185157601Y-76385642D01*
X185238143Y-76138773D01*
X185259207Y-76048410D01*
X185297846Y-75727998D01*
X185309243Y-75364167D01*
X185295476Y-74992920D01*
X185258627Y-74650258D01*
X185200775Y-74372179D01*
X185155180Y-74247806D01*
X184976077Y-73951501D01*
X184736026Y-73658452D01*
X184467267Y-73402009D01*
X184202038Y-73215522D01*
X184116165Y-73173017D01*
X183439592Y-72922169D01*
X182817073Y-72772843D01*
X182282296Y-72726479D01*
X181798988Y-72757669D01*
X181252364Y-72844287D01*
X180685265Y-72977275D01*
X180140530Y-73147577D01*
X179949756Y-73219613D01*
X179657756Y-73327454D01*
X179347808Y-73428496D01*
X179083009Y-73502288D01*
X179063625Y-73506875D01*
X178871992Y-73547967D01*
X178720509Y-73565250D01*
X178569878Y-73556141D01*
X178380802Y-73518060D01*
X178113985Y-73448424D01*
X178094798Y-73443228D01*
X177781517Y-73361876D01*
X177404124Y-73269162D01*
X177020112Y-73179018D01*
X176807334Y-73131277D01*
X176450244Y-73052394D01*
X176067050Y-72966776D01*
X175713988Y-72887028D01*
X175534229Y-72845910D01*
X175151989Y-72779626D01*
X174686977Y-72732901D01*
X174173237Y-72706131D01*
X173644812Y-72699717D01*
X173135745Y-72714056D01*
X172680080Y-72749547D01*
X172311860Y-72806588D01*
X172304889Y-72808113D01*
X171728452Y-72936948D01*
X171254628Y-73047814D01*
X170864158Y-73146697D01*
X170537781Y-73239581D01*
X170256237Y-73332454D01*
X170000267Y-73431300D01*
X169750609Y-73542105D01*
X169488005Y-73670856D01*
X169424281Y-73703363D01*
X168903575Y-73970443D01*
X168492741Y-73848730D01*
X167924220Y-73668712D01*
X167473257Y-73500500D01*
X167312862Y-73430476D01*
X167174856Y-73379273D01*
X166945708Y-73307876D01*
X166655071Y-73225010D01*
X166332594Y-73139399D01*
X166266978Y-73122738D01*
X165885037Y-73030762D01*
X165579401Y-72969726D01*
X165307717Y-72933857D01*
X165027636Y-72917380D01*
X164738223Y-72914345D01*
X164084300Y-72946717D01*
X163528918Y-73038814D01*
X163075051Y-73189554D01*
X162725670Y-73397856D01*
X162483751Y-73662637D01*
X162432459Y-73753155D01*
X162365556Y-73960043D01*
X162316380Y-74255118D01*
X162286683Y-74603396D01*
X162278217Y-74969890D01*
X162292737Y-75319616D01*
X162331995Y-75617586D01*
X162337688Y-75644743D01*
X162436243Y-76004573D01*
X162576208Y-76395265D01*
X162744665Y-76790000D01*
X162928698Y-77161957D01*
X163115388Y-77484318D01*
X163291819Y-77730262D01*
X163392184Y-77834151D01*
X163641564Y-78047611D01*
X163641564Y-78511887D01*
X163629720Y-78786995D01*
X163598733Y-79055243D01*
X163557208Y-79251161D01*
X163491096Y-79469575D01*
X163412066Y-79734634D01*
X163363686Y-79898777D01*
X163297601Y-80118105D01*
X163238442Y-80303868D01*
X163206490Y-80395598D01*
X163165959Y-80518747D01*
X163107792Y-80716984D01*
X163051037Y-80923471D01*
X162980504Y-81185967D01*
X162909080Y-81447763D01*
X162864987Y-81606601D01*
X162802514Y-81855497D01*
X162726789Y-82200444D01*
X162643331Y-82614713D01*
X162557656Y-83071576D01*
X162526307Y-83247154D01*
X162503031Y-83443238D01*
X162483473Y-83729750D01*
X162469292Y-84072931D01*
X162462145Y-84439021D01*
X162461613Y-84563630D01*
X162463712Y-84946414D01*
X162472261Y-85235724D01*
X162490635Y-85462253D01*
X162522210Y-85656697D01*
X162570362Y-85849747D01*
X162621739Y-86019548D01*
X162833422Y-86554357D01*
X163114676Y-87062696D01*
X163439693Y-87498676D01*
X163476923Y-87540153D01*
X163593702Y-87672611D01*
X163658026Y-87777510D01*
X163681408Y-87897007D01*
X163675363Y-88073262D01*
X163662709Y-88220372D01*
X163598470Y-88621481D01*
X163473253Y-89106388D01*
X163293573Y-89654624D01*
X163065948Y-90245721D01*
X162881767Y-90673594D01*
X162828308Y-90798476D01*
X162806106Y-90859902D01*
X162778688Y-90935333D01*
X162714383Y-91093277D01*
X162626469Y-91302620D01*
X162528222Y-91532247D01*
X162432917Y-91751046D01*
X162353831Y-91927904D01*
X162315862Y-92008801D01*
X162262934Y-92123142D01*
X162170130Y-92330213D01*
X162046865Y-92608737D01*
X161902554Y-92937436D01*
X161746610Y-93295034D01*
X161738821Y-93312958D01*
X161253132Y-94430806D01*
X161229745Y-95113936D01*
X161226491Y-95446278D01*
X161235809Y-95840020D01*
X161255974Y-96276688D01*
X161285258Y-96737808D01*
X161321935Y-97204906D01*
X161364279Y-97659509D01*
X161410562Y-98083143D01*
X161459059Y-98457334D01*
X161508042Y-98763608D01*
X161555786Y-98983491D01*
X161600563Y-99098510D01*
X161602353Y-99100771D01*
X161676643Y-99151947D01*
X161837478Y-99242626D01*
X162059589Y-99360210D01*
X162317704Y-99492103D01*
X162586554Y-99625705D01*
X162840869Y-99748418D01*
X163055379Y-99847646D01*
X163204814Y-99910789D01*
X163259461Y-99926894D01*
X163347675Y-99951588D01*
X163487953Y-100011204D01*
X163492292Y-100013275D01*
X163833969Y-100168307D01*
X164136445Y-100282398D01*
X164466095Y-100380031D01*
X164537451Y-100398786D01*
X164808856Y-100482596D01*
X165007825Y-100584239D01*
X165185739Y-100731327D01*
X165220580Y-100765858D01*
X165495876Y-101009519D01*
X165844744Y-101268394D01*
X166224768Y-101514560D01*
X166593533Y-101720097D01*
X166839853Y-101831827D01*
X166940022Y-101873941D01*
X166953704Y-101896221D01*
X166867833Y-101905812D01*
X166697937Y-101909456D01*
X166475406Y-101895404D01*
X166290849Y-101853690D01*
X166232166Y-101826532D01*
X166092936Y-101742339D01*
X165905894Y-101634533D01*
X165832932Y-101593647D01*
X165658238Y-101477667D01*
X165441232Y-101307076D01*
X165225847Y-101116645D01*
X165204381Y-101096210D01*
X164930009Y-100859809D01*
X164692389Y-100717221D01*
X164565581Y-100672361D01*
X164247187Y-100574565D01*
X163845012Y-100429082D01*
X163385173Y-100246099D01*
X162893789Y-100035803D01*
X162636893Y-99920144D01*
X162374300Y-99801161D01*
X162154522Y-99704042D01*
X162001146Y-99639043D01*
X161938238Y-99616381D01*
X161909902Y-99669194D01*
X161901227Y-99756112D01*
X161880403Y-99917859D01*
X161826721Y-100160659D01*
X161749939Y-100448898D01*
X161659811Y-100746962D01*
X161566096Y-101019237D01*
X161528987Y-101114932D01*
X161399535Y-101432401D01*
X161306231Y-101652361D01*
X161239184Y-101792661D01*
X161188498Y-101871146D01*
X161144280Y-101905665D01*
X161096636Y-101914064D01*
X161085922Y-101914180D01*
X160990371Y-101879305D01*
X160971149Y-101836283D01*
X160991644Y-101742419D01*
X161045539Y-101569138D01*
X161121448Y-101352876D01*
X161126405Y-101339461D01*
X161235960Y-101043854D01*
X161357268Y-100716533D01*
X161436919Y-100501613D01*
X161547499Y-100118588D01*
X161591858Y-99763576D01*
X161592175Y-99735298D01*
X161585759Y-99530797D01*
X161557754Y-99413622D01*
X161495023Y-99347184D01*
X161443076Y-99319973D01*
X161352278Y-99251562D01*
X161285974Y-99128285D01*
X161237565Y-98929218D01*
X161200455Y-98633439D01*
X161190128Y-98517815D01*
X161168833Y-98337424D01*
X161142216Y-98201664D01*
X161137973Y-98188019D01*
X161119274Y-98088901D01*
X161095368Y-97901147D01*
X161069667Y-97660027D01*
X161045584Y-97400812D01*
X161026530Y-97158771D01*
X161015919Y-96969175D01*
X161014801Y-96914914D01*
X161017343Y-96780247D01*
X161023935Y-96581270D01*
X161028015Y-96480195D01*
X161029847Y-96299811D01*
X161025263Y-96030157D01*
X161015151Y-95705951D01*
X161000402Y-95361912D01*
X160998260Y-95318899D01*
X160981420Y-94971792D01*
X160976038Y-94713938D01*
X160988518Y-94510486D01*
X161025260Y-94326586D01*
X161092670Y-94127388D01*
X161197150Y-93878043D01*
X161309761Y-93623471D01*
X161403895Y-93409543D01*
X161483186Y-93226319D01*
X161525043Y-93126650D01*
X161575505Y-93005480D01*
X161656561Y-92815021D01*
X161736276Y-92629828D01*
X161847486Y-92370695D01*
X161976079Y-92067968D01*
X162079405Y-91822493D01*
X162185226Y-91571829D01*
X162319419Y-91257244D01*
X162469714Y-90907157D01*
X162623838Y-90549987D01*
X162769521Y-90214151D01*
X162894491Y-89928069D01*
X162986477Y-89720159D01*
X163004157Y-89680912D01*
X163087109Y-89473268D01*
X163152717Y-89268802D01*
X163154567Y-89261719D01*
X163207679Y-89056325D01*
X163264794Y-88836307D01*
X163267466Y-88826039D01*
X163299971Y-88637693D01*
X163322554Y-88386260D01*
X163329569Y-88176783D01*
X163323765Y-87938625D01*
X163297622Y-87785124D01*
X163241177Y-87677169D01*
X163186758Y-87616120D01*
X163012545Y-87401321D01*
X162823949Y-87101922D01*
X162639656Y-86753045D01*
X162478354Y-86389812D01*
X162366990Y-86075366D01*
X162216614Y-85376470D01*
X162162411Y-84601707D01*
X162204580Y-83754053D01*
X162209195Y-83710062D01*
X162249510Y-83350586D01*
X162290268Y-83032862D01*
X162335851Y-82737271D01*
X162390641Y-82444195D01*
X162459017Y-82134016D01*
X162545362Y-81787114D01*
X162654057Y-81383872D01*
X162789483Y-80904671D01*
X162956021Y-80329892D01*
X162990189Y-80212890D01*
X163100498Y-79820350D01*
X163199308Y-79440254D01*
X163280273Y-79099295D01*
X163337047Y-78824165D01*
X163363088Y-78644311D01*
X163375607Y-78427950D01*
X163362361Y-78288694D01*
X163307336Y-78179829D01*
X163194518Y-78054637D01*
X163143327Y-78003229D01*
X162952595Y-77766499D01*
X162750054Y-77436078D01*
X162548571Y-77040003D01*
X162361013Y-76606312D01*
X162200249Y-76163044D01*
X162079146Y-75738237D01*
X162055407Y-75632676D01*
X161980677Y-75111101D01*
X161973747Y-74604573D01*
X162031526Y-74136486D01*
X162150926Y-73730229D01*
X162328858Y-73409193D01*
X162353119Y-73378569D01*
X162520769Y-73217275D01*
X162737710Y-73060874D01*
X162843630Y-73000615D01*
X163116608Y-72890308D01*
X163471681Y-72786330D01*
X163866771Y-72697829D01*
X164259799Y-72633956D01*
X164608688Y-72603860D01*
X164673649Y-72602684D01*
X165193211Y-72634965D01*
X165794282Y-72730887D01*
X166454858Y-72885443D01*
X167152937Y-73093629D01*
X167730776Y-73298140D01*
X168101159Y-73437654D01*
X168380323Y-73535381D01*
X168593441Y-73592892D01*
X168765684Y-73611762D01*
X168922224Y-73593562D01*
X169088234Y-73539868D01*
X169288884Y-73452251D01*
X169396978Y-73402271D01*
X169745002Y-73247859D01*
X170083241Y-73113968D01*
X170434030Y-72994051D01*
X170819709Y-72881563D01*
X171262615Y-72769954D01*
X171785085Y-72652679D01*
X172366992Y-72531771D01*
X172537976Y-72512329D01*
X172808412Y-72499503D01*
X173153747Y-72492889D01*
X173549425Y-72492085D01*
X173970894Y-72496687D01*
G37*
G36*
X110863701Y-102516500D02*
G01*
X110838666Y-103088000D01*
X110539307Y-103113196D01*
X110323554Y-103114441D01*
X110187934Y-103084415D01*
X110179473Y-103077918D01*
X110147973Y-102967398D01*
X110126099Y-102739641D01*
X110119000Y-102481222D01*
X110119000Y-102430453D01*
X110205574Y-102430453D01*
X110229520Y-102574661D01*
X110279274Y-102622333D01*
X110371831Y-102554954D01*
X110403617Y-102495333D01*
X110422595Y-102335370D01*
X110380174Y-102199722D01*
X110300554Y-102153329D01*
X110279461Y-102162149D01*
X110222232Y-102266433D01*
X110205574Y-102430453D01*
X110119000Y-102430453D01*
X110119000Y-101945000D01*
X110503868Y-101945000D01*
X110888736Y-101945000D01*
X110863701Y-102516500D01*
G37*
G36*
X111286760Y-103194416D02*
G01*
X111530534Y-103259108D01*
X111886137Y-103379485D01*
X112222345Y-103502928D01*
X112625489Y-103649228D01*
X112982453Y-103770445D01*
X113257717Y-103855096D01*
X113415760Y-103891696D01*
X113426832Y-103892333D01*
X113546724Y-103934480D01*
X113588868Y-104088398D01*
X113590333Y-104148990D01*
X113571591Y-104324466D01*
X113494656Y-104423002D01*
X113328459Y-104455903D01*
X113041933Y-104434475D01*
X112870666Y-104410884D01*
X112631924Y-104371301D01*
X112503623Y-104340601D01*
X112510833Y-104325991D01*
X112652073Y-104291179D01*
X112656674Y-104233457D01*
X112550569Y-104177283D01*
X112359691Y-104147116D01*
X112320333Y-104146333D01*
X112097059Y-104169456D01*
X111987661Y-104225409D01*
X112011732Y-104294068D01*
X112129833Y-104341970D01*
X112090804Y-104352989D01*
X111903209Y-104363647D01*
X111587819Y-104373412D01*
X111165401Y-104381748D01*
X110656723Y-104388124D01*
X110203666Y-104391443D01*
X109609752Y-104396489D01*
X109056612Y-104404881D01*
X108571854Y-104415908D01*
X108183090Y-104428859D01*
X107917927Y-104443026D01*
X107824362Y-104452643D01*
X107604612Y-104469110D01*
X107493314Y-104413707D01*
X107464529Y-104360120D01*
X107414340Y-104132607D01*
X107491585Y-103997842D01*
X107642500Y-103937636D01*
X107810948Y-103884494D01*
X107974392Y-103826230D01*
X108679666Y-103826230D01*
X108747639Y-103864362D01*
X108933097Y-103822738D01*
X109208353Y-103708768D01*
X109314666Y-103656292D01*
X109466559Y-103557377D01*
X109480096Y-103499432D01*
X109382408Y-103487545D01*
X109200627Y-103526805D01*
X109010933Y-103599336D01*
X108807752Y-103707359D01*
X108690818Y-103801288D01*
X108679666Y-103826230D01*
X107974392Y-103826230D01*
X108096226Y-103782799D01*
X108458101Y-103647289D01*
X108846669Y-103496521D01*
X109278436Y-103331151D01*
X109582624Y-103228659D01*
X109785935Y-103182131D01*
X109915072Y-103184656D01*
X109967354Y-103206397D01*
X110173698Y-103271759D01*
X110466409Y-103296511D01*
X110767516Y-103280638D01*
X110999044Y-103224125D01*
X111032328Y-103206595D01*
X111129223Y-103179036D01*
X111286760Y-103194416D01*
G37*
G36*
X119178333Y-96103000D02*
G01*
X119178333Y-101691000D01*
X110500000Y-101691000D01*
X101821666Y-101691000D01*
X101821666Y-98655251D01*
X102005859Y-98655251D01*
X102006697Y-99396728D01*
X102008790Y-100044920D01*
X102012087Y-100585104D01*
X102016539Y-101002558D01*
X102022094Y-101282559D01*
X102028703Y-101410384D01*
X102029893Y-101415833D01*
X102068748Y-101433949D01*
X102176205Y-101450016D01*
X102360596Y-101464140D01*
X102630251Y-101476427D01*
X102993500Y-101486980D01*
X103458675Y-101495906D01*
X104034106Y-101503310D01*
X104728124Y-101509297D01*
X105549060Y-101513973D01*
X106505243Y-101517442D01*
X107605006Y-101519809D01*
X108856678Y-101521181D01*
X110268591Y-101521663D01*
X110405751Y-101521666D01*
X111581413Y-101521154D01*
X112710371Y-101519665D01*
X113780954Y-101517270D01*
X114781494Y-101514039D01*
X115700318Y-101510044D01*
X116525758Y-101505356D01*
X117246143Y-101500044D01*
X117849803Y-101494181D01*
X118325068Y-101487836D01*
X118660268Y-101481080D01*
X118843733Y-101473986D01*
X118875075Y-101470274D01*
X118902582Y-101446709D01*
X118926091Y-101390575D01*
X118945909Y-101289631D01*
X118962344Y-101131637D01*
X118975703Y-100904349D01*
X118986296Y-100595528D01*
X118994430Y-100192931D01*
X119000413Y-99684317D01*
X119004552Y-99057445D01*
X119007156Y-98300073D01*
X119008533Y-97399959D01*
X119008991Y-96344862D01*
X119009000Y-96146641D01*
X119008450Y-95041491D01*
X119006637Y-94094194D01*
X119003314Y-93293271D01*
X118998236Y-92627246D01*
X118991157Y-92084641D01*
X118981831Y-91653978D01*
X118970012Y-91323779D01*
X118955454Y-91082567D01*
X118937911Y-90918865D01*
X118917138Y-90821194D01*
X118893991Y-90778952D01*
X118822604Y-90762086D01*
X118647605Y-90747370D01*
X118362822Y-90734750D01*
X117962083Y-90724172D01*
X117439218Y-90715582D01*
X116788055Y-90708926D01*
X116002423Y-90704151D01*
X115076150Y-90701204D01*
X114003064Y-90700030D01*
X112776995Y-90700575D01*
X111391771Y-90702787D01*
X110406158Y-90705085D01*
X102033333Y-90726666D01*
X102011384Y-96018333D01*
X102008152Y-96951331D01*
X102006328Y-97835211D01*
X102005859Y-98655251D01*
X101821666Y-98655251D01*
X101821666Y-96103000D01*
X101821666Y-90515000D01*
X110500000Y-90515000D01*
X119178333Y-90515000D01*
X119178333Y-96103000D01*
G37*
G36*
X118797333Y-96103000D02*
G01*
X118797333Y-101225333D01*
X110478177Y-101246915D01*
X102159021Y-101268496D01*
X102160485Y-100923515D01*
X116514722Y-100923515D01*
X116556659Y-100977993D01*
X116727240Y-101023567D01*
X116985899Y-101057748D01*
X117292068Y-101078047D01*
X117605182Y-101081977D01*
X117884671Y-101067049D01*
X118089971Y-101030775D01*
X118116036Y-101021739D01*
X118202731Y-100974061D01*
X118152359Y-100936228D01*
X117999620Y-100900690D01*
X117739407Y-100866212D01*
X117421498Y-100848579D01*
X117092861Y-100847069D01*
X116800467Y-100860960D01*
X116591283Y-100889531D01*
X116514722Y-100923515D01*
X102160485Y-100923515D01*
X102167307Y-99315387D01*
X106089734Y-99315387D01*
X106182945Y-99401917D01*
X106217059Y-99405000D01*
X106292776Y-99335190D01*
X106419122Y-99150146D01*
X106571711Y-98886446D01*
X106607651Y-98819094D01*
X107061462Y-98130762D01*
X107633815Y-97545922D01*
X108301646Y-97076263D01*
X109041894Y-96733470D01*
X109831497Y-96529232D01*
X110647393Y-96475234D01*
X111143756Y-96520391D01*
X111937875Y-96723472D01*
X112686473Y-97073236D01*
X113362429Y-97550489D01*
X113938619Y-98136040D01*
X114387923Y-98810699D01*
X114392348Y-98819094D01*
X114547508Y-99095611D01*
X114681985Y-99301813D01*
X114771396Y-99401124D01*
X114782940Y-99405000D01*
X114898314Y-99343817D01*
X114916890Y-99176204D01*
X114849980Y-98926057D01*
X114708898Y-98617275D01*
X114504955Y-98273756D01*
X114249465Y-97919399D01*
X113953739Y-97578103D01*
X113884733Y-97507474D01*
X113208288Y-96944247D01*
X112462750Y-96524879D01*
X111668350Y-96249368D01*
X110845320Y-96117714D01*
X110013890Y-96129918D01*
X109194293Y-96285980D01*
X108406758Y-96585899D01*
X107671518Y-97029675D01*
X107115266Y-97507474D01*
X106812240Y-97842721D01*
X106546972Y-98196261D01*
X106330775Y-98544197D01*
X106174961Y-98862628D01*
X106090843Y-99127658D01*
X106089734Y-99315387D01*
X102167307Y-99315387D01*
X102172584Y-98071500D01*
X102584963Y-98071500D01*
X102593456Y-98430150D01*
X102618206Y-98684457D01*
X102656011Y-98805976D01*
X102668333Y-98812333D01*
X102711320Y-98733723D01*
X102740729Y-98521674D01*
X102751714Y-98211851D01*
X102751703Y-98198500D01*
X102740206Y-97877559D01*
X102711201Y-97613829D01*
X102670823Y-97461798D01*
X102668333Y-97457666D01*
X102625893Y-97454785D01*
X102598771Y-97606159D01*
X102586131Y-97917949D01*
X102584963Y-98071500D01*
X102172584Y-98071500D01*
X102180844Y-96124581D01*
X102190301Y-93895370D01*
X102510704Y-93895370D01*
X102511069Y-94372066D01*
X102520707Y-94855678D01*
X102538556Y-95312553D01*
X102563557Y-95709038D01*
X102594649Y-96011482D01*
X102630774Y-96186232D01*
X102639922Y-96205197D01*
X102664192Y-96164915D01*
X102685477Y-95983416D01*
X102703446Y-95688798D01*
X102717764Y-95309155D01*
X102728099Y-94872585D01*
X102734117Y-94407184D01*
X102735486Y-93941048D01*
X102731872Y-93502274D01*
X102722942Y-93118957D01*
X102708388Y-92819711D01*
X105970333Y-92819711D01*
X106026487Y-92924633D01*
X106175631Y-93111554D01*
X106388791Y-93345004D01*
X106454516Y-93412378D01*
X106938699Y-93901666D01*
X106442815Y-94402779D01*
X106160038Y-94711372D01*
X106015057Y-94926904D01*
X105998308Y-95037779D01*
X106052661Y-95134581D01*
X106130443Y-95152024D01*
X106256071Y-95077634D01*
X106453962Y-94898933D01*
X106647666Y-94706000D01*
X106877654Y-94484244D01*
X107069126Y-94319808D01*
X107186674Y-94242654D01*
X107198000Y-94240333D01*
X107296932Y-94296894D01*
X107476720Y-94446602D01*
X107701956Y-94659496D01*
X107748333Y-94706000D01*
X108011048Y-94964803D01*
X108184479Y-95110600D01*
X108293041Y-95155864D01*
X108361151Y-95113073D01*
X108397691Y-95037779D01*
X108366704Y-94898144D01*
X108199491Y-94667693D01*
X107953184Y-94402779D01*
X107457300Y-93901666D01*
X107941483Y-93412378D01*
X108167123Y-93172370D01*
X108336683Y-92969177D01*
X108421190Y-92838267D01*
X108425666Y-92819711D01*
X112574333Y-92819711D01*
X112630487Y-92924633D01*
X112779631Y-93111554D01*
X112992791Y-93345004D01*
X113058516Y-93412378D01*
X113542699Y-93901666D01*
X113046815Y-94402779D01*
X112764038Y-94711372D01*
X112619057Y-94926904D01*
X112602308Y-95037779D01*
X112662102Y-95139788D01*
X112748361Y-95150581D01*
X112886909Y-95058632D01*
X113103575Y-94852412D01*
X113170538Y-94784153D01*
X113449732Y-94504769D01*
X113651864Y-94344844D01*
X113817243Y-94301774D01*
X113986176Y-94372958D01*
X114198970Y-94555795D01*
X114354113Y-94707761D01*
X114656501Y-94980059D01*
X114870607Y-95111629D01*
X114995155Y-95101957D01*
X115029666Y-94978625D01*
X114973574Y-94876117D01*
X114824581Y-94691106D01*
X114611612Y-94458702D01*
X114545483Y-94390955D01*
X114061300Y-93901666D01*
X114080453Y-93882311D01*
X118254362Y-93882311D01*
X118293743Y-94381053D01*
X118302402Y-94437358D01*
X118350103Y-94650737D01*
X118394093Y-94705052D01*
X118432591Y-94610562D01*
X118463814Y-94377525D01*
X118485981Y-94016202D01*
X118497309Y-93536850D01*
X118498407Y-93309000D01*
X118492444Y-92792077D01*
X118475968Y-92390978D01*
X118451098Y-92114309D01*
X118419953Y-91970674D01*
X118384649Y-91968678D01*
X118347307Y-92116925D01*
X118310045Y-92424020D01*
X118302207Y-92512108D01*
X118257182Y-93250315D01*
X118254362Y-93882311D01*
X114080453Y-93882311D01*
X114545483Y-93412378D01*
X114771123Y-93172370D01*
X114940683Y-92969177D01*
X115025190Y-92838267D01*
X115029666Y-92819711D01*
X114977989Y-92719373D01*
X114833211Y-92741745D01*
X114610709Y-92879512D01*
X114325860Y-93125362D01*
X114267445Y-93182218D01*
X113796647Y-93648104D01*
X113336549Y-93182218D01*
X113050988Y-92920851D01*
X112817590Y-92761573D01*
X112653957Y-92712754D01*
X112577687Y-92782766D01*
X112574333Y-92819711D01*
X108425666Y-92819711D01*
X108373989Y-92719373D01*
X108229211Y-92741745D01*
X108006709Y-92879512D01*
X107721860Y-93125362D01*
X107663445Y-93182218D01*
X107192647Y-93648104D01*
X106732549Y-93182218D01*
X106446988Y-92920851D01*
X106213590Y-92761573D01*
X106049957Y-92712754D01*
X105973687Y-92782766D01*
X105970333Y-92819711D01*
X102708388Y-92819711D01*
X102708363Y-92819194D01*
X102687802Y-92631081D01*
X102682575Y-92607954D01*
X102646197Y-92500990D01*
X102617228Y-92500024D01*
X102590564Y-92622826D01*
X102561101Y-92887163D01*
X102542028Y-93097333D01*
X102520670Y-93459241D01*
X102510704Y-93895370D01*
X102190301Y-93895370D01*
X102202666Y-90980666D01*
X110500000Y-90980666D01*
X118797333Y-90980666D01*
X118797333Y-96103000D01*
G37*
%TO.C,C1*%
D13*
X121530000Y-93930000D02*
X121867000Y-93930000D01*
X121530000Y-99170000D02*
X121530000Y-93930000D01*
X121867000Y-99170000D02*
X121530000Y-99170000D01*
X123933000Y-93930000D02*
X124270000Y-93930000D01*
X124270000Y-93930000D02*
X124270000Y-99170000D01*
X124270000Y-99170000D02*
X123933000Y-99170000D01*
%TO.C,U1*%
X147750000Y-92410000D02*
X147750000Y-102690000D01*
X147750000Y-102690000D02*
X149400000Y-102690000D01*
X151400000Y-102690000D02*
X153050000Y-102690000D01*
X153050000Y-92410000D02*
X147750000Y-92410000D01*
X153050000Y-102690000D02*
X153050000Y-92410000D01*
X149400000Y-102690000D02*
G75*
G02*
X151400000Y-102690000I1000000J0D01*
G01*
D14*
%TO.C,G\u002A\u002A\u002A*%
G36*
X155140397Y-106618499D02*
G01*
X155086762Y-106739354D01*
X154972762Y-106995293D01*
X154807105Y-107366796D01*
X154598502Y-107834341D01*
X154355661Y-108378409D01*
X154087290Y-108979478D01*
X153884448Y-109433666D01*
X153608297Y-110054520D01*
X153356849Y-110624823D01*
X153137874Y-111126562D01*
X152959143Y-111541720D01*
X152828426Y-111852284D01*
X152753494Y-112040239D01*
X152738668Y-112090043D01*
X152816772Y-112059722D01*
X153021149Y-111957324D01*
X153330657Y-111794088D01*
X153724152Y-111581255D01*
X154180490Y-111330066D01*
X154439720Y-111185720D01*
X154920667Y-110918466D01*
X155349750Y-110683068D01*
X155705849Y-110490863D01*
X155967844Y-110353188D01*
X156114613Y-110281380D01*
X156138444Y-110273888D01*
X156122069Y-110358000D01*
X156065313Y-110588343D01*
X155972675Y-110947871D01*
X155848654Y-111419537D01*
X155697749Y-111986294D01*
X155524460Y-112631096D01*
X155333284Y-113336896D01*
X155229456Y-113718111D01*
X155030534Y-114450385D01*
X154847098Y-115131944D01*
X154683678Y-115745486D01*
X154544803Y-116273713D01*
X154435005Y-116699324D01*
X154358812Y-117005021D01*
X154320754Y-117173503D01*
X154317466Y-117200959D01*
X154392373Y-117193544D01*
X154563067Y-117108186D01*
X154719667Y-117010922D01*
X154942412Y-116869778D01*
X155106847Y-116777829D01*
X155160052Y-116757695D01*
X155133927Y-116823418D01*
X155025094Y-117006203D01*
X154847547Y-117284106D01*
X154615281Y-117635184D01*
X154363777Y-118006166D01*
X154079863Y-118420588D01*
X153823109Y-118795460D01*
X153611358Y-119104723D01*
X153462451Y-119322320D01*
X153398893Y-119415340D01*
X153314728Y-119520806D01*
X153270643Y-119479763D01*
X153243418Y-119373006D01*
X153203723Y-119174454D01*
X153147599Y-118861645D01*
X153080741Y-118469983D01*
X153008845Y-118034869D01*
X152937606Y-117591708D01*
X152872721Y-117175902D01*
X152819885Y-116822855D01*
X152784794Y-116567970D01*
X152773078Y-116449482D01*
X152813077Y-116417444D01*
X152928612Y-116529401D01*
X153090578Y-116745958D01*
X153267421Y-116984557D01*
X153374586Y-117087913D01*
X153425950Y-117068069D01*
X153432189Y-117042291D01*
X153472094Y-116777908D01*
X153526122Y-116404505D01*
X153590798Y-115947598D01*
X153662649Y-115432702D01*
X153738200Y-114885332D01*
X153813978Y-114331006D01*
X153886507Y-113795237D01*
X153952316Y-113303542D01*
X154007928Y-112881437D01*
X154049871Y-112554437D01*
X154074670Y-112348058D01*
X154079695Y-112286557D01*
X154003861Y-112318108D01*
X153802431Y-112420979D01*
X153497371Y-112583428D01*
X153110646Y-112793712D01*
X152664222Y-113040088D01*
X152521304Y-113119637D01*
X152060403Y-113374488D01*
X151651638Y-113596341D01*
X151317184Y-113773503D01*
X151079213Y-113894284D01*
X150959902Y-113946993D01*
X150950576Y-113947797D01*
X150966713Y-113862677D01*
X151025029Y-113631011D01*
X151121077Y-113269040D01*
X151250416Y-112793006D01*
X151408600Y-112219153D01*
X151591186Y-111563721D01*
X151793729Y-110842954D01*
X151983521Y-110172551D01*
X153047162Y-106427999D01*
X154135599Y-106427999D01*
X155224036Y-106427999D01*
X155140397Y-106618499D01*
G37*
G36*
X154319386Y-99821833D02*
G01*
X154539702Y-99952923D01*
X154596781Y-100041262D01*
X154732947Y-100267049D01*
X154942808Y-100620976D01*
X155220973Y-101093736D01*
X155562049Y-101676021D01*
X155960646Y-102358525D01*
X156411370Y-103131939D01*
X156908831Y-103986957D01*
X157447636Y-104914271D01*
X158022394Y-105904573D01*
X158627713Y-106948557D01*
X159258201Y-108036914D01*
X159908465Y-109160338D01*
X160573116Y-110309520D01*
X161246760Y-111475155D01*
X161924005Y-112647933D01*
X162599461Y-113818549D01*
X163267734Y-114977693D01*
X163923434Y-116116060D01*
X164561169Y-117224341D01*
X165175546Y-118293230D01*
X165761173Y-119313418D01*
X166307992Y-120267446D01*
X166551782Y-120721432D01*
X166693987Y-121068689D01*
X166737631Y-121335646D01*
X166685735Y-121548733D01*
X166541322Y-121734379D01*
X166481837Y-121787473D01*
X166221341Y-122006666D01*
X154029324Y-122006666D01*
X141837308Y-122006666D01*
X141580845Y-121750203D01*
X141408568Y-121541168D01*
X141351305Y-121345636D01*
X141357272Y-121221036D01*
X141401793Y-121123871D01*
X141525323Y-120890252D01*
X141722067Y-120530295D01*
X141748489Y-120482666D01*
X143453592Y-120482666D01*
X154044626Y-120482666D01*
X155368144Y-120482169D01*
X156643426Y-120480718D01*
X157860379Y-120478374D01*
X159008911Y-120475197D01*
X160078932Y-120471249D01*
X161060349Y-120466589D01*
X161943072Y-120461280D01*
X162717008Y-120455380D01*
X163372066Y-120448952D01*
X163898155Y-120442056D01*
X164285182Y-120434752D01*
X164523057Y-120427101D01*
X164601689Y-120419166D01*
X164511405Y-120256297D01*
X164346215Y-119964602D01*
X164112333Y-119554817D01*
X163815976Y-119037677D01*
X163463360Y-118423916D01*
X163060699Y-117724268D01*
X162614210Y-116949468D01*
X162130108Y-116110251D01*
X161614609Y-115217352D01*
X161073928Y-114281505D01*
X160514282Y-113313445D01*
X159941886Y-112323907D01*
X159362955Y-111323624D01*
X158783706Y-110323333D01*
X158210353Y-109333767D01*
X157649113Y-108365661D01*
X157106201Y-107429750D01*
X156587834Y-106536769D01*
X156100226Y-105697452D01*
X155649593Y-104922533D01*
X155242151Y-104222748D01*
X154884116Y-103608831D01*
X154581703Y-103091517D01*
X154341127Y-102681540D01*
X154168606Y-102389636D01*
X154070354Y-102226538D01*
X154049191Y-102194666D01*
X154003342Y-102266193D01*
X153879060Y-102473601D01*
X153682586Y-102806124D01*
X153420160Y-103253000D01*
X153098022Y-103803464D01*
X152722412Y-104446753D01*
X152299572Y-105172104D01*
X151835741Y-105968753D01*
X151337160Y-106825936D01*
X150810069Y-107732890D01*
X150260709Y-108678851D01*
X149695319Y-109653056D01*
X149120141Y-110644740D01*
X148541414Y-111643140D01*
X147965380Y-112637493D01*
X147398277Y-113617035D01*
X146846348Y-114571003D01*
X146315832Y-115488632D01*
X145812969Y-116359160D01*
X145344000Y-117171822D01*
X144915165Y-117915855D01*
X144532705Y-118580495D01*
X144202861Y-119154979D01*
X143931871Y-119628544D01*
X143725977Y-119990424D01*
X143591419Y-120229858D01*
X143562129Y-120283113D01*
X143453592Y-120482666D01*
X141748489Y-120482666D01*
X141986226Y-120054114D01*
X142312005Y-119471821D01*
X142693607Y-118793532D01*
X143125235Y-118029360D01*
X143601092Y-117189418D01*
X144115382Y-116283821D01*
X144662308Y-115322683D01*
X145236073Y-114316117D01*
X145830882Y-113274237D01*
X146440936Y-112207158D01*
X147060439Y-111124992D01*
X147683595Y-110037855D01*
X148304607Y-108955859D01*
X148917678Y-107889119D01*
X149517012Y-106847748D01*
X150096811Y-105841861D01*
X150651280Y-104881571D01*
X151174621Y-103976992D01*
X151661038Y-103138238D01*
X152104733Y-102375422D01*
X152499912Y-101698660D01*
X152840776Y-101118064D01*
X153121529Y-100643749D01*
X153336374Y-100285828D01*
X153479515Y-100054415D01*
X153539443Y-99965997D01*
X153748143Y-99827577D01*
X154031295Y-99779220D01*
X154319386Y-99821833D01*
G37*
%TO.C,C5*%
D13*
X122530000Y-68080000D02*
X122860000Y-68080000D01*
X122530000Y-73020000D02*
X122530000Y-68080000D01*
X122860000Y-73020000D02*
X122530000Y-73020000D01*
X124940000Y-68080000D02*
X125270000Y-68080000D01*
X125270000Y-68080000D02*
X125270000Y-73020000D01*
X125270000Y-73020000D02*
X124940000Y-73020000D01*
%TO.C,R4*%
X122480000Y-75630000D02*
X122480000Y-76110000D01*
X122480000Y-79470000D02*
X122480000Y-78990000D01*
X132620000Y-75630000D02*
X122480000Y-75630000D01*
X132620000Y-76110000D02*
X132620000Y-75630000D01*
X132620000Y-78990000D02*
X132620000Y-79470000D01*
X132620000Y-79470000D02*
X122480000Y-79470000D01*
%TO.C,TP2*%
X195050000Y-72310000D02*
G75*
G02*
X192650000Y-72310000I-1200000J0D01*
G01*
X192650000Y-72310000D02*
G75*
G02*
X195050000Y-72310000I1200000J0D01*
G01*
%TO.C,R2*%
X147480000Y-59480000D02*
X147960000Y-59480000D01*
X147480000Y-69620000D02*
X147480000Y-59480000D01*
X147960000Y-69620000D02*
X147480000Y-69620000D01*
X150840000Y-69620000D02*
X151320000Y-69620000D01*
X151320000Y-59480000D02*
X150840000Y-59480000D01*
X151320000Y-69620000D02*
X151320000Y-59480000D01*
%TO.C,C6*%
X179045225Y-105835000D02*
X179545225Y-105835000D01*
X179295225Y-105585000D02*
X179295225Y-106085000D01*
X181850000Y-104730000D02*
X181850000Y-106270000D01*
X181850000Y-108350000D02*
X181850000Y-109890000D01*
X181890000Y-104730000D02*
X181890000Y-106270000D01*
X181890000Y-108350000D02*
X181890000Y-109890000D01*
X181930000Y-104731000D02*
X181930000Y-106270000D01*
X181930000Y-108350000D02*
X181930000Y-109889000D01*
X181970000Y-104733000D02*
X181970000Y-106270000D01*
X181970000Y-108350000D02*
X181970000Y-109887000D01*
X182010000Y-104735000D02*
X182010000Y-106270000D01*
X182010000Y-108350000D02*
X182010000Y-109885000D01*
X182050000Y-104738000D02*
X182050000Y-106270000D01*
X182050000Y-108350000D02*
X182050000Y-109882000D01*
X182090000Y-104741000D02*
X182090000Y-106270000D01*
X182090000Y-108350000D02*
X182090000Y-109879000D01*
X182130000Y-104745000D02*
X182130000Y-106270000D01*
X182130000Y-108350000D02*
X182130000Y-109875000D01*
X182170000Y-104750000D02*
X182170000Y-106270000D01*
X182170000Y-108350000D02*
X182170000Y-109870000D01*
X182210000Y-104755000D02*
X182210000Y-106270000D01*
X182210000Y-108350000D02*
X182210000Y-109865000D01*
X182250000Y-104761000D02*
X182250000Y-106270000D01*
X182250000Y-108350000D02*
X182250000Y-109859000D01*
X182290000Y-104767000D02*
X182290000Y-106270000D01*
X182290000Y-108350000D02*
X182290000Y-109853000D01*
X182330000Y-104774000D02*
X182330000Y-106270000D01*
X182330000Y-108350000D02*
X182330000Y-109846000D01*
X182370000Y-104782000D02*
X182370000Y-106270000D01*
X182370000Y-108350000D02*
X182370000Y-109838000D01*
X182410000Y-104791000D02*
X182410000Y-106270000D01*
X182410000Y-108350000D02*
X182410000Y-109829000D01*
X182450000Y-104800000D02*
X182450000Y-106270000D01*
X182450000Y-108350000D02*
X182450000Y-109820000D01*
X182490000Y-104809000D02*
X182490000Y-106270000D01*
X182490000Y-108350000D02*
X182490000Y-109811000D01*
X182530000Y-104820000D02*
X182530000Y-106270000D01*
X182530000Y-108350000D02*
X182530000Y-109800000D01*
X182570000Y-104831000D02*
X182570000Y-106270000D01*
X182570000Y-108350000D02*
X182570000Y-109789000D01*
X182610000Y-104843000D02*
X182610000Y-106270000D01*
X182610000Y-108350000D02*
X182610000Y-109777000D01*
X182650000Y-104855000D02*
X182650000Y-106270000D01*
X182650000Y-108350000D02*
X182650000Y-109765000D01*
X182690000Y-104868000D02*
X182690000Y-106270000D01*
X182690000Y-108350000D02*
X182690000Y-109752000D01*
X182730000Y-104882000D02*
X182730000Y-106270000D01*
X182730000Y-108350000D02*
X182730000Y-109738000D01*
X182770000Y-104897000D02*
X182770000Y-106270000D01*
X182770000Y-108350000D02*
X182770000Y-109723000D01*
X182810000Y-104912000D02*
X182810000Y-106270000D01*
X182810000Y-108350000D02*
X182810000Y-109708000D01*
X182850000Y-104928000D02*
X182850000Y-106270000D01*
X182850000Y-108350000D02*
X182850000Y-109692000D01*
X182890000Y-104945000D02*
X182890000Y-106270000D01*
X182890000Y-108350000D02*
X182890000Y-109675000D01*
X182930000Y-104963000D02*
X182930000Y-106270000D01*
X182930000Y-108350000D02*
X182930000Y-109657000D01*
X182970000Y-104981000D02*
X182970000Y-106270000D01*
X182970000Y-108350000D02*
X182970000Y-109639000D01*
X183010000Y-105001000D02*
X183010000Y-106270000D01*
X183010000Y-108350000D02*
X183010000Y-109619000D01*
X183050000Y-105021000D02*
X183050000Y-106270000D01*
X183050000Y-108350000D02*
X183050000Y-109599000D01*
X183090000Y-105042000D02*
X183090000Y-106270000D01*
X183090000Y-108350000D02*
X183090000Y-109578000D01*
X183130000Y-105064000D02*
X183130000Y-106270000D01*
X183130000Y-108350000D02*
X183130000Y-109556000D01*
X183170000Y-105087000D02*
X183170000Y-106270000D01*
X183170000Y-108350000D02*
X183170000Y-109533000D01*
X183210000Y-105111000D02*
X183210000Y-106270000D01*
X183210000Y-108350000D02*
X183210000Y-109509000D01*
X183250000Y-105135000D02*
X183250000Y-106270000D01*
X183250000Y-108350000D02*
X183250000Y-109485000D01*
X183290000Y-105161000D02*
X183290000Y-106270000D01*
X183290000Y-108350000D02*
X183290000Y-109459000D01*
X183330000Y-105188000D02*
X183330000Y-106270000D01*
X183330000Y-108350000D02*
X183330000Y-109432000D01*
X183370000Y-105216000D02*
X183370000Y-106270000D01*
X183370000Y-108350000D02*
X183370000Y-109404000D01*
X183410000Y-105245000D02*
X183410000Y-106270000D01*
X183410000Y-108350000D02*
X183410000Y-109375000D01*
X183450000Y-105275000D02*
X183450000Y-106270000D01*
X183450000Y-108350000D02*
X183450000Y-109345000D01*
X183490000Y-105307000D02*
X183490000Y-106270000D01*
X183490000Y-108350000D02*
X183490000Y-109313000D01*
X183530000Y-105340000D02*
X183530000Y-106270000D01*
X183530000Y-108350000D02*
X183530000Y-109280000D01*
X183570000Y-105374000D02*
X183570000Y-106270000D01*
X183570000Y-108350000D02*
X183570000Y-109246000D01*
X183610000Y-105409000D02*
X183610000Y-106270000D01*
X183610000Y-108350000D02*
X183610000Y-109211000D01*
X183650000Y-105446000D02*
X183650000Y-106270000D01*
X183650000Y-108350000D02*
X183650000Y-109174000D01*
X183690000Y-105485000D02*
X183690000Y-106270000D01*
X183690000Y-108350000D02*
X183690000Y-109135000D01*
X183730000Y-105525000D02*
X183730000Y-106270000D01*
X183730000Y-108350000D02*
X183730000Y-109095000D01*
X183770000Y-105567000D02*
X183770000Y-106270000D01*
X183770000Y-108350000D02*
X183770000Y-109053000D01*
X183810000Y-105611000D02*
X183810000Y-106270000D01*
X183810000Y-108350000D02*
X183810000Y-109009000D01*
X183850000Y-105658000D02*
X183850000Y-106270000D01*
X183850000Y-108350000D02*
X183850000Y-108962000D01*
X183890000Y-105706000D02*
X183890000Y-108914000D01*
X183930000Y-105757000D02*
X183930000Y-108863000D01*
X183970000Y-105811000D02*
X183970000Y-108809000D01*
X184010000Y-105867000D02*
X184010000Y-108753000D01*
X184050000Y-105927000D02*
X184050000Y-108693000D01*
X184090000Y-105991000D02*
X184090000Y-108629000D01*
X184130000Y-106059000D02*
X184130000Y-108561000D01*
X184170000Y-106133000D02*
X184170000Y-108487000D01*
X184210000Y-106212000D02*
X184210000Y-108408000D01*
X184250000Y-106299000D02*
X184250000Y-108321000D01*
X184290000Y-106396000D02*
X184290000Y-108224000D01*
X184330000Y-106505000D02*
X184330000Y-108115000D01*
X184370000Y-106633000D02*
X184370000Y-107987000D01*
X184410000Y-106793000D02*
X184410000Y-107827000D01*
X184450000Y-107027000D02*
X184450000Y-107593000D01*
X184470000Y-107310000D02*
G75*
G02*
X179230000Y-107310000I-2620000J0D01*
G01*
X179230000Y-107310000D02*
G75*
G02*
X184470000Y-107310000I2620000J0D01*
G01*
%TD*%
M02*
