M48
; DRILL file KiCad 10.0.1 date 2026-06-03T22:04:15
; FORMAT={-:-/ absolute / metric / decimal}
; #@! TF.CreationDate,2026-06-03T22:04:15+01:00
; #@! TF.GenerationSoftware,Kicad,Pcbnew,10.0.1
; #@! TF.FileFunction,Plated,1,2,PTH
FMAT,2
METRIC
; #@! TA.AperFunction,Plated,PTH,ViaDrill
T1C0.300
; #@! TA.AperFunction,Plated,PTH,ComponentDrill
T2C0.800
; #@! TA.AperFunction,Plated,PTH,ComponentDrill
T3C1.000
; #@! TA.AperFunction,Plated,PTH,ComponentDrill
T4C1.100
; #@! TA.AperFunction,Plated,PTH,ComponentDrill
T5C1.200
%
G90
G05
T1
X112.24Y-81.24
X113.0Y-75.16
X115.99Y-77.49
X130.629Y-96.629
X141.132Y-77.132
X141.7Y-96.5
X142.143Y-107.0
X144.5Y-88.0
X146.09Y-94.382
X147.854Y-92.846
X149.413Y-72.521
X152.7Y-96.164
X186.759Y-112.873
X187.672Y-100.78
X192.5Y-101.5
X195.271Y-85.0
X196.491Y-107.491
X201.3Y-100.0
T2
X109.59Y-68.24
X109.59Y-75.86
X112.13Y-68.24
X112.13Y-75.86
X112.9Y-83.55
X112.9Y-85.55
X114.67Y-68.24
X114.67Y-75.86
X117.21Y-68.24
X117.21Y-75.86
X122.9Y-94.05
X122.9Y-99.05
X123.9Y-68.05
X123.9Y-73.05
X134.4Y-98.865
X134.4Y-101.365
X146.59Y-93.74
X146.59Y-96.28
X146.59Y-98.82
X146.59Y-101.36
X154.21Y-93.74
X154.21Y-96.28
X154.21Y-98.82
X154.21Y-101.36
X178.85Y-112.31
X180.85Y-107.31
X182.85Y-107.31
X183.85Y-112.31
X186.04Y-109.19
X186.04Y-111.73
X186.04Y-114.27
X186.04Y-116.81
X193.66Y-109.19
X193.66Y-111.73
X193.66Y-114.27
X193.66Y-116.81
T3
X103.36Y-80.05
X105.9Y-80.05
X116.0Y-108.0
X133.9Y-88.55
X133.9Y-93.55
X141.4Y-107.55
X142.4Y-86.425
X142.4Y-101.665
X143.94Y-107.55
X203.0Y-100.0
X203.0Y-102.54
T4
X147.4Y-78.97
X147.4Y-89.13
X188.85Y-99.23
X188.85Y-101.77
X188.85Y-104.31
T5
X107.4Y-64.05
X120.1Y-64.05
X121.2Y-77.55
X133.9Y-77.55
X141.9Y-67.2
X141.9Y-79.9
X149.4Y-58.2
X149.4Y-70.9
X151.9Y-77.2
X151.9Y-89.9
X183.5Y-89.31
X196.2Y-89.31
X199.0Y-106.15
X199.0Y-118.85
M30
