%TF.GenerationSoftware,KiCad,Pcbnew,10.0.1*%
%TF.CreationDate,2026-05-26T20:22:45+01:00*%
%TF.ProjectId,emp,656d702e-6b69-4636-9164-5f7063625858,rev?*%
%TF.SameCoordinates,Original*%
%TF.FileFunction,Soldermask,Bot*%
%TF.FilePolarity,Negative*%
%FSLAX46Y46*%
G04 Gerber Fmt 4.6, Leading zero omitted, Abs format (unit mm)*
G04 Created by KiCad (PCBNEW 10.0.1) date 2026-05-26 20:22:45*
%MOMM*%
%LPD*%
G01*
G04 APERTURE LIST*
G04 Aperture macros list*
%AMRoundRect*
0 Rectangle with rounded corners*
0 $1 Rounding radius*
0 $2 $3 $4 $5 $6 $7 $8 $9 X,Y pos of 4 corners*
0 Add a 4 corners polygon primitive as box body*
4,1,4,$2,$3,$4,$5,$6,$7,$8,$9,$2,$3,0*
0 Add four circle primitives for the rounded corners*
1,1,$1+$1,$2,$3*
1,1,$1+$1,$4,$5*
1,1,$1+$1,$6,$7*
1,1,$1+$1,$8,$9*
0 Add four rect primitives between the rounded corners*
20,1,$1+$1,$2,$3,$4,$5,0*
20,1,$1+$1,$4,$5,$6,$7,0*
20,1,$1+$1,$6,$7,$8,$9,0*
20,1,$1+$1,$8,$9,$2,$3,0*%
G04 Aperture macros list end*
%ADD10R,1.700000X1.700000*%
%ADD11RoundRect,0.250000X0.550000X-0.550000X0.550000X0.550000X-0.550000X0.550000X-0.550000X-0.550000X0*%
%ADD12C,1.600000*%
%ADD13C,2.000000*%
%ADD14R,2.000000X1.905000*%
%ADD15O,2.000000X1.905000*%
%ADD16C,2.400000*%
%ADD17C,1.700000*%
%ADD18RoundRect,0.250000X-0.550000X-0.550000X0.550000X-0.550000X0.550000X0.550000X-0.550000X0.550000X0*%
%ADD19RoundRect,0.250000X0.750000X-0.750000X0.750000X0.750000X-0.750000X0.750000X-0.750000X-0.750000X0*%
%ADD20RoundRect,0.249999X0.850001X-0.850001X0.850001X0.850001X-0.850001X0.850001X-0.850001X-0.850001X0*%
%ADD21C,2.200000*%
%ADD22RoundRect,0.250000X0.550000X0.550000X-0.550000X0.550000X-0.550000X-0.550000X0.550000X-0.550000X0*%
G04 APERTURE END LIST*
D10*
%TO.C,J4*%
X91400000Y-106050000D03*
%TD*%
D11*
%TO.C,C2*%
X134400000Y-101364702D03*
D12*
X134400000Y-98864702D03*
%TD*%
D13*
%TO.C,L1*%
X142400000Y-86425000D03*
X142400000Y-101665000D03*
%TD*%
D14*
%TO.C,Q1*%
X188850000Y-104310000D03*
D15*
X188850000Y-101770000D03*
X188850000Y-99230000D03*
%TD*%
D16*
%TO.C,R1*%
X151900000Y-89900000D03*
X151900000Y-77200000D03*
%TD*%
%TO.C,R5*%
X120100000Y-64050000D03*
X107400000Y-64050000D03*
%TD*%
D10*
%TO.C,J3*%
X103360000Y-80050000D03*
D17*
X105900000Y-80050000D03*
%TD*%
D16*
%TO.C,R7*%
X199000000Y-118850000D03*
X199000000Y-106150000D03*
%TD*%
D12*
%TO.C,C7*%
X178850000Y-112310000D03*
X183850000Y-112310000D03*
%TD*%
D18*
%TO.C,U3*%
X186040000Y-109190000D03*
D12*
X186040000Y-111730000D03*
X186040000Y-114270000D03*
X186040000Y-116810000D03*
X193660000Y-116810000D03*
X193660000Y-114270000D03*
X193660000Y-111730000D03*
X193660000Y-109190000D03*
%TD*%
D16*
%TO.C,R6*%
X183500000Y-89310000D03*
X196200000Y-89310000D03*
%TD*%
D10*
%TO.C,J1*%
X203000000Y-100000000D03*
D17*
X203000000Y-102540000D03*
%TD*%
D19*
%TO.C,C3*%
X133900000Y-93550000D03*
D13*
X133900000Y-88550000D03*
%TD*%
D10*
%TO.C,J2*%
X141400000Y-107550000D03*
D17*
X143940000Y-107550000D03*
%TD*%
D11*
%TO.C,U2*%
X109590000Y-75860000D03*
D12*
X112130000Y-75860000D03*
X114670000Y-75860000D03*
X117210000Y-75860000D03*
X117210000Y-68240000D03*
X114670000Y-68240000D03*
X112130000Y-68240000D03*
X109590000Y-68240000D03*
%TD*%
D11*
%TO.C,C4*%
X112900000Y-85550000D03*
D12*
X112900000Y-83550000D03*
%TD*%
D20*
%TO.C,D1*%
X147400000Y-89130000D03*
D21*
X147400000Y-78970000D03*
%TD*%
D16*
%TO.C,R3*%
X141900000Y-79900000D03*
X141900000Y-67200000D03*
%TD*%
D12*
%TO.C,C1*%
X122900000Y-99050000D03*
X122900000Y-94050000D03*
%TD*%
D22*
%TO.C,U1*%
X154210000Y-101360000D03*
D12*
X154210000Y-98820000D03*
X154210000Y-96280000D03*
X154210000Y-93740000D03*
X146590000Y-93740000D03*
X146590000Y-96280000D03*
X146590000Y-98820000D03*
X146590000Y-101360000D03*
%TD*%
%TO.C,C5*%
X123900000Y-73050000D03*
X123900000Y-68050000D03*
%TD*%
D16*
%TO.C,R4*%
X133900000Y-77550000D03*
X121200000Y-77550000D03*
%TD*%
%TO.C,R2*%
X149400000Y-70900000D03*
X149400000Y-58200000D03*
%TD*%
D18*
%TO.C,C6*%
X180850000Y-107310000D03*
D12*
X182850000Y-107310000D03*
%TD*%
M02*
